<svg xmlns="http://www.w3.org/2000/svg" viewBox="0 0 141.32 27.39">
<path fill="#fff" d="M14.62,0H16A9.6,9.6,0,0,1,20.7,1.17a2.1,2.1,0,0,1,.85,2.45,2.94,2.94,0,0,1-3.09,2,5.73,5.73,0,0,1-2-1.2,15.11,15.11,0,0,0-3.11-2.23,4.58,4.58,0,0,0-3-.22,6.69,6.69,0,0,0-4,3.26,12.27,12.27,0,0,0-1.6,6.35A13.27,13.27,0,0,0,7,19.16a10.74,10.74,0,0,0,6.56,4.46,9.06,9.06,0,0,0,5.7-.47,12.65,12.65,0,0,0,2.22-1.3,9.45,9.45,0,0,0,1.14.59A14.61,14.61,0,0,1,16,26.8a12.66,12.66,0,0,1-8.33-.31,12.15,12.15,0,0,1-6.42-6.31A14.26,14.26,0,0,1,0,15v-1.2A14.56,14.56,0,0,1,1.14,8.89,14.64,14.64,0,0,1,7,2.28,16.23,16.23,0,0,1,14.62,0"/>
<path fill="#fff" d="M42.67,0h0l.65.23c-.17,1.44-.3,2.89-.48,4.33C45.34,2.76,48,.93,51,.26A15.1,15.1,0,0,1,52.76,0h1.08a8.62,8.62,0,0,1,3.31.81,5.7,5.7,0,0,1,2.67,2.85,13.41,13.41,0,0,1,.92,5.51c0,3.72,0,7.43,0,11.16a22.8,22.8,0,0,0,.09,2.33,3.65,3.65,0,0,0,.6,1.82,2.87,2.87,0,0,0,1.57.94,14.66,14.66,0,0,0,2.36.45c0,.3,0,.6,0,.9H51.56a4.39,4.39,0,0,1,0-.89,8.08,8.08,0,0,0,3.48-1.06c1-.75,1-2.05,1.09-3.16.06-2.62,0-5.24,0-7.86a31.27,31.27,0,0,0-.25-5.3,6.8,6.8,0,0,0-1.69-3.67A6.74,6.74,0,0,0,49.14,3.1a7.52,7.52,0,0,0-2.78.42,9.52,9.52,0,0,0-3.17,2c-.13.09-.08.27-.09.4,0,5.19,0,10.39,0,15.58a6.93,6.93,0,0,0,.45,2.59,2.63,2.63,0,0,0,1.7,1.26,14.85,14.85,0,0,0,2.46.48v.9H33.91c0-.3,0-.6,0-.9a12.86,12.86,0,0,0,2.45-.51,2.64,2.64,0,0,0,1.76-1.48,13.48,13.48,0,0,0,.41-4V8.06a5.49,5.49,0,0,0-.35-2.31,7.74,7.74,0,0,0-2.55-2.54v-.6C38,1.73,40.33.89,42.67,0"/>
<path fill="#fff" d="M76.24,0h1.21a13.7,13.7,0,0,1,2.22.36,8.1,8.1,0,0,1,4.81,3.39A9.91,9.91,0,0,1,86,8.69H68.82c-.13,1-.18,1.94-.24,2.91a11.53,11.53,0,0,0,2.16,7.9A10,10,0,0,0,77,23.39a9.48,9.48,0,0,0,4.9-.29A9,9,0,0,0,86,19.84l.89.66a14.31,14.31,0,0,1-6.79,6.05,11.88,11.88,0,0,1-11.71-1.81,12.63,12.63,0,0,1-3.86-5.32,14.65,14.65,0,0,1-.85-7.15,14.11,14.11,0,0,1,5.9-10.09A13.07,13.07,0,0,1,76.25,0M74,1.4a6,6,0,0,0-3.82,3A9.09,9.09,0,0,0,69,7.6c1.3-.14,2.61-.08,3.92-.19q3.72-.13,7.43-.31a8.67,8.67,0,0,0-2.47-4.72A4.41,4.41,0,0,0,74,1.4"/>
<path fill="#fff" d="M132.55,0h1a11.69,11.69,0,0,1,6,2c.06,1.74.1,3.49.19,5.24l-1.31.25a11,11,0,0,0-2.56-4.91,4.27,4.27,0,0,0-5.51-.24,4.22,4.22,0,0,0-1.33,3.44,4.57,4.57,0,0,0,1.82,3.37,39.67,39.67,0,0,0,5.49,3.32,11.55,11.55,0,0,1,4,3.35,6.34,6.34,0,0,1,.91,4.31,7.31,7.31,0,0,1-2.35,4.53,10.88,10.88,0,0,1-7.07,2.72,12.53,12.53,0,0,1-7.56-2.16c-.14-1.57-.2-3.14-.35-4.7-.08-.62,0-1.26-.15-1.88a10.91,10.91,0,0,1,1.41-.23A11.52,11.52,0,0,0,127.92,24a5.86,5.86,0,0,0,4.26,1.8,4.49,4.49,0,0,0,3.24-1.26,4.85,4.85,0,0,0,.31-6.35,10.29,10.29,0,0,0-3.23-2.39A31.34,31.34,0,0,1,127,12.6a6.66,6.66,0,0,1-2.26-3.52,7.14,7.14,0,0,1,.44-4.71,7.33,7.33,0,0,1,3.19-3.21A10.42,10.42,0,0,1,132.55,0"/>
<path fill="#fff" d="M83.18.58q6.24,0,12.5,0c0,.3,0,.59,0,.89a7,7,0,0,0-2.31.39,1.55,1.55,0,0,0-1,1,3.44,3.44,0,0,0,.17,1.68c.39,1.24.91,2.44,1.37,3.65,1.63,4.19,3.3,8.37,4.91,12.56,1.86-4.3,3.66-8.63,5.5-12.95.13-.27-.06-.53-.14-.78A19.26,19.26,0,0,0,102.28,3,4.82,4.82,0,0,0,99,1.47c0-.3,0-.59,0-.89,4.21,0,8.43,0,12.65,0v.88A7.66,7.66,0,0,0,109,2,1.57,1.57,0,0,0,108,3.42a7.59,7.59,0,0,0,.63,2.34c1.88,5,3.79,10,5.64,15,.77-1.58,1.45-3.2,2.17-4.8,1.19-2.74,2.37-5.49,3.37-8.3a21,21,0,0,0,1-3.71,1.9,1.9,0,0,0-.69-1.88,6.4,6.4,0,0,0-2.59-.62V.58h10q0,.43,0,.87a5.23,5.23,0,0,0-2.83,1,10.13,10.13,0,0,0-2.51,3.87c-3.16,7-6.28,14-9.44,21a6.26,6.26,0,0,0-.75,0h0q-3.52-9-7-18c-2.5,6-4.94,12-7.42,18h0c-.27,0-.55,0-.82,0q-4.44-11-8.89-22A7.86,7.86,0,0,0,86,2.52a4.73,4.73,0,0,0-2.86-1.06c0-.29,0-.59,0-.88"/>
<path fill="#2c92e5" d="M21.63,8.06a7.6,7.6,0,0,1,4.1-1.75,7.37,7.37,0,0,1,8.14,7.39,7.3,7.3,0,0,1-1.62,4.63A7.41,7.41,0,1,1,20.88,8.82,3.22,3.22,0,0,0,20.35,11a3.08,3.08,0,1,0,2.94-3.46,3.39,3.39,0,0,0-1.66.53"/>
</svg>