<svg version="1.2" xmlns="http://www.w3.org/2000/svg" viewBox="0 0 113 86" width="113" height="86">
	<g id="Транспорт,">
		<g id="-e-&lt;Group&gt;">
			<g id="&lt;Group&gt;">
				<g id="&lt;Group&gt;">
					<path id="&lt;Path&gt;" fill="none" stroke="#ffffff" stroke-miterlimit="10" stroke-width="1.3" d="m43 25.9l-24.6-6.1-2.5-4.3"/>
					<path id="&lt;Path&gt;" fill="#403f4d" stroke="#ffffff" stroke-miterlimit="10" stroke-width="1.3" d="m16.9 14.6c-0.2 0.9-1.1 1.4-2 1.2-0.9-0.2-1.4-1.1-1.2-2 0.2-0.9 1.1-1.4 2-1.2 0.9 0.3 1.4 1.1 1.2 2z"/>
				</g>
				<path id="&lt;Path&gt;" fill="none" stroke="#ffffff" stroke-miterlimit="10" stroke-width="1.3" d="m51.1 34.2l-28.7-7.1"/>
				<path id="&lt;Path&gt;" fill="none" stroke="#ffffff" stroke-miterlimit="10" stroke-width="1.3" d="m45 39.8l-30.7-7.7"/>
				<path id="&lt;Path&gt;" fill="none" stroke="#ffffff" stroke-miterlimit="10" stroke-width="1.3" d="m45.4 44l-33.1-8.3-5.1 3.1-3.2-0.8"/>
				<path id="&lt;Path&gt;" fill="none" stroke="#ffffff" stroke-miterlimit="10" stroke-width="1.3" d="m45.4 49l-22.1-5.5-4.1 2.4"/>
				<g id="&lt;Group&gt;">
					<path id="&lt;Path&gt;" fill="none" stroke="#ffffff" stroke-miterlimit="10" stroke-width="1.3" d="m41.9 20.2l-20.4-5-3.5-5.9-11.6-4.6"/>
					<path id="&lt;Path&gt;" fill="#403f4d" stroke="#ffffff" stroke-miterlimit="10" stroke-width="1.3" d="m8 5.1c-0.2 0.9-1.1 1.4-2 1.2-0.9-0.2-1.4-1.1-1.2-2 0.2-0.9 1.1-1.4 2-1.2 0.9 0.2 1.4 1.1 1.2 2z"/>
				</g>
				<path id="&lt;Path&gt;" fill="#403f4d" stroke="#ffffff" stroke-miterlimit="10" stroke-width="1.3" d="m23.8 27.4c-0.2 0.9-1.1 1.4-2 1.2-0.9-0.2-1.4-1.1-1.2-2 0.2-0.8 1.1-1.4 2-1.2 0.9 0.3 1.4 1.2 1.2 2z"/>
				<path id="&lt;Path&gt;" fill="#403f4d" stroke="#ffffff" stroke-miterlimit="10" stroke-width="1.3" d="m14.5 32.1c-0.3 0.9-1.2 1.5-2 1.2-0.9-0.2-1.5-1.1-1.2-1.9 0.2-0.9 1.1-1.5 2-1.2 0.8 0.2 1.4 1.1 1.2 1.9z"/>
				<path id="&lt;Path&gt;" fill="#403f4d" stroke="#ffffff" stroke-miterlimit="10" stroke-width="1.3" d="m4.8 38.1c-0.3 0.9-1.2 1.5-2 1.2-0.9-0.2-1.4-1.1-1.2-2 0.2-0.8 1.1-1.4 2-1.2 0.8 0.3 1.4 1.2 1.2 2z"/>
				<path id="&lt;Path&gt;" fill="#403f4d" stroke="#ffffff" stroke-miterlimit="10" stroke-width="1.3" d="m19.5 47.1c-0.2 0.8-1.1 1.4-2 1.2-0.9-0.3-1.4-1.1-1.2-2 0.2-0.9 1.1-1.4 2-1.2 0.9 0.2 1.4 1.1 1.2 2z"/>
			</g>
			<g id="&lt;Group&gt;">
				<path id="&lt;Path&gt;" fill="#403f4d" stroke="#ffffff" stroke-linejoin="round" stroke-width="1.3" d="m111.8 32v50.9l-1.8 1.7v-2.4-48.6z"/>
				<path id="&lt;Path&gt;" fill="#403f4d" stroke="#ffffff" stroke-linejoin="round" stroke-width="1.3" d="m110 33.6v48.6 2.4l-69.8-26.5v-51l1.8 0.7z"/>
				<path id="&lt;Path&gt;" fill="#403f4d" stroke="#ffffff" stroke-linejoin="round" stroke-width="1.3" d="m111.8 32l-1.8 1.6-68-25.8-1.8-0.7 1.8-1.6z"/>
			</g>
			<g id="&lt;Group&gt;">
				<path id="&lt;Path&gt;" fill="none" stroke="#ffffff" stroke-linecap="round" stroke-miterlimit="10" stroke-width="1.3" d="m52.1 16.9c-2.5-1-4.6-5.2-4.6-9.4 0-4.2 2.1-6.8 4.6-5.9 2.5 1 4.6 5.2 4.6 9.4"/>
				<path id="&lt;Path&gt;" fill="none" stroke="#ffffff" stroke-linecap="round" stroke-miterlimit="10" stroke-width="1.3" d="m67.4 22.7c-2.5-1-4.6-5.1-4.6-9.4 0-4.2 2.1-6.8 4.6-5.9 2.6 1 4.6 5.2 4.6 9.4"/>
				<path id="&lt;Path&gt;" fill="none" stroke="#ffffff" stroke-linecap="round" stroke-miterlimit="10" stroke-width="1.3" d="m82.7 28.5c-2.5-0.9-4.6-5.1-4.6-9.3 0-4.3 2.1-6.9 4.6-5.9 2.6 0.9 4.6 5.1 4.6 9.3"/>
				<path id="&lt;Path&gt;" fill="none" stroke="#ffffff" stroke-linecap="round" stroke-miterlimit="10" stroke-width="1.3" d="m98 34.3c-2.5-0.9-4.5-5.1-4.5-9.3 0-4.2 2-6.9 4.5-5.9 2.6 0.9 4.6 5.1 4.6 9.3"/>
			</g>
			<g id="&lt;Group&gt;">
				<path id="&lt;Path&gt;" fill="none" stroke="#2dcc70" stroke-miterlimit="10" stroke-width="1.3" d="m61 34.9l-12.9-4.9v-5.8l12.9 4.9z"/>
				<path id="&lt;Path&gt;" fill="none" stroke="#2dcc70" stroke-miterlimit="10" stroke-width="1.3" d="m81.6 42.7l-13-4.9v-5.8l13 4.9z"/>
				<path id="&lt;Path&gt;" fill="none" stroke="#f8104b" stroke-miterlimit="10" stroke-width="1.3" d="m102.1 50.5l-13-4.9v-5.8l13 4.9z"/>
			</g>
			<g id="&lt;Group&gt;">
				<path id="&lt;Path&gt;" fill="none" stroke="#f8104b" stroke-miterlimit="10" stroke-width="1.3" d="m61 46.3l-13-4.9v-5.8l13 4.9z"/>
				<path id="&lt;Path&gt;" fill="none" stroke="#2dcc70" stroke-miterlimit="10" stroke-width="1.3" d="m81.6 54.1l-13-4.9v-5.8l13 4.9z"/>
				<path id="&lt;Path&gt;" fill="none" stroke="#2dcc70" stroke-miterlimit="10" stroke-width="1.3" d="m102.1 61.9l-13-4.9v-5.8l13 4.9z"/>
			</g>
			<g id="&lt;Group&gt;">
				<path id="&lt;Path&gt;" fill="none" stroke="#2dcc70" stroke-miterlimit="10" stroke-width="1.3" d="m61 56.9l-13-4.9v-5.8l13 4.9z"/>
				<path id="&lt;Path&gt;" fill="none" stroke="#2dcc70" stroke-miterlimit="10" stroke-width="1.3" d="m81.6 64.7l-13-5v-5.8l13 5z"/>
				<path id="&lt;Path&gt;" fill="none" stroke="#2dcc70" stroke-miterlimit="10" stroke-width="1.3" d="m102.1 72.5l-13-5v-5.8l13 5z"/>
			</g>
		</g>
	</g>
</svg>