<svg version="1.2" xmlns="http://www.w3.org/2000/svg" viewBox="0 0 138 53" width="138" height="53">
	<g id="медицина">
		<g id="-e-&lt;Group&gt;">
			<g id="&lt;Group&gt;">
				<g id="&lt;Group&gt;">
					<path id="&lt;Path&gt;" fill="#f8104b" d="m63.4 47.9h-58.5c-0.7 0-1.2-0.5-1.2-1.2v-43.3c0-0.7 0.5-1.2 1.2-1.2h58.5c0.6 0 1.2 0.5 1.2 1.2v43.3c0 0.7-0.6 1.2-1.2 1.2z"/>
					<g id="&lt;Group&gt;">
						<g id="&lt;Group&gt;">
							<path id="&lt;Path&gt;" fill="#403f4d" stroke="#ffffff" stroke-miterlimit="10" d="m47.2 42.2l-16.9-4.7c-0.7-0.2-1-0.8-0.9-1.4l6.7-24.4c0.2-0.6 0.8-1 1.5-0.8l16.9 4.7c0.6 0.1 1 0.8 0.8 1.4l-6.7 24.3c-0.2 0.7-0.8 1-1.4 0.9z"/>
							<path id="&lt;Path&gt;" fill="#403f4d" stroke="#ffffff" stroke-miterlimit="10" d="m44.8 35.2v-2.4q0-0.6 0.4-1.1c1-1.2 3.6-4.4 3.6-6.8 0-2.9-2.4-5.7-5.8-5.9-3.5-0.2-5.6 2.8-5.6 5.2 0 1.1-1.5 2.5-1.5 2.5l1.5 0.7v1.9c0 1 0.8 1.7 1.7 1.7 1 0 1.7 0.8 1.7 1.7v2.5"/>
						</g>
						<path id="&lt;Path&gt;" fill="none" stroke="#ffffff" stroke-miterlimit="10" d="m29.1 37.2l-2.6 2.7c-0.3 0.3-0.8 0.4-1.2 0.4h-12.3"/>
						<path id="&lt;Path&gt;" fill="#403f4d" stroke="#ffffff" stroke-miterlimit="10" d="m13 36.7h12.1"/>
						<path id="&lt;Path&gt;" fill="#403f4d" stroke="#ffffff" stroke-miterlimit="10" d="m13 10.3h12.1"/>
						<path id="&lt;Path&gt;" fill="#403f4d" stroke="#ffffff" stroke-miterlimit="10" d="m13 13.3h12.1"/>
						<path id="&lt;Path&gt;" fill="#403f4d" stroke="#ffffff" stroke-miterlimit="10" d="m13 16.4h12.1"/>
						<path id="&lt;Path&gt;" fill="#403f4d" stroke="#ffffff" stroke-miterlimit="10" d="m13 19.5h12.1"/>
						<path id="&lt;Path&gt;" fill="#403f4d" stroke="#ffffff" stroke-miterlimit="10" d="m13 22.6h12.1"/>
						<path id="&lt;Path&gt;" fill="#403f4d" stroke="#ffffff" stroke-miterlimit="10" d="m13 25.7h12.1"/>
					</g>
					<path id="&lt;Path&gt;" fill="#29b579" d="m66.6 52.4h-65c-0.6 0-1.1-0.5-1.1-1.2v-2.1c0-0.7 0.5-1.2 1.1-1.2h65c0.7 0 1.2 0.5 1.2 1.2v2.1c0 0.7-0.5 1.2-1.2 1.2z"/>
				</g>
				<g id="&lt;Group&gt;">
					<path id="&lt;Path&gt;" fill="#403f4d" stroke="#ffffff" stroke-miterlimit="10" d="m127.6 7.6c10.7 14.3 7.1 29.5-2.7 37.4-0.3 0.2-0.4 0.5-0.4 0.9v3.5c0 0.6-0.5 1.2-1.2 1.2h-28.2c-0.6 0-1.1-0.6-1.1-1.2v-3.5c0-0.4-0.2-0.7-0.5-0.9-5.6-4.6-9.2-11.5-9.2-19.4 0-19.5 22.6-33.8 43.1-18.3q0.1 0.1 0.2 0.3z"/>
					<path id="&lt;Path&gt;" fill="#403f4d" stroke="#ffffff" stroke-miterlimit="10" d="m135.4 33.9h-52.4c-0.6 0-1.1-0.5-1.1-1.2v-14.1c0-0.7 0.5-1.2 1.1-1.2h52.4c0.7 0 1.2 0.5 1.2 1.2v14.1c0 0.7-0.5 1.2-1.2 1.2z"/>
					<path id="&lt;Path&gt;" fill="#403f4d" stroke="#ffffff" stroke-miterlimit="10" d="m128.9 25.6c0 10.9-8.8 19.7-19.7 19.7-10.9 0-19.7-8.8-19.7-19.7 0-10.8 8.8-19.7 19.7-19.7 10.9 0 19.7 8.9 19.7 19.7z"/>
					<g id="&lt;Group&gt;">
						<path id="&lt;Path&gt;" fill="#403f4d" stroke="#ffffff" stroke-miterlimit="10" d="m98.4 13.9c2.8-2.7 6.6-4.4 10.8-4.4"/>
						<path id="&lt;Path&gt;" fill="#403f4d" stroke="#ffffff" stroke-miterlimit="10" d="m120.1 13.9c-2.9-2.7-6.7-4.4-10.9-4.4"/>
					</g>
					<path id="&lt;Path&gt;" fill="#403f4d" stroke="#ffffff" stroke-miterlimit="10" d="m121.7 25.6c0 6.9-5.6 12.5-12.5 12.5-6.8 0-12.4-5.6-12.4-12.5 0-6.8 5.6-12.4 12.4-12.4 6.9 0 12.5 5.6 12.5 12.4z"/>
					<path id="&lt;Path&gt;" fill="#403f4d" stroke="#ffffff" stroke-miterlimit="10" d="m114.2 48.8h-10c-0.6 0-1.1-0.5-1.1-1.1v-11.6c0-0.6 0.5-1.1 1.1-1.1h10c0.7 0 1.2 0.5 1.2 1.1v11.6c0 0.6-0.5 1.1-1.2 1.1z"/>
					<path id="&lt;Path&gt;" fill="#403f4d" stroke="#ffffff" stroke-miterlimit="10" d="m117.8 38.1h-17.2c-0.6 0-1.1-0.5-1.1-1.2v-5.3c0-0.7 0.5-1.2 1.1-1.2h17.2c0.7 0 1.2 0.5 1.2 1.2v5.3c0 0.7-0.5 1.2-1.2 1.2z"/>
					<path id="&lt;Path&gt;" fill="#403f4d" stroke="#ffffff" stroke-miterlimit="10" d="m117.4 52.1h-16.4c-0.6 0-1.1-0.5-1.1-1.1v-2.5c0-0.7 0.5-1.2 1.1-1.2h16.4c0.6 0 1.2 0.5 1.2 1.2v2.5c0 0.6-0.6 1.1-1.2 1.1z"/>
					<path id="&lt;Path&gt;" fill="#403f4d" stroke="#ffffff" stroke-miterlimit="10" d="m99.5 36.3h19.5"/>
				</g>
				<path id="&lt;Path&gt;" fill="#403f4d" stroke="#ffffff" stroke-miterlimit="10" d="m81.9 25.6h-17.6"/>
				<path id="&lt;Path&gt;" fill="#403f4d" stroke="#ffffff" stroke-miterlimit="10" d="m66.9 25.6c0 1.3-1.1 2.4-2.4 2.4-1.3 0-2.4-1.1-2.4-2.4 0-1.3 1.1-2.4 2.4-2.4 1.3 0 2.4 1.1 2.4 2.4z"/>
			</g>
		</g>
	</g>
</svg>