<svg version="1.2" xmlns="http://www.w3.org/2000/svg" viewBox="0 0 106 68" width="106" height="68">
	<title>Улучшение покрытия спутников</title>
	<style>
		.s0 { fill: #403f4d;stroke: #ffffff;stroke-linejoin: round } 
		.s1 { fill: #1d7372;stroke: #ffffff;stroke-linejoin: round } 
		.s2 { fill: none;stroke: #ffffff;stroke-linejoin: round } 
		.s3 { fill: none;stroke: #ffffff;stroke-miterlimit:10 } 
		.s4 { fill: #403f4d;stroke: #ffffff;stroke-miterlimit:10 } 
	</style>
	<g id="Улучшение покрытия спутников">
		<g id="-e-&lt;Group&gt;">
			<g id="&lt;Group&gt;">
				<g id="&lt;Group&gt;">
					<path id="&lt;Path&gt;" class="s0" d="m60.2 14.9c0 4-3.2 7.3-7.3 7.3-4 0-7.3-3.3-7.3-7.3 0-4.1 3.3-7.4 7.3-7.4 4.1 0 7.3 3.3 7.3 7.4z"/>
					<g id="&lt;Group&gt;">
						<path id="&lt;Path&gt;" class="s1" d="m60.3 41.8l-7.4-3.7 5.6-2.8z"/>
						<path id="&lt;Path&gt;" class="s1" d="m58.5 35.3l-5.6 2.8-5.6-2.8 5.6-20.4z"/>
						<path id="&lt;Path&gt;" class="s1" d="m52.9 48.3l-10.6 5.2 2.6-9.2z"/>
						<path id="&lt;Path&gt;" class="s1" d="m63.5 53.5l-10.6-5.2 8.1-4z"/>
						<path id="&lt;Path&gt;" class="s1" d="m63.7 54.2l-10.8 5.3-10.7-5.3 0.1-0.7 10.6-5.2 10.6 5.2z"/>
						<path id="&lt;Path&gt;" class="s1" d="m52.9 59.5l-14.1 7.1 3.4-12.4z"/>
						<path id="&lt;Path&gt;" class="s1" d="m67 66.6l-14.1-7.1 10.8-5.3z"/>
						<path id="&lt;Path&gt;" class="s1" d="m67 66.6h-28.2l14.1-7.1z"/>
						<path id="&lt;Path&gt;" class="s2" d="m74.7 66.6h-7.7"/>
						<path id="&lt;Path&gt;" class="s2" d="m38.8 66.6h-7.7"/>
					</g>
					<path id="&lt;Path&gt;" class="s1" d="m61 44.3l-8.1 4-8-4 0.7-2.5 7.3-3.7 7.4 3.7z"/>
					<path id="&lt;Path&gt;" class="s1" d="m52.9 38.1l-7.3 3.7 1.7-6.5z"/>
					<path id="&lt;Path&gt;" class="s1" d="m56.4 14.9c0 1.9-1.6 3.4-3.5 3.4-1.9 0-3.4-1.5-3.4-3.4 0-1.9 1.5-3.5 3.4-3.5 1.9 0 3.5 1.6 3.5 3.5z"/>
				</g>
				<g id="&lt;Group&gt;">
					<g id="&lt;Group&gt;">
						<path id="&lt;Path&gt;" class="s3" d="m99.2 45.5c3.6-6.2 5.6-13.3 5.6-20.9 0-7.6-2-14.7-5.6-20.8"/>
						<path id="&lt;Path&gt;" class="s3" d="m99.2 3.8c3.6 6.1 5.6 13.2 5.6 20.8 0 7.6-2 14.7-5.6 20.9"/>
						<path id="&lt;Path&gt;" class="s3" d="m75.4 37.2c2.1-3.7 3.4-8 3.4-12.6 0-4.6-1.3-8.9-3.4-12.6"/>
						<path id="&lt;Path&gt;" class="s3" d="m86.9 7.9c2.9 5 4.5 10.6 4.5 16.7 0 6.1-1.6 11.8-4.5 16.7"/>
						<path id="&lt;Path&gt;" class="s3" d="m75.4 12c2.1 3.7 3.4 8 3.4 12.6 0 4.6-1.3 8.9-3.4 12.6"/>
					</g>
					<g id="&lt;Group&gt;">
						<path id="&lt;Path&gt;" class="s4" d="m99.2 1.3c1.4 0 2.5 1.1 2.5 2.5 0 1.3-1.1 2.4-2.5 2.4-1.3 0-2.4-1.1-2.4-2.4 0-1.4 1.1-2.5 2.4-2.5z"/>
						<path id="&lt;Path&gt;" class="s4" d="m99.2 43c1.4 0 2.5 1.1 2.5 2.5 0 1.3-1.1 2.4-2.5 2.4-1.3 0-2.4-1.1-2.4-2.4 0-1.4 1.1-2.5 2.4-2.5z"/>
						<path id="&lt;Path&gt;" class="s4" d="m86.9 38.8c1.4 0 2.5 1.1 2.5 2.5 0 1.3-1.1 2.4-2.5 2.4-1.3 0-2.4-1.1-2.4-2.4 0-1.4 1.1-2.5 2.4-2.5z"/>
						<path id="&lt;Path&gt;" class="s4" d="m86.9 5.5c1.4 0 2.5 1.1 2.5 2.4 0 1.4-1.1 2.5-2.5 2.5-1.3 0-2.4-1.1-2.4-2.5 0-1.3 1.1-2.4 2.4-2.4z"/>
						<path id="&lt;Path&gt;" class="s4" d="m75.4 10.4c1.3 0 2.4 1.1 2.4 2.4 0 1.4-1.1 2.5-2.4 2.5-1.4 0-2.5-1.1-2.5-2.5 0-1.3 1.1-2.4 2.5-2.4z"/>
						<path id="&lt;Path&gt;" class="s4" d="m75.4 34.8c1.3 0 2.4 1.1 2.4 2.4 0 1.4-1.1 2.5-2.4 2.5-1.4 0-2.5-1.1-2.5-2.5 0-1.3 1.1-2.4 2.5-2.4z"/>
					</g>
				</g>
				<g id="&lt;Group&gt;">
					<g id="&lt;Group&gt;">
						<path id="&lt;Path&gt;" class="s3" d="m6.6 45.5c-3.6-6.2-5.6-13.3-5.6-20.9 0-7.6 2-14.7 5.6-20.8"/>
						<path id="&lt;Path&gt;" class="s3" d="m6.6 3.8c-3.6 6.1-5.6 13.2-5.6 20.8 0 7.6 2 14.7 5.6 20.9"/>
						<path id="&lt;Path&gt;" class="s3" d="m30.4 37.2c-2.1-3.7-3.3-8-3.3-12.6 0-4.6 1.2-8.9 3.3-12.6"/>
						<path id="&lt;Path&gt;" class="s3" d="m18.9 7.9c-2.9 5-4.5 10.6-4.5 16.7 0 6.1 1.6 11.8 4.5 16.7"/>
						<path id="&lt;Path&gt;" class="s3" d="m30.4 12c-2.1 3.7-3.3 8-3.3 12.6 0 4.6 1.2 8.9 3.3 12.6"/>
					</g>
					<g id="&lt;Group&gt;">
						<path id="&lt;Path&gt;" class="s4" d="m6.6 1.3c-1.4 0-2.5 1.1-2.5 2.5 0 1.3 1.1 2.4 2.5 2.4 1.3 0 2.4-1.1 2.4-2.4 0-1.4-1.1-2.5-2.4-2.5z"/>
						<path id="&lt;Path&gt;" class="s4" d="m6.6 43c-1.4 0-2.5 1.1-2.5 2.5 0 1.3 1.1 2.4 2.5 2.4 1.3 0 2.4-1.1 2.4-2.4 0-1.4-1.1-2.5-2.4-2.5z"/>
						<path id="&lt;Path&gt;" class="s4" d="m18.9 38.8c-1.4 0-2.5 1.1-2.5 2.5 0 1.3 1.1 2.4 2.5 2.4 1.3 0 2.4-1.1 2.4-2.4 0-1.4-1.1-2.5-2.4-2.5z"/>
						<path id="&lt;Path&gt;" class="s4" d="m18.9 5.5c-1.4 0-2.5 1.1-2.5 2.4 0 1.4 1.1 2.5 2.5 2.5 1.3 0 2.4-1.1 2.4-2.5 0-1.3-1.1-2.4-2.4-2.4z"/>
						<path id="&lt;Path&gt;" class="s4" d="m30.4 10.4c-1.3 0-2.4 1.1-2.4 2.4 0 1.4 1.1 2.5 2.4 2.5 1.4 0 2.5-1.1 2.5-2.5 0-1.3-1.1-2.4-2.5-2.4z"/>
						<path id="&lt;Path&gt;" class="s4" d="m30.4 34.8c-1.3 0-2.4 1.1-2.4 2.4 0 1.4 1.1 2.5 2.4 2.5 1.4 0 2.5-1.1 2.5-2.5 0-1.3-1.1-2.4-2.5-2.4z"/>
					</g>
				</g>
			</g>
		</g>
	</g>
</svg>