<svg version="1.2" xmlns="http://www.w3.org/2000/svg" viewBox="0 0 105 59" width="105" height="59">
	<g id="Финансы">
		<g id="-e-&lt;Group&gt;">
			<g id="&lt;Group&gt;">
				<g id="&lt;Group&gt;">
					<path id="&lt;Path&gt;" fill="#1d7372" d="m52.5 52.3h-52.4c0-14.5 5.8-27.6 15.3-37.1z"/>
					<path id="&lt;Path&gt;" fill="#29b579" d="m52.5-0.1v52.4l-37.1-37.1c9.5-9.4 22.6-15.3 37.1-15.3z"/>
					<path id="&lt;Path&gt;" fill="#34cbcc" d="m89.6 15.2l-37.1 37.1v-52.4c14.5 0 27.6 5.9 37.1 15.3z"/>
					<path id="&lt;Path&gt;" fill="#00a6b4" d="m104.9 52.3h-52.4l37.1-37.1c9.5 9.5 15.3 22.6 15.3 37.1z"/>
				</g>
				<path id="&lt;Path&gt;" fill="#403f4d" stroke="#ffffff" stroke-linejoin="round" d="m58.2 51.3c0.4 2.1-0.4 4.3-2 5.6-1 0.8-2.3 1.3-3.7 1.3-1.3 0-2.5-0.4-3.4-1.1-1.8-1.3-2.7-3.6-2.3-5.8l0.1-0.9 5.6-32.6 5.5 32.6z"/>
			</g>
		</g>
	</g>
</svg>