<svg version="1.2" xmlns="http://www.w3.org/2000/svg" viewBox="0 0 169 85" width="169" height="85">
	<g id="Транспорт,">
		<g id="-e-&lt;Group&gt;">
			<g id="&lt;Group&gt;">
				<g id="&lt;Group&gt;">
					<g id="&lt;Group&gt;">
						<g id="&lt;Group&gt;">
							<g id="&lt;Group&gt;">
								<g id="&lt;Group&gt;">
									<path id="&lt;Path&gt;" fill="none" stroke="#2dcc70" stroke-miterlimit="10" stroke-width="1.2" d="m140.1 53.3l-23.6-23.9h-19.3"/>
									<path id="&lt;Path&gt;" fill="none" stroke="#2dcc70" stroke-miterlimit="10" stroke-width="1.2" d="m141.3 53.3h-13.1l-23.3-23.9h-39.8l-1.3 0.1-2.7 2.7-2.5 1.1"/>
								</g>
							</g>
							<g id="&lt;Group&gt;">
								<g id="&lt;Group&gt;">
									<path id="&lt;Path&gt;" fill="none" stroke="#2dcc70" stroke-miterlimit="10" stroke-width="1.2" d="m57.6 34.6c0.7 0 1.3-0.6 1.3-1.3 0-0.7-0.6-1.3-1.3-1.3-0.7 0.1-1.3 0.6-1.3 1.3 0 0.7 0.6 1.3 1.3 1.3z"/>
									<g id="&lt;Group&gt;">
										<path id="&lt;Path&gt;" fill="none" stroke="#2dcc70" stroke-miterlimit="10" stroke-width="1.2" d="m64.3 29.5h-11.6l-2.7 2.7h-5"/>
										<path id="&lt;Path&gt;" fill="none" stroke="#2dcc70" stroke-miterlimit="10" stroke-width="1.2" d="m44.1 33.4c0.7 0 1.3-0.5 1.3-1.2 0-0.7-0.6-1.3-1.3-1.3-0.7 0-1.3 0.6-1.3 1.3 0 0.7 0.6 1.3 1.3 1.2z"/>
									</g>
								</g>
							</g>
							<g id="&lt;Group&gt;">
								<g id="&lt;Group&gt;">
									<path id="&lt;Path&gt;" fill="none" stroke="#2dcc70" stroke-miterlimit="10" stroke-width="1.2" d="m149.4 59.6c-0.8 0-1.5-0.7-1.5-1.6 0-0.8 0.7-1.5 1.6-1.5 0.8 0 1.5 0.7 1.5 1.6 0 0.8-0.7 1.5-1.6 1.5z"/>
									<g id="&lt;Group&gt;">
										<path id="&lt;Path&gt;" fill="none" stroke="#2dcc70" stroke-miterlimit="10" stroke-width="1.2" d="m141.3 53.3h14.1l3.4 3.3h6.1"/>
										<path id="&lt;Path&gt;" fill="none" stroke="#2dcc70" stroke-miterlimit="10" stroke-width="1.2" d="m166.1 58.2c-0.9 0-1.6-0.7-1.6-1.6 0-0.8 0.7-1.5 1.6-1.5 0.9 0 1.6 0.7 1.5 1.5 0 0.9-0.7 1.6-1.5 1.6z"/>
									</g>
								</g>
								<g id="&lt;Group&gt;">
									<path id="&lt;Path&gt;" fill="none" stroke="#f8104b" stroke-linejoin="round" stroke-width="1.2" d="m79.8 25h14.2c0-3.2 2.6-5.9 5.9-5.9h7.3v-18.6h-27.4z"/>
									<path id="&lt;Path&gt;" fill="none" stroke="#ffffff" stroke-linejoin="round" stroke-width="1.2" d="m76.4 11.8v12.5h-18.9l-0.1-1.5c-0.1-2.8 2.2-5.1 4.9-5.1h3.7v-5.1c0-2.4 1.9-4.4 4.4-4.4h2.5c1.9 0 3.5 1.6 3.5 3.6z"/>
									<path id="&lt;Path&gt;" fill="#403f4d" stroke="#ffffff" stroke-linejoin="round" stroke-width="1.2" d="m104.3 25.6c0 2.1-1.7 3.8-3.8 3.8-2.1 0-3.9-1.7-3.9-3.8 0-2.1 1.8-3.8 3.9-3.8 2.1 0 3.8 1.7 3.8 3.8z"/>
									<path id="&lt;Path&gt;" fill="#403f4d" stroke="#ffffff" stroke-linejoin="round" stroke-width="1.2" d="m72.6 25.6c0 2.1-1.7 3.8-3.8 3.8-2.1 0-3.9-1.7-3.9-3.8 0-2.1 1.8-3.8 3.9-3.8 2.1 0 3.8 1.7 3.8 3.8z"/>
									<path id="&lt;Path&gt;" fill="none" stroke="#ffffff" stroke-linejoin="round" stroke-width="1.2" d="m70.9 17.7h-4.9v-5h4.9z"/>
								</g>
							</g>
						</g>
						<path id="&lt;Path&gt;" fill="none" stroke="#2dcc70" stroke-miterlimit="10" stroke-width="1.2" d="m111.9 36.8h11.7"/>
						<path id="&lt;Path&gt;" fill="none" stroke="#2dcc70" stroke-miterlimit="10" stroke-width="1.2" d="m119.9 44.5h11.8"/>
					</g>
					<g id="&lt;Group&gt;">
						<g id="&lt;Group&gt;">
							<g id="&lt;Group&gt;">
								<g id="&lt;Group&gt;">
									<path id="&lt;Path&gt;" fill="none" stroke="#2dcc70" stroke-miterlimit="10" stroke-width="1.2" d="m34.6 77h37.7l23.3-23.7h46.3l3.3 3.3 3.1 1.5"/>
								</g>
							</g>
							<g id="&lt;Group&gt;">
								<g id="&lt;Group&gt;">
									<path id="&lt;Path&gt;" fill="none" stroke="#2dcc70" stroke-miterlimit="10" stroke-width="1.2" d="m34.6 77h-6.6l-3.5 3.4-3.2 1.5"/>
									<path id="&lt;Path&gt;" fill="none" stroke="#2dcc70" stroke-miterlimit="10" stroke-width="1.2" d="m20.1 83.5c0.9 0 1.6-0.7 1.6-1.6 0-0.9-0.7-1.6-1.6-1.6-0.9 0-1.6 0.7-1.6 1.6 0 0.9 0.7 1.6 1.6 1.6z"/>
									<g id="&lt;Group&gt;">
										<path id="&lt;Path&gt;" fill="none" stroke="#2dcc70" stroke-miterlimit="10" stroke-width="1.2" d="m28.6 77h-14.8l-3.4 3.4h-6.4"/>
										<path id="&lt;Path&gt;" fill="none" stroke="#2dcc70" stroke-miterlimit="10" stroke-width="1.2" d="m2.8 82.1c0.9 0 1.6-0.8 1.6-1.7 0-0.9-0.7-1.6-1.6-1.6-0.9 0-1.7 0.7-1.7 1.6 0 0.9 0.8 1.7 1.7 1.7z"/>
									</g>
								</g>
								<g id="&lt;Group&gt;">
									<path id="&lt;Path&gt;" fill="none" stroke="#f8104b" stroke-linejoin="round" stroke-width="1.2" d="m56.1 72.4h-14.8c0-3.4-2.7-6.1-6.1-6.1h-7.6v-19.4h28.5z"/>
									<path id="&lt;Path&gt;" fill="none" stroke="#ffffff" stroke-linejoin="round" stroke-width="1.2" d="m59.6 58.6v13.1h19.8v-1.7c0.1-2.9-2.2-5.3-5.1-5.3h-3.8v-5.2c0-2.6-2-4.6-4.6-4.6h-2.6c-2 0-3.7 1.6-3.7 3.7z"/>
									<path id="&lt;Path&gt;" fill="#403f4d" stroke="#ffffff" stroke-linejoin="round" stroke-width="1.2" d="m30.6 73c0 2.2 1.8 4 4 4 2.2 0 3.9-1.8 3.9-4 0-2.2-1.7-4-3.9-4-2.2 0-4 1.8-4 4z"/>
									<path id="&lt;Path&gt;" fill="#403f4d" stroke="#ffffff" stroke-linejoin="round" stroke-width="1.2" d="m63.6 73c0 2.2 1.8 4 4 4 2.2 0 4-1.8 4-4 0-2.2-1.8-4-4-4-2.2 0-4 1.8-4 4z"/>
									<path id="&lt;Path&gt;" fill="none" stroke="#ffffff" stroke-linejoin="round" stroke-width="1.2" d="m65.3 64.7h5.2v-5.1h-5.2z"/>
								</g>
							</g>
						</g>
						<path id="&lt;Path&gt;" fill="none" stroke="#2dcc70" stroke-miterlimit="10" stroke-width="1.2" d="m100.3 60.7h-11.7"/>
						<path id="&lt;Path&gt;" fill="none" stroke="#2dcc70" stroke-miterlimit="10" stroke-width="1.2" d="m92.8 68.4h-12.3"/>
					</g>
				</g>
			</g>
			<path id="&lt;Path&gt;" fill="none" stroke="#2dcc70" stroke-miterlimit="10" stroke-width="1.2" d="m107.4 53.3l-22.9 23.7h-12.2"/>
		</g>
	</g>
</svg>