<svg version="1.2" xmlns="http://www.w3.org/2000/svg" viewBox="0 0 163 120" width="163" height="120">
	<g id="моделирование">
		<g id="-e-&lt;Group&gt;">
			<g id="&lt;Group&gt;">
				<path id="&lt;Path&gt;" fill="none" stroke="#ffffff" stroke-miterlimit="10" d="m70.3 77.4h20l10-17.3-10-17.3h-20l-10 17.3z"/>
				<path id="&lt;Path&gt;" fill="none" stroke="#ffffff" stroke-miterlimit="10" d="m65.4 16.6l-5.1 8.8 10 17.3h20l10-17.3-10-17.4"/>
				<path id="&lt;Path&gt;" fill="none" stroke="#ffffff" stroke-miterlimit="10" d="m60.5 94.8l10-17.4-10-17.3h-20.1l-10 17.3"/>
				<path id="&lt;Path&gt;" fill="none" stroke="#ffffff" stroke-miterlimit="10" d="m150 42.7h-20l-10 17.4 10 17.3h20l6.4-11"/>
				<path id="&lt;Path&gt;" fill="none" stroke="#ffffff" stroke-miterlimit="10" d="m100.1 60.1h20l10-17.4-10-17.3h-20l-10 17.3z"/>
			</g>
			<path id="&lt;Path&gt;" fill="#403f4d" stroke="#ffffff" stroke-miterlimit="10" d="m25.5 78.4c1.1-1.7 3.3-2.3 5.1-1.2 1.7 1 2.3 3.3 1.2 5-1 1.8-3.3 2.3-5 1.3-1.8-1.1-2.3-3.3-1.3-5.1z"/>
			<path id="&lt;Path&gt;" fill="#403f4d" stroke="#ffffff" stroke-miterlimit="10" d="m68.7 113.3c1-1.8 3.3-2.3 5.1-1.3 1.8 1.1 2.4 3.4 1.3 5.2-1.1 1.8-3.4 2.3-5.2 1.3-1.7-1.1-2.3-3.4-1.2-5.2z"/>
			<path id="&lt;Path&gt;" fill="none" stroke="#ffffff" stroke-miterlimit="10" d="m85.9 2.8c1.1-1.8 3.4-2.3 5.1-1.3 1.8 1.1 2.4 3.4 1.3 5.2-1.1 1.8-3.4 2.3-5.1 1.3-1.8-1.1-2.4-3.4-1.3-5.2z"/>
			<path id="&lt;Path&gt;" fill="none" stroke="#ffffff" stroke-miterlimit="10" d="m155.2 61.3c1.1-1.7 3.4-2.3 5.2-1.2 1.7 1 2.3 3.3 1.2 5.1-1 1.8-3.3 2.4-5.1 1.3-1.8-1.1-2.4-3.4-1.3-5.2z"/>
			<path id="&lt;Path&gt;" fill="none" stroke="#ffffff" stroke-miterlimit="10" d="m35.9 20.4l4.5 5h20.1l10 17.3-10 17.4h-20.1l-10-17.4"/>
			<path id="&lt;Path&gt;" fill="none" stroke="#ffffff" stroke-miterlimit="10" d="m109.8 95.2c0 0-9.2 0-9.2 0-0.2-0.2-0.3-0.4-0.3-0.4l-10-17.4h-20l-10 17.4 10 17.3"/>
			<path id="&lt;Path&gt;" fill="none" stroke="#ffffff" stroke-miterlimit="10" d="m0.2 48.9h4.6l5.9-6.2h19.7"/>
		</g>
	</g>
</svg>