<svg version="1.2" xmlns="http://www.w3.org/2000/svg" viewBox="0 0 114 76" width="114" height="76">
	<title>моделирование</title>
	<style>
		tspan { white-space:pre } 
		.s0 { fill: #a6dae8 } 
		.s1 { fill: #403f4d } 
		.s2 { fill: #48647c } 
		.s3 { fill: #ffffff } 
		.t4 { font-size: 25px;fill: #ffffff;font-weight: 700;font-family: "RobotoCondensed-Bold", "Roboto Condensed" } 
		.s5 { fill: #1d7372 } 
		.t6 { font-size: 16px;fill: #ffffff;font-weight: 700;font-family: "RobotoCondensed-Bold", "Roboto Condensed" } 
		.s7 { fill: #c0392b } 
		.t8 { font-size: 21px;fill: #ffffff;font-weight: 700;font-family: "RobotoCondensed-Bold", "Roboto Condensed" } 
	</style>
	<g id="моделирование">
		<g id="-e-&lt;Group&gt;">
			<g id="&lt;Group&gt;">
				<path id="&lt;Path&gt;" class="s0" d="m35.7 54.1l-32.6 16.7-2.8-5.6 32.6-16.6z"/>
				<path id="&lt;Path&gt;" class="s0" d="m95.2 50.1c-6.6 19.7-28 30.4-47.7 23.8-19.8-6.7-30.4-28-23.8-47.8 6.6-19.7 28-30.4 47.8-23.8 19.7 6.7 30.3 28 23.7 47.8z"/>
				<path id="&lt;Path&gt;" class="s1" d="m89.5 48.2c-5.5 16.6-23.5 25.5-40.1 20-16.6-5.6-25.6-23.6-20-40.2 5.6-16.6 23.6-25.5 40.2-20 16.6 5.6 25.5 23.6 19.9 40.2z"/>
				<g id="&lt;Group&gt;">
					<g id="&lt;Group&gt;">
						<g id="&lt;Group&gt;">
							<g id="&lt;Group&gt;">
								<path id="&lt;Path&gt;" class="s2" d="m97.2 59.3c-0.8 0-1.6-0.2-2.3-0.6l-11-6.4c-1.5-0.8-2.4-2.4-2.4-4v-12.7c0-1.7 0.9-3.3 2.4-4.1l11-6.4c0.7-0.4 1.5-0.6 2.3-0.6 0.8 0 1.6 0.2 2.3 0.6l11 6.4c1.5 0.8 2.4 2.4 2.4 4.1v12.7c0 1.6-0.9 3.2-2.4 4l-11 6.4c-0.7 0.4-1.5 0.6-2.3 0.6z"/>
								<g id="&lt;Group&gt;">
									<path id="&lt;Compound Path&gt;" fill-rule="evenodd" class="s3" d="m99.8 24.7l11 6.4c1.6 0.9 2.6 2.6 2.6 4.5v12.7c0 1.8-1 3.5-2.6 4.4l-11 6.4c-0.8 0.5-1.7 0.7-2.6 0.7-0.9 0-1.8-0.2-2.6-0.7l-11-6.4c-1.6-0.9-2.6-2.6-2.6-4.4v-12.7c0-1.9 1-3.6 2.6-4.5l11-6.4c0.8-0.4 1.7-0.7 2.6-0.7 0.9 0 1.8 0.3 2.6 0.7zm-4.7 0.9l-11 6.3c-1.3 0.8-2.1 2.2-2.1 3.7v12.7c0 1.5 0.8 2.8 2.1 3.6l11 6.3c0.7 0.4 1.4 0.6 2.1 0.6 0.7 0 1.4-0.2 2.1-0.6l11-6.3c1.3-0.8 2.1-2.1 2.1-3.6v-12.7c0-1.5-0.8-2.9-2.1-3.7l-11-6.3c-0.7-0.4-1.4-0.6-2.1-0.6-0.7 0-1.4 0.2-2.1 0.6z"/>
								</g>
							</g>
							<text id="B
" style="transform: matrix(1,0,0,1,90.777,50.464)" >
								<tspan x="0" y="0" class="t4">B
</tspan>
							</text>
						</g>
						<g id="&lt;Group&gt;">
							<g id="&lt;Group&gt;">
								<path id="&lt;Path&gt;" class="s5" d="m80 26.8c-0.8 0-1.6-0.2-2.3-0.6l-7.2-4.2c-1.4-0.8-2.3-2.4-2.3-4v-8.3c0-1.7 0.9-3.2 2.3-4.1l7.2-4.1c0.7-0.4 1.5-0.6 2.3-0.6 0.9 0 1.7 0.2 2.4 0.6l7.1 4.1c1.5 0.9 2.4 2.4 2.4 4.1v8.3c0 1.6-0.9 3.2-2.4 4l-7.1 4.2c-0.7 0.4-1.5 0.6-2.4 0.6z"/>
								<path id="&lt;Compound Path&gt;" fill-rule="evenodd" class="s3" d="m82.6 1l7.2 4.2c1.6 0.9 2.6 2.6 2.6 4.5v8.3c0 1.8-1 3.5-2.6 4.4l-7.2 4.2c-0.8 0.4-1.7 0.7-2.6 0.7-0.9 0-1.8-0.3-2.6-0.7l-7.1-4.2c-1.6-0.9-2.6-2.6-2.6-4.4v-8.3c0-1.9 1-3.6 2.6-4.5l7.1-4.2c0.8-0.4 1.7-0.6 2.6-0.6 0.9 0 1.8 0.2 2.6 0.6zm-4.7 0.9l-7.1 4.2c-1.3 0.7-2.1 2.1-2.1 3.6v8.3c0 1.5 0.8 2.8 2.1 3.6l7.1 4.1c0.7 0.4 1.4 0.6 2.1 0.6 0.8 0 1.5-0.2 2.1-0.6l7.2-4.1c1.3-0.8 2.1-2.1 2.1-3.6v-8.3c0-1.5-0.8-2.9-2.1-3.6l-7.2-4.2c-0.6-0.4-1.3-0.5-2.1-0.5-0.7 0-1.4 0.1-2.1 0.5z"/>
							</g>
							<text id="Cr
" style="transform: matrix(1,0,0,1,72.472,19.356)" >
								<tspan x="0" y="0" class="t6">Cr
</tspan>
							</text>
						</g>
						<g id="&lt;Group&gt;">
							<g id="&lt;Group&gt;">
								<path id="&lt;Path&gt;" class="s7" d="m57.5 59.5c-1.4 0-2.9-0.4-4.1-1.1l-12.9-7.5c-2.5-1.4-4.1-4.1-4.1-7.1v-14.8c0-3 1.6-5.7 4.1-7.1l12.9-7.5c1.2-0.7 2.7-1.1 4.1-1.1 1.4 0 2.9 0.4 4.1 1.1l12.9 7.5c2.5 1.4 4.1 4.1 4.1 7.1v14.8c0 3-1.6 5.7-4.1 7.1l-12.9 7.5c-1.2 0.7-2.7 1.1-4.1 1.1z"/>
								<g id="&lt;Group&gt;">
									<path id="&lt;Compound Path&gt;" fill-rule="evenodd" class="s3" d="m61.8 14l12.9 7.4c2.7 1.6 4.4 4.5 4.4 7.6v14.8c0 3.1-1.7 6-4.4 7.6l-12.9 7.4c-1.3 0.8-2.8 1.2-4.3 1.2-1.5 0-3-0.4-4.4-1.2l-12.8-7.4c-2.7-1.6-4.4-4.5-4.4-7.6v-14.8c0-3.1 1.7-6 4.4-7.6l12.8-7.4c1.4-0.8 2.9-1.2 4.4-1.2 1.5 0 3 0.4 4.3 1.2zm-8.2 0.8l-12.8 7.5c-2.4 1.4-3.9 3.9-3.9 6.7v14.8c0 2.8 1.5 5.3 3.9 6.7l12.8 7.5c1.2 0.6 2.6 1 3.9 1 1.3 0 2.7-0.4 3.8-1l12.9-7.5c2.4-1.4 3.9-3.9 3.9-6.7v-14.8c0-2.8-1.5-5.3-3.9-6.7l-12.9-7.5c-1.1-0.6-2.5-1-3.8-1-1.3 0-2.7 0.4-3.9 1z"/>
								</g>
							</g>
							<text id="Zn
" style="transform: matrix(1,0,0,1,46.604,42.973)" >
								<tspan x="0" y="0" class="t8">Zn
</tspan>
							</text>
						</g>
					</g>
				</g>
			</g>
		</g>
	</g>
</svg>