<svg version="1.2" xmlns="http://www.w3.org/2000/svg" viewBox="0 0 241 108" width="241" height="108">
	<title>Прогнозирование</title>
	<style>
		.s0 { fill: none;stroke: #ffffff;stroke-miterlimit:10 } 
		.s1 { fill: #403f4d;stroke: #ffffff;stroke-miterlimit:10 } 
	</style>
	<g id="Прогнозирование">
		<g id="-e-&lt;Group&gt;">
			<g id="&lt;Group&gt;">
				<path id="&lt;Path&gt;" class="s0" d="m167.4 56l-23-24.3"/>
				<path id="&lt;Path&gt;" class="s1" d="m166.4 59c1 1.6 3.1 2.1 4.7 1.1 1.6-0.9 2.2-3 1.2-4.7-1-1.6-3.1-2.1-4.7-1.1-1.7 1-2.2 3.1-1.2 4.7z"/>
				<path id="&lt;Path&gt;" class="s0" d="m212.2 63.7l-4.4-4.4v-4.4l-15.5-15.5"/>
				<path id="&lt;Path&gt;" class="s1" d="m211.2 66.7c1 1.6 3.1 2.2 4.8 1.2 1.6-1 2.1-3.1 1.1-4.7-1-1.7-3.1-2.2-4.7-1.2-1.6 1-2.1 3.1-1.2 4.7z"/>
				<path id="&lt;Path&gt;" class="s0" d="m195.3 58.2l-7.9-8.1v-4.4l-7.6-6.3"/>
				<path id="&lt;Path&gt;" class="s1" d="m194.3 61.2c1 1.6 3.1 2.1 4.7 1.1 1.6-0.9 2.2-3.1 1.2-4.7-1-1.6-3.1-2.1-4.7-1.1-1.7 0.9-2.2 3.1-1.2 4.7z"/>
				<path id="&lt;Path&gt;" class="s0" d="m185 64l-4.4-4.5v-4.4l-15.5-15.4"/>
				<path id="&lt;Path&gt;" class="s1" d="m182.1 67c0.9 1.6 3.1 2.1 4.7 1.1 1.6-0.9 2.1-3.1 1.1-4.7-1-1.6-3.1-2.1-4.7-1.1-1.6 0.9-2.1 3.1-1.1 4.7z"/>
				<path id="&lt;Path&gt;" class="s0" d="m160.8 67.3l-7.2-8v-4.4l-15.4-15.5"/>
				<path id="&lt;Path&gt;" class="s1" d="m160.5 71.3c1 1.6 3.1 2.1 4.7 1.2 1.6-1 2.2-3.1 1.2-4.8-1-1.6-3.1-2.1-4.7-1.1-1.7 1-2.2 3.1-1.2 4.7z"/>
			</g>
			<path id="&lt;Path&gt;" class="s1" d="m204.8 1h-8.8l-13.3 8.8h-13.2l-13.3 13.3h-13.3l-13.2 13.2v8.9h110.4v-13.3l-8.8-8.8-4.4-8.8h-13.3z"/>
			<g id="&lt;Group&gt;">
				<path id="&lt;Path&gt;" class="s0" d="m127.6 89.8l-22.9-24.2"/>
				<path id="&lt;Path&gt;" class="s1" d="m126.7 92.9c1 1.6 3.1 2.1 4.7 1.1 1.6-1 2.1-3.1 1.1-4.7-0.9-1.6-3-2.1-4.7-1.1-1.6 0.9-2.1 3-1.1 4.7z"/>
				<path id="&lt;Path&gt;" class="s0" d="m172.5 97.6l-4.4-4.4v-4.4l-20.7-20.7"/>
				<path id="&lt;Path&gt;" class="s1" d="m171.5 100.6c1 1.6 3.1 2.1 4.7 1.2 1.7-1 2.2-3.1 1.2-4.8-1-1.6-3.1-2.1-4.7-1.1-1.6 1-2.2 3.1-1.2 4.7z"/>
				<path id="&lt;Path&gt;" class="s0" d="m155.6 92l-7.9-8v-4.4l-7.7-6.3"/>
				<path id="&lt;Path&gt;" class="s1" d="m154.6 95.1c1 1.6 3.1 2.1 4.7 1.1 1.6-1 2.1-3.1 1.2-4.7-1-1.6-3.1-2.1-4.8-1.2-1.6 1-2.1 3.1-1.1 4.8z"/>
				<path id="&lt;Path&gt;" class="s0" d="m145.3 97.8l-4.4-4.4v-4.4l-15.5-15.5"/>
				<path id="&lt;Path&gt;" class="s1" d="m142.3 100.9c1 1.6 3.1 2.1 4.8 1.1 1.6-1 2.1-3.1 1.1-4.7-1-1.6-3.1-2.1-4.7-1.2-1.6 1-2.1 3.1-1.2 4.8z"/>
				<path id="&lt;Path&gt;" class="s0" d="m121.1 101.2l-7.2-8v-4.4l-15.5-15.5"/>
				<path id="&lt;Path&gt;" class="s1" d="m120.8 105.2c1 1.6 3.1 2.1 4.7 1.1 1.6-0.9 2.1-3 1.2-4.7-1-1.6-3.1-2.1-4.8-1.1-1.6 1-2.1 3.1-1.1 4.7z"/>
			</g>
			<path id="&lt;Path&gt;" class="s1" d="m85.6 47.3c0 19.6 15.8 35.4 35.3 35.4 19.5 0 35.4-15.8 35.4-35.4 0-19.5-15.9-35.3-35.4-35.3-19.5 0-35.3 15.8-35.3 35.3z"/>
			<path id="&lt;Path&gt;" class="s1" d="m44.6 52.3h8.8l13.3 8.8h13.2l13.3 13.3h13.2l13.3 13.3v8.8h-118.3v-13.3l13.4-2.8 7.3-11.3 13.7-3.5z"/>
		</g>
	</g>
</svg>