<svg version="1.2" xmlns="http://www.w3.org/2000/svg" viewBox="0 0 137 128" width="137" height="128">
	<g id="ии">
		<g id="-e-&lt;Group&gt;">
			<g id="&lt;Group&gt;">
				<path id="&lt;Path&gt;" fill="none" stroke="#ffffff" stroke-miterlimit="10" d="m121.5 102c0.4 1.2 1.8 6.2-1.4 11.1-3.3 5.2-10.6 8.1-18.2 7.2q-0.5 0.4-1.1 0.8c-11.6 9.5-29 0.9-29-14.1v-89.8c0-8.7 6.8-16.1 15.5-16.2q0.1 0 0.2 0c8.7-0.1 13.8 5.7 14.4 6.4 0.7-0.2 9.1-1.7 15.5 4.5 5.6 5.4 5.3 12.5 5.3 13.6h0.1c1.1 0.5 9.5 4.9 10.9 13.7 1 6.1-1.9 10.7-2.9 12.2 1.2 1.2 6.3 7 5.4 15.2-0.6 6-4.2 10.1-5.7 11.5 3.8 4.4 4.7 10.5 2.4 15.6-3.2 7.1-11 8.2-11.4 8.3z"/>
				<path id="&lt;Path&gt;" fill="none" stroke="#ffffff" stroke-miterlimit="10" d="m113.6 26.2c0 1-0.4 7.8 4.9 12.9 6.2 6.1 14.5 4.4 15.1 4.3"/>
				<path id="&lt;Path&gt;" fill="none" stroke="#ffffff" stroke-miterlimit="10" d="m134.2 72.9c-0.3-0.9-2.1-7.5-8.7-10.6-7.8-3.8-15.2 0.5-15.7 0.8"/>
				<path id="&lt;Path&gt;" fill="none" stroke="#ffffff" stroke-miterlimit="10" d="m122 103.6c-0.1-1-0.7-7.8-6.7-12.1-6.9-5.1-14.9-2.3-15.5-2"/>
				<path id="&lt;Path&gt;" fill="none" stroke="#ffffff" stroke-miterlimit="10" d="m92.1 22.1c0.1 0.6 1 8.5-5.3 13.9-6.2 5.2-13.7 3.4-14.3 3.2"/>
				<path id="&lt;Path&gt;" fill="none" stroke="#ffffff" stroke-miterlimit="10" d="m92.1 105.5c0.1-0.6 1-8.5-5.3-13.9-6.2-5.3-13.7-3.4-14.3-3.2"/>
			</g>
			<path id="&lt;Path&gt;" fill="none" stroke="#ffffff" stroke-miterlimit="10" d="m62.1 5h-13.3l-12.6 12.7v6.1l-10.2 10.2"/>
			<path id="&lt;Path&gt;" fill="none" stroke="#ffffff" stroke-miterlimit="10" d="m58.7 39.2v12.2l-6.1 6.1v11.6l7.2 7.2"/>
			<path id="&lt;Path&gt;" fill="none" stroke="#ffffff" stroke-miterlimit="10" d="m8.3 55.9l-6.9 7v12.8l6 6"/>
			<path id="&lt;Path&gt;" fill="none" stroke="#ffffff" stroke-miterlimit="10" d="m60.7 78v31.5l-13.9 14h-8.7"/>
			<path id="&lt;Path&gt;" fill="none" stroke="#ffffff" stroke-miterlimit="10" d="m14.6 93l10.3 10.2v12.4h16.5l10.1-10.1v-22.2l-17.5-17.5"/>
			<path id="&lt;Path&gt;" fill="none" stroke="#ffffff" stroke-miterlimit="10" d="m42.7 55.1l9.8-9.8v-11.2l8.2-8.2v-10.5h-9l-7.9 7.9v6.3l-10.3 10.3v10.2"/>
			<path id="&lt;Path&gt;" fill="none" stroke="#ffffff" stroke-miterlimit="10" d="m14.6 43h7.4l5.7 5.7v8.8l-9.4 9.4 21.6 21.6v8.2"/>
			<path id="&lt;Path&gt;" fill="#403f4d" stroke="#ffffff" stroke-miterlimit="10" d="m29.1 9.3l-18.4 18.4"/>
			<path id="&lt;Path&gt;" fill="#403f4d" stroke="#ffffff" stroke-miterlimit="10" d="m63.4 7.6c-0.9 1.5-2.8 2-4.3 1.1-1.5-0.9-2-2.9-1.1-4.4 0.9-1.5 2.9-1.9 4.4-1 1.5 0.9 1.9 2.8 1 4.3z"/>
			<path id="&lt;Path&gt;" fill="#403f4d" stroke="#ffffff" stroke-miterlimit="10" d="m28.7 35.7c-0.9 1.5-2.9 1.9-4.4 1-1.5-0.9-1.9-2.8-1-4.3 0.9-1.5 2.8-2 4.3-1.1 1.5 0.9 2 2.9 1.1 4.4z"/>
			<path id="&lt;Path&gt;" fill="#403f4d" stroke="#ffffff" stroke-miterlimit="10" d="m63.4 78.6c-0.9 1.5-2.8 2-4.3 1.1-1.5-0.9-2-2.9-1.1-4.4 0.9-1.4 2.9-1.9 4.4-1 1.5 0.9 1.9 2.8 1 4.3z"/>
			<path id="&lt;Path&gt;" fill="#403f4d" stroke="#ffffff" stroke-miterlimit="10" d="m40.9 125.1c-1 1.5-2.9 2-4.4 1.1-1.5-0.9-2-2.9-1.1-4.4 0.9-1.5 2.9-1.9 4.4-1 1.5 0.9 2 2.8 1.1 4.3z"/>
			<path id="&lt;Path&gt;" fill="#403f4d" stroke="#ffffff" stroke-miterlimit="10" d="m11 57.6c-0.9 1.5-2.8 1.9-4.3 1-1.5-0.9-2-2.8-1.1-4.3 0.9-1.5 2.9-2 4.4-1.1 1.5 0.9 1.9 2.9 1 4.4z"/>
			<path id="&lt;Path&gt;" fill="#403f4d" stroke="#ffffff" stroke-miterlimit="10" d="m17.3 44.6c-0.9 1.5-2.8 2-4.3 1.1-1.5-0.9-2-2.9-1.1-4.4 0.9-1.5 2.9-1.9 4.3-1 1.5 0.9 2 2.8 1.1 4.3z"/>
			<path id="&lt;Path&gt;" fill="#403f4d" stroke="#ffffff" stroke-miterlimit="10" d="m45.1 56.1c-0.9 1.5-2.8 2-4.3 1.1-1.5-0.9-2-2.9-1.1-4.4 0.9-1.5 2.9-1.9 4.4-1 1.4 0.9 1.9 2.8 1 4.3z"/>
			<path id="&lt;Path&gt;" fill="#403f4d" stroke="#ffffff" stroke-miterlimit="10" d="m36.3 67c-0.9 1.5-2.8 1.9-4.3 1-1.5-0.9-2-2.8-1.1-4.3 0.9-1.5 2.9-2 4.4-1.1 1.5 0.9 1.9 2.9 1 4.4z"/>
			<path id="&lt;Path&gt;" fill="#403f4d" stroke="#ffffff" stroke-miterlimit="10" d="m21 68.5c-0.9 1.5-2.8 2-4.3 1.1-1.5-0.9-2-2.9-1.1-4.4 0.9-1.5 2.9-1.9 4.4-1 1.5 0.9 1.9 2.8 1 4.3z"/>
			<path id="&lt;Path&gt;" fill="#403f4d" stroke="#ffffff" stroke-miterlimit="10" d="m42.6 99c-0.9 1.5-2.8 2-4.3 1.1-1.5-0.9-2-2.9-1.1-4.4 0.9-1.5 2.9-1.9 4.4-1 1.5 0.9 1.9 2.8 1 4.3z"/>
			<path id="&lt;Path&gt;" fill="#403f4d" stroke="#ffffff" stroke-miterlimit="10" d="m17.3 94.5c-0.9 1.5-2.8 2-4.3 1.1-1.5-0.9-2-2.9-1.1-4.4 0.9-1.5 2.9-2 4.3-1 1.5 0.9 2 2.8 1.1 4.3z"/>
			<path id="&lt;Path&gt;" fill="#403f4d" stroke="#ffffff" stroke-miterlimit="10" d="m11 83.4c-0.9 1.5-2.8 1.9-4.3 1-1.5-0.9-2-2.8-1.1-4.3 0.9-1.5 2.9-2 4.4-1.1 1.5 0.9 1.9 2.9 1 4.4z"/>
			<path id="&lt;Path&gt;" fill="#403f4d" stroke="#ffffff" stroke-miterlimit="10" d="m31.8 10.9c-0.9 1.5-2.8 2-4.3 1.1-1.5-0.9-2-2.9-1.1-4.4 0.9-1.5 2.9-1.9 4.4-1 1.4 0.9 1.9 2.8 1 4.3z"/>
			<path id="&lt;Path&gt;" fill="#403f4d" stroke="#ffffff" stroke-miterlimit="10" d="m13.4 29.3c-0.9 1.5-2.9 2-4.4 1.1-1.5-0.9-1.9-2.8-1-4.3 0.9-1.5 2.8-2 4.3-1.1 1.5 0.9 2 2.9 1.1 4.3z"/>
		</g>
	</g>
</svg>