<svg version="1.2" xmlns="http://www.w3.org/2000/svg" viewBox="0 0 122 59" width="122" height="59">
	<title>Финансы</title>
	<style>
		.s0 { fill: #00a6b4 } 
		.s1 { fill: #ffffff } 
		.s2 { fill: #403f4d;stroke: #ffffff;stroke-miterlimit:10 } 
		.s3 { fill: none;stroke: #ffffff;stroke-linecap: round;stroke-miterlimit:10 } 
	</style>
	<g id="Финансы">
		<g id="-e-&lt;Group&gt;">
			<g id="&lt;Group&gt;">
				<g id="&lt;Group&gt;">
					<path id="&lt;Path&gt;" class="s0" d="m94 6.9l-16.6 28.9c-2.4 4 0.6 9.1 5.2 9.1h33.3c4.7 0 7.7-5.1 5.3-9.1l-16.6-28.9c-2.4-4.1-8.2-4.1-10.6 0z"/>
					<path id="&lt;Path&gt;" class="s1" d="m99.5 31.8h-0.4c-1.1 0-2-0.8-2-1.9v-17.1c0-1.1 0.9-2 2-2h0.4c1.1 0 2 0.9 2 2v17.1c0 1.1-0.9 1.9-2 1.9z"/>
					<path id="&lt;Path&gt;" class="s1" d="m99.5 34.9h-0.4c-1.1 0-2 0.8-2 1.9v0.5c0 1 0.9 1.9 2 1.9h0.4c1.1 0 2-0.9 2-1.9v-0.5c0-1.1-0.9-1.9-2-1.9z"/>
				</g>
				<g id="&lt;Group&gt;">
					<path id="&lt;Path&gt;" class="s2" d="m38.1 36.9v4.9c0 3.1-7.6 5.6-16.9 5.6-9.3 0-16.8-2.5-16.8-5.6v-4.9c0 3.1 7.5 5.6 16.8 5.6 9.3 0 16.9-2.5 16.9-5.6z"/>
					<path id="&lt;Path&gt;" class="s2" d="m38.1 36.9c0 3.1-7.6 5.6-16.9 5.6-9.3 0-16.8-2.5-16.8-5.6 0-3.1 7.5-5.7 16.8-5.7 9.3 0 16.9 2.6 16.9 5.7z"/>
				</g>
				<g id="&lt;Group&gt;">
					<path id="&lt;Path&gt;" class="s2" d="m41 30.2v4.9c0 3.1-7.5 5.7-16.8 5.7-9.4 0-16.9-2.6-16.9-5.7v-4.9c0 3.1 7.5 5.6 16.9 5.6 9.3 0 16.8-2.5 16.8-5.6z"/>
					<path id="&lt;Path&gt;" class="s2" d="m41 30.2c0 3.1-7.5 5.6-16.8 5.6-9.4 0-16.9-2.5-16.9-5.6 0-3.1 7.5-5.6 16.9-5.6 9.3 0 16.8 2.5 16.8 5.6z"/>
				</g>
				<g id="&lt;Group&gt;">
					<path id="&lt;Path&gt;" class="s2" d="m35.2 22.1v4.9c0 3.2-7.5 5.7-16.8 5.7-9.4 0-16.9-2.5-16.9-5.7v-4.9c0 3.1 7.5 5.6 16.9 5.6 9.3 0 16.8-2.5 16.8-5.6z"/>
					<path id="&lt;Path&gt;" class="s2" d="m35.2 22.1c0 3.1-7.5 5.6-16.8 5.6-9.4 0-16.9-2.5-16.9-5.6 0-3.1 7.5-5.6 16.9-5.6 9.3 0 16.8 2.5 16.8 5.6z"/>
				</g>
				<g id="&lt;Group&gt;">
					<path id="&lt;Path&gt;" class="s2" d="m43.7 16.8v5c0 3.1-7.5 5.6-16.9 5.6-9.3 0-16.8-2.5-16.8-5.6v-5c0 3.1 7.5 5.6 16.8 5.6 9.4 0 16.9-2.5 16.9-5.6z"/>
					<path id="&lt;Path&gt;" class="s2" d="m43.7 16.8c0 3.1-7.5 5.6-16.9 5.6-9.3 0-16.8-2.5-16.8-5.6 0-3.1 7.5-5.6 16.8-5.6 9.4 0 16.9 2.5 16.9 5.6z"/>
				</g>
				<g id="&lt;Group&gt;">
					<path id="&lt;Path&gt;" class="s2" d="m43.7 11.5v5c0 3.1-7.5 5.6-16.9 5.6-9.3 0-16.8-2.5-16.8-5.6v-5c0 3.1 7.5 5.7 16.8 5.7 9.4 0 16.9-2.6 16.9-5.7z"/>
					<path id="&lt;Path&gt;" class="s2" d="m43.7 11.5c0 3.1-7.5 5.7-16.9 5.7-9.3 0-16.8-2.6-16.8-5.7 0-3.1 7.5-5.6 16.8-5.6 9.4 0 16.9 2.5 16.9 5.6z"/>
				</g>
				<g id="&lt;Group&gt;">
					<path id="&lt;Path&gt;" class="s2" d="m43.7 6.6v4.9c0 3.1-7.5 5.7-16.9 5.7-9.3 0-16.8-2.6-16.8-5.7v-4.9c0 3.1 7.5 5.6 16.8 5.6 9.4 0 16.9-2.5 16.9-5.6z"/>
					<path id="&lt;Path&gt;" class="s2" d="m43.7 6.6c0 3.1-7.5 5.6-16.9 5.6-9.3 0-16.8-2.5-16.8-5.6 0-3.1 7.5-5.6 16.8-5.6 9.4 0 16.9 2.5 16.9 5.6z"/>
				</g>
				<g id="&lt;Group&gt;">
					<path id="&lt;Path&gt;" class="s2" d="m59.5 47.4v5c0 3.1-7.5 5.6-16.8 5.6-9.3 0-16.9-2.5-16.9-5.6v-5c0 3.1 7.6 5.7 16.9 5.7 9.3 0 16.8-2.6 16.8-5.7z"/>
					<path id="&lt;Path&gt;" class="s2" d="m59.5 47.4c0 3.1-7.5 5.7-16.8 5.7-9.3 0-16.9-2.6-16.9-5.7 0-3.1 7.6-5.6 16.9-5.6 9.3 0 16.8 2.5 16.8 5.6z"/>
				</g>
				<path id="&lt;Path&gt;" class="s3" d="m48.7 31.6h8.8l8.8-5.2"/>
				<path id="&lt;Path&gt;" class="s2" d="m73.7 22.5c0 2.7-2.2 5-4.9 5-2.8 0-5-2.3-5-5 0-2.7 2.2-5 5-5 2.7 0 4.9 2.3 4.9 5z"/>
			</g>
		</g>
	</g>
</svg>