<svg version="1.2" xmlns="http://www.w3.org/2000/svg" viewBox="0 0 102 83" width="102" height="83">
	<title>Более эффективная реклама</title>
	<style>
		.s0 { fill: none;stroke: #ffffff;stroke-miterlimit:10;stroke-width: 1.1 } 
		.s1 { fill: #c0392b;stroke: #ffffff;stroke-miterlimit:10;stroke-width: 1.1 } 
		.s2 { fill: #403f4d;stroke: #c0392b;stroke-miterlimit:10;stroke-width: 1.1 } 
		.s3 { fill: none;stroke: #ffffff;stroke-linejoin: round;stroke-width: 1.1 } 
	</style>
	<g id="Более эффективная реклама">
		<g id="-e-&lt;Group&gt;">
			<g id="&lt;Group&gt;">
				<path id="&lt;Path&gt;" class="s0" d="m56.1 54.7h29.3l5.7 5.8 3.1 1.2"/>
				<path id="&lt;Path&gt;" class="s0" d="m56.1 48.6h32.2l4.2 4.2"/>
				<path id="&lt;Path&gt;" class="s0" d="m56.1 43.3h35.4"/>
				<path id="&lt;Path&gt;" class="s0" d="m56.1 37.2h31.7"/>
				<path id="&lt;Path&gt;" class="s0" d="m56.4 32.4h32.6l4.9-4.9h3.9"/>
				<path id="&lt;Path&gt;" class="s0" d="m56.4 27h28.9l4-4"/>
				<path id="&lt;Path&gt;" class="s0" d="m94 62.4c0-1.1 0.9-1.9 2-1.9 1 0 1.9 0.8 1.9 1.9 0 1.1-0.9 2-1.9 2-1.1 0-2-0.9-2-2z"/>
				<path id="&lt;Path&gt;" class="s0" d="m91.6 54.1c0-1.1 0.9-1.9 2-1.9 1.1 0 1.9 0.8 1.9 1.9 0 1.1-0.8 2-1.9 2-1.1 0-2-0.9-2-2z"/>
				<path id="&lt;Path&gt;" class="s0" d="m91.6 43.3c0-1 0.9-1.9 2-1.9 1.1 0 1.9 0.9 1.9 1.9 0 1.1-0.8 2-1.9 2-1.1 0-2-0.9-2-2z"/>
				<path id="&lt;Path&gt;" class="s0" d="m87.5 37.2c0-1.1 0.9-2 2-2 1 0 1.9 0.9 1.9 2 0 1-0.9 1.9-1.9 1.9-1.1 0-2-0.9-2-1.9z"/>
				<path id="&lt;Path&gt;" class="s0" d="m97 27.5c0-1.1 0.9-2 1.9-2 1.1 0 2 0.9 2 2 0 1-0.9 1.9-2 1.9-1 0-1.9-0.9-1.9-1.9z"/>
				<path id="&lt;Path&gt;" class="s0" d="m88.6 21.8c0-1.1 0.9-2 2-2 1.1 0 1.9 0.9 1.9 2 0 1.1-0.8 1.9-1.9 1.9-1.1 0-2-0.8-2-1.9z"/>
			</g>
			<path id="&lt;Path&gt;" class="s1" d="m72.3 0.7c-1.7 0-3.3 0.7-4.4 1.8-1.1 1.1-1.8 2.7-1.8 4.4v69c0 3.4-2.8 6.2-6.2 6.2h-52.6c3.4 0 6.2-2.8 6.2-6.2v-69c0-1.7 0.7-3.3 1.8-4.4 1.1-1.1 2.7-1.8 4.4-1.8z"/>
			<path id="&lt;Path&gt;" class="s1" d="m78.5 6.9h-12.4c0-1.7 0.7-3.3 1.8-4.4 1.1-1.1 2.7-1.8 4.4-1.8 1.7 0 3.2 0.7 4.4 1.8 1.1 1.1 1.8 2.7 1.8 4.4z"/>
			<path id="&lt;Path&gt;" class="s1" d="m13.5 75.9c0 3.4-2.8 6.2-6.2 6.2-1.7 0-3.3-0.7-4.4-1.8-1.1-1.1-1.8-2.7-1.8-4.4z"/>
			<path id="&lt;Path&gt;" class="s2" d="m61.2 74.9h-43.8v-66.7h43.8z"/>
			<path id="&lt;Path&gt;" class="s3" d="m22.9 18.1l2.8 4.9 2.8-7.8"/>
			<path id="&lt;Path&gt;" class="s3" d="m22.9 32l2.8 5 2.8-7.9"/>
			<path id="&lt;Path&gt;" class="s3" d="m22.9 46l2.8 4.9 2.8-7.8"/>
			<path id="&lt;Path&gt;" class="s3" d="m31.4 19.1h21.6"/>
			<path id="&lt;Path&gt;" class="s3" d="m31.4 33h21.6"/>
			<path id="&lt;Path&gt;" class="s3" d="m31.4 47h21.6"/>
		</g>
	</g>
</svg>