<svg version="1.2" xmlns="http://www.w3.org/2000/svg" viewBox="0 0 195 135" width="195" height="135">
	<g id="Более эффективная реклама">
		<g id="-e-&lt;Group&gt;">
			<g id="&lt;Group&gt;">
				<path id="&lt;Path&gt;" fill="none" stroke="#ffffff" stroke-miterlimit="10" d="m66.1 115.2h52.1l9.2 9.3 7.8 3.1"/>
				<path id="&lt;Path&gt;" fill="none" stroke="#ffffff" stroke-miterlimit="10" d="m66.1 105.3h56.8l6.8 6.8"/>
				<path id="&lt;Path&gt;" fill="none" stroke="#ffffff" stroke-miterlimit="10" d="m131 96.1h-64.9"/>
				<path id="&lt;Path&gt;" fill="none" stroke="#ffffff" stroke-miterlimit="10" d="m66.1 86.8h55.9"/>
				<path id="&lt;Path&gt;" fill="none" stroke="#ffffff" stroke-miterlimit="10" d="m138.3 70.3h-6.3l-8 8h-57.9"/>
				<path id="&lt;Path&gt;" fill="none" stroke="#ffffff" stroke-miterlimit="10" d="m124.4 63.9l-6.4 6.5h-51.9"/>
				<path id="&lt;Path&gt;" fill="#403f4d" stroke="#ffffff" stroke-miterlimit="10" d="m132.1 127.6c0-1.7 1.4-3.1 3.1-3.1 1.8 0 3.2 1.4 3.2 3.1 0 1.8-1.4 3.2-3.2 3.2-1.7 0-3.1-1.4-3.1-3.2z"/>
				<path id="&lt;Path&gt;" fill="#403f4d" stroke="#ffffff" stroke-miterlimit="10" d="m128.2 114.2c0-1.7 1.5-3.1 3.2-3.1 1.7 0 3.2 1.4 3.2 3.1 0 1.8-1.5 3.2-3.2 3.2-1.7 0-3.2-1.4-3.2-3.2z"/>
				<path id="&lt;Path&gt;" fill="#403f4d" stroke="#ffffff" stroke-miterlimit="10" d="m128.2 96.1c0-1.7 1.5-3.1 3.2-3.1 1.7 0 3.2 1.4 3.2 3.1 0 1.8-1.5 3.2-3.2 3.2-1.7 0-3.2-1.4-3.2-3.2z"/>
				<path id="&lt;Path&gt;" fill="#403f4d" stroke="#ffffff" stroke-miterlimit="10" d="m121.6 86.8c0-1.8 1.4-3.2 3.1-3.2 1.8 0 3.2 1.4 3.2 3.2 0 1.7-1.4 3.1-3.2 3.1-1.7 0-3.1-1.4-3.1-3.1z"/>
				<path id="&lt;Path&gt;" fill="#403f4d" stroke="#ffffff" stroke-miterlimit="10" d="m136.9 70.4c0-1.8 1.4-3.2 3.1-3.2 1.8 0 3.2 1.4 3.2 3.2 0 1.7-1.4 3.1-3.2 3.1-1.7 0-3.1-1.4-3.1-3.1z"/>
				<path id="&lt;Path&gt;" fill="none" stroke="#ffffff" stroke-miterlimit="10" d="m123.4 61.9c0-1.7 1.4-3.1 3.1-3.1 1.8 0 3.2 1.4 3.2 3.1 0 1.8-1.4 3.2-3.2 3.2-1.7 0-3.1-1.4-3.1-3.2z"/>
			</g>
			<g id="&lt;Group&gt;">
				<g id="&lt;Group&gt;">
					<path id="&lt;Path&gt;" fill="#403f4d" stroke="#ffffff" stroke-miterlimit="10" d="m193.2 1h-90.4c-0.5 0-1 0.4-1 1v44.9c0 0.5 0.5 1 1 1h3.6c0.7 0 1.2 0.7 0.9 1.3l-2.3 6c-0.4 0.8 0.6 1.7 1.4 1.2l14.7-8.4q0.2-0.1 0.5-0.1h71.6c0.5 0 1-0.5 1-1v-44.9c0-0.6-0.5-1-1-1z"/>
					<path id="&lt;Path&gt;" fill="none" stroke="#ffffff" stroke-miterlimit="10" d="m155.2 23.2l-13.3-7.7c-0.9-0.5-2.1 0.2-2.1 1.3v15.3c0 1.1 1.2 1.8 2.1 1.2l13.3-7.6c1-0.6 1-2 0-2.5z"/>
					<path id="&lt;Path&gt;" fill="#403f4d" stroke="#ffffff" stroke-miterlimit="10" d="m183.9 47.3l-15.3-8.5 1.7 17.4 4.5-3 3 4.6 4.5-3-2.9-4.6z"/>
				</g>
				<path id="&lt;Path&gt;" fill="#403f4d" stroke="#ffffff" stroke-miterlimit="10" d="m61.8 60.5l-36.4 24c-0.6 0.3-1.2 0.5-1.8 0.5h-18.7c-2 0-3.6 1.6-3.6 3.6v11.1c0 2 1.6 3.6 3.6 3.6h5.6v26.4c0 2.1 1.7 3.8 3.7 3.8h1.8c2 0 3.7-1.7 3.7-3.8v-26.4h3.9c0.6 0 1.2 0.2 1.8 0.5l36.4 23.9c2.4 1.4 5.5-0.3 5.5-3.1v-60.9c0-2.8-3.1-4.6-5.5-3.2z"/>
			</g>
		</g>
	</g>
</svg>