<svg version="1.2" xmlns="http://www.w3.org/2000/svg" viewBox="0 0 192 96" width="192" height="96">
	<g id="Транспорт,">
		<g id="-e-&lt;Group&gt;">
			<g id="&lt;Group&gt;">
				<path id="&lt;Path&gt;" fill="#403f4d" stroke="#ffffff" stroke-miterlimit="10" d="m103.4 28.6h17.4l6.1-6.1h11"/>
				<path id="&lt;Path&gt;" fill="#403f4d" stroke="#ffffff" stroke-miterlimit="10" d="m137.9 22.3c0-2 1.7-3.7 3.7-3.7 2 0.1 3.7 1.7 3.7 3.8 0 2-1.7 3.6-3.7 3.6-2.1 0-3.7-1.6-3.7-3.7z"/>
			</g>
			<g id="&lt;Group&gt;">
				<path id="&lt;Path&gt;" fill="#403f4d" stroke="#ffffff" stroke-miterlimit="10" d="m102.6 78.5h26.8l7.8 7.9 7.3 3.3"/>
				<path id="&lt;Path&gt;" fill="#403f4d" stroke="#ffffff" stroke-miterlimit="10" d="m147.2 95.4c-2.1 0-3.7-1.7-3.7-3.7 0-2.1 1.7-3.7 3.7-3.7 2 0 3.7 1.7 3.7 3.7 0 2.1-1.7 3.7-3.7 3.7z"/>
				<g id="&lt;Group&gt;">
					<path id="&lt;Path&gt;" fill="#403f4d" stroke="#ffffff" stroke-miterlimit="10" d="m128 78.5h33.3l7.8 7.9h14.5"/>
					<path id="&lt;Path&gt;" fill="#403f4d" stroke="#ffffff" stroke-miterlimit="10" d="m187.3 90.1c-2 0-3.7-1.7-3.7-3.8 0-2 1.7-3.6 3.7-3.6 2.1 0 3.7 1.7 3.7 3.7 0 2-1.7 3.7-3.7 3.7z"/>
				</g>
			</g>
			<g id="&lt;Group&gt;">
				<path id="&lt;Path&gt;" fill="#403f4d" stroke="#ffffff" stroke-miterlimit="10" d="m91.6 54.3h26.8l7.8 4.2 17.3-0.4"/>
				<path id="&lt;Path&gt;" fill="#403f4d" stroke="#ffffff" stroke-miterlimit="10" d="m147.2 62.2c-2.1-0.1-3.7-1.7-3.7-3.8 0-2 1.7-3.7 3.7-3.6 2 0 3.7 1.6 3.7 3.7 0 2-1.7 3.7-3.7 3.7z"/>
				<g id="&lt;Group&gt;">
					<path id="&lt;Path&gt;" fill="#403f4d" stroke="#ffffff" stroke-miterlimit="10" d="m71.4 30.2h33.3l7.8 7.8h14.5"/>
					<path id="&lt;Path&gt;" fill="#403f4d" stroke="#ffffff" stroke-miterlimit="10" d="m130.4 41.7c-2 0-3.7-1.7-3.7-3.7 0-2.1 1.7-3.7 3.7-3.7 2.1 0 3.7 1.7 3.7 3.7 0 2.1-1.7 3.7-3.7 3.7z"/>
				</g>
			</g>
			<g id="&lt;Group&gt;">
				<path id="&lt;Path&gt;" fill="#403f4d" stroke="#ffffff" stroke-miterlimit="10" d="m53.9 68.2h33.5c0-7.7 6.2-13.9 13.8-13.9h17.2v-43.7h-64.5z"/>
				<path id="&lt;Path&gt;" fill="#403f4d" stroke="#ffffff" stroke-miterlimit="10" d="m46 31.8v34.8h-44.6l-0.1-3.7c-0.3-6.6 5-12 11.5-12h8.6v-11.9c0-5.7 4.6-10.4 10.4-10.4h10.9c1.8 0 3.3 1.4 3.3 3.2z"/>
				<path id="&lt;Path&gt;" fill="#403f4d" stroke="#ffffff" stroke-miterlimit="10" d="m111.6 69.5c0 5-4 9-9 9-5 0-9-4-9-9 0-4.9 4-9 9-9 5 0 9 4.1 9 9z"/>
				<path id="&lt;Path&gt;" fill="#403f4d" stroke="#ffffff" stroke-miterlimit="10" d="m37 69.5c0 5-4.1 9-9 9-5 0-9-4-9-9 0-4.9 4-9 9-9 4.9 0 9 4.1 9 9z"/>
				<path id="&lt;Path&gt;" fill="#403f4d" stroke="#ffffff" stroke-miterlimit="10" d="m33.1 50.9h-11.7v-11.7h9.2c1.4 0 2.5 1.1 2.5 2.5z"/>
			</g>
			<g id="&lt;Group&gt;">
				<path id="&lt;Path&gt;" fill="#403f4d" stroke="#ffffff" stroke-miterlimit="10" d="m116.4 10.6h17.4l6.1-6.1h11"/>
				<path id="&lt;Path&gt;" fill="#403f4d" stroke="#ffffff" stroke-miterlimit="10" d="m150.9 4.3c0-2 1.6-3.7 3.7-3.7 2 0 3.7 1.7 3.7 3.7-0.1 2.1-1.7 3.7-3.8 3.7-2 0-3.6-1.7-3.6-3.7z"/>
			</g>
		</g>
	</g>
</svg>