<svg version="1.2" xmlns="http://www.w3.org/2000/svg" viewBox="0 0 59 72" width="59" height="72">
	<g id="Финансы">
		<g id="-e-&lt;Group&gt;">
			<g id="&lt;Group&gt;">
				<g id="&lt;Group&gt;">
					<path id="&lt;Path&gt;" fill="#ffffff" d="m29.8 69.8c-2.1 0-4.1-0.6-6-1.6-5.3-3-9.9-7.3-13.2-12.5l-4.9-7.8q-0.2-0.2-0.3-0.5c-2.9-7.6-2.9-10.3-2.7-16.2 0-1.3 0-2.7 0-4.4l-0.1-11c0.1-9.5 13.5-13.7 26.9-13.7 8.4 0 19.1 1.9 24.3 7 2 2.1 3 4.4 3 6.9v11.1c0 1.8 0 3.4 0.1 4.7 0.1 5.6 0.1 8.2-2.6 15.5q-0.1 0.3-0.3 0.6l-5.3 8.2c-3.2 4.9-7.6 9.1-12.7 12l-0.1 0.1c-1.9 1-4 1.6-6.1 1.6q0 0 0 0z"/>
					<g id="&lt;Group&gt;">
						<path id="&lt;Compound Path&gt;" fill-rule="evenodd" fill="#00a6b4" d="m55.2 7.7c2.4 2.4 3.6 5.3 3.6 8.3v11.1c0 1.8 0 3.3 0.1 4.7 0.1 5.7 0.2 8.5-2.7 16.2q-0.2 0.5-0.5 1l-5.3 8.2c-3.4 5.2-8 9.5-13.4 12.6l-0.1 0.1c-2.2 1.2-4.6 1.9-7.1 1.9-2.4 0-4.8-0.6-6.9-1.8-5.7-3.2-10.5-7.8-14-13.2l-4.9-7.8q-0.3-0.4-0.4-0.9c-3.1-8-3.1-11-2.9-16.9q0-1.9 0-4.4l-0.1-11c0.1-10.8 14.6-15.7 28.9-15.7 11.4 0 21 2.9 25.7 7.6zm-50.6 8.1l0.1 11c0 9.5-0.8 11 2.6 19.9q0 0.1 0.1 0.1l4.9 7.8c3.1 5 7.4 9 12.5 11.9 1.6 0.8 3.3 1.3 5 1.3 1.8 0 3.5-0.5 5.1-1.4h0.1c4.9-2.8 9-6.7 12-11.4l5.3-8.2q0.1-0.1 0.1-0.2c3.3-8.7 2.4-10.2 2.4-19.5v-11.1c0-7.9-12.7-11.9-25.3-11.9-12.5 0-24.9 3.9-24.9 11.7z"/>
					</g>
				</g>
				<g id="&lt;Group&gt;">
					<path id="&lt;Path&gt;" fill="#403f4d" stroke="#403f4d" stroke-miterlimit="10" d="m25.6 26.4c0 0-2.4-3.4-6.3-3.4-3.5 0-4.7 2.8-4.7 2.8 0 0 0.8 2.2 4.3 2.6 3.5 0.4 6.7-2 6.7-2z"/>
					<path id="&lt;Path&gt;" fill="#403f4d" stroke="#403f4d" stroke-miterlimit="10" d="m35.4 26.4c0 0 2.3-3.4 6.2-3.4 3.5 0 4.7 2.8 4.7 2.8 0 0-0.8 2.2-4.3 2.6-3.5 0.4-6.6-2-6.6-2z"/>
					<path id="&lt;Path&gt;" fill="none" stroke="#403f4d" stroke-miterlimit="10" d="m10.7 19.4c0 0 0.9-3.5 4.4-3.4 3.5 0.2 9.6 3.9 10.6 4.8"/>
					<path id="&lt;Path&gt;" fill="none" stroke="#403f4d" stroke-miterlimit="10" d="m48.8 19.4c0 0-0.9-3.5-4.4-3.4-3.4 0.2-9.5 3.9-10.5 4.8"/>
					<path id="&lt;Path&gt;" fill="#403f4d" d="m29.8 41.9c-1.4 0-2.6 0.5-3.6 1.5l-0.8 0.8q-0.2 0.2-0.5 0.2h-5.4q-0.1 0-0.3-0.1l-2.9-1.7c-0.7-0.3-1.4 0.4-1 1l2.7 4.4c0.1 0.2 0.3 0.3 0.6 0.3h8q0.3 0 0.5-0.2l2.2-2.1c0.2-0.3 0.7-0.3 1 0l2.1 2.1q0.2 0.2 0.5 0.2h8c0.3 0 0.5-0.1 0.6-0.3l2.7-4.4c0.4-0.6-0.3-1.3-0.9-1l-3 1.7q-0.1 0.1-0.3 0.1h-5.4q-0.2 0-0.5-0.2l-0.8-0.8c-1-1-2.2-1.5-3.5-1.5z"/>
					<path id="&lt;Path&gt;" fill="none" stroke="#403f4d" stroke-linecap="round" stroke-linejoin="round" d="m20.4 55.4c-1.5-1.5-8.9-7.7-11.3-17.4 3.6 1.7 8.9 1.3 13.3-2"/>
					<path id="&lt;Path&gt;" fill="none" stroke="#403f4d" stroke-linecap="round" stroke-linejoin="round" d="m39.1 55.4c1.5-1.5 8.9-7.7 11.3-17.4-3.6 1.7-8.9 1.3-13.3-2"/>
					<path id="&lt;Path&gt;" fill="#403f4d" stroke="#403f4d" stroke-miterlimit="10" d="m31.1 66.8v-7.2l1-2.3-0.5-0.8h-2.1-2.1l-0.5 0.8 1 2.3v7.1c1.3 0.3 3.2 0.1 3.2 0.1z"/>
				</g>
				<path id="&lt;Path&gt;" fill="none" stroke="#403f4d" stroke-miterlimit="10" d="m25.6 39.6l1.9 1"/>
				<path id="&lt;Path&gt;" fill="none" stroke="#403f4d" stroke-miterlimit="10" d="m33.9 39.6l-1.9 1"/>
			</g>
		</g>
	</g>
</svg>