<svg version="1.2" xmlns="http://www.w3.org/2000/svg" viewBox="0 0 145 83" width="145" height="83">
	<g id="Транспорт,">
		<g id="-e-&lt;Group&gt;">
			<path id="&lt;Path&gt;" fill="#403f4d" stroke="#f8104b" stroke-miterlimit="10" stroke-width="1.2" d="m73.5 5.9c18 0 32.7 14.7 32.7 32.8 0 18.1-14.7 32.7-32.7 32.7-18.1 0-32.8-14.6-32.8-32.7 0-18.1 14.7-32.8 32.8-32.8z"/>
			<path id="&lt;Path&gt;" fill="none" stroke="#29b579" stroke-miterlimit="10" stroke-width="1.2" d="m82.6 78.9l-7.5-7.5v-9.5l-14-13.9v-34.7l-9.8-9.9h-7.6"/>
			<path id="&lt;Path&gt;" fill="#403f4d" stroke="#ffffff" stroke-miterlimit="10" stroke-width="1.2" d="m70.5 55c0 1.1-1 2.1-2.1 2.1-1.2 0-2.2-1-2.2-2.1 0-1.2 1-2.2 2.2-2.2 1.1 0 2.1 1 2.1 2.2z"/>
			<path id="&lt;Path&gt;" fill="#403f4d" stroke="#ffffff" stroke-miterlimit="10" stroke-width="1.2" d="m45.8 3.4c0 1.2-0.9 2.1-2.1 2.1-1.2 0-2.1-0.9-2.1-2.1 0-1.1 0.9-2.1 2.1-2.1 1.2 0 2.1 1 2.1 2.1z"/>
			<path id="&lt;Path&gt;" fill="#403f4d" stroke="#ffffff" stroke-miterlimit="10" stroke-width="1.2" d="m85.3 79.4c0 1.2-0.9 2.1-2.1 2.1-1.2 0-2.1-0.9-2.1-2.1 0-1.1 0.9-2.1 2.1-2.1 1.2 0 2.1 1 2.1 2.1z"/>
			<g id="&lt;Group&gt;">
				<path id="&lt;Path&gt;" fill="none" stroke="#29b579" stroke-miterlimit="10" stroke-width="1.2" d="m18.3 44h29.7l6.6-6.6"/>
				<path id="&lt;Path&gt;" fill="none" stroke="#29b579" stroke-miterlimit="10" stroke-width="1.2" d="m61.1 25.1h-24.1l-6.2-6.2h-25.3"/>
				<path id="&lt;Path&gt;" fill="none" stroke="#29b579" stroke-miterlimit="10" stroke-width="1.2" d="m61.1 37.3h-57.4"/>
				<path id="&lt;Path&gt;" fill="none" stroke="#ffffff" stroke-miterlimit="10" stroke-width="1.2" d="m66.2 55h-28.2l-4.3 4.2"/>
				<path id="&lt;Path&gt;" fill="#403f4d" stroke="#ffffff" stroke-miterlimit="10" stroke-width="1.2" d="m7.6 18.9c0 1.1-0.9 2.1-2.1 2.1-1.1 0-2.1-1-2.1-2.1 0-1.2 1-2.1 2.1-2.1 1.2 0 2.1 0.9 2.1 2.1z"/>
				<path id="&lt;Path&gt;" fill="#403f4d" stroke="#ffffff" stroke-miterlimit="10" stroke-width="1.2" d="m5.5 37.3c0 1.2-0.9 2.1-2.1 2.1-1.1 0-2.1-0.9-2.1-2.1 0-1.1 1-2.1 2.1-2.1 1.2 0 2.1 1 2.1 2.1z"/>
				<path id="&lt;Path&gt;" fill="#403f4d" stroke="#ffffff" stroke-miterlimit="10" stroke-width="1.2" d="m18.6 44c0 1.2-1 2.1-2.1 2.1-1.2 0-2.1-0.9-2.1-2.1 0-1.2 0.9-2.1 2.1-2.1 1.1 0 2.1 0.9 2.1 2.1z"/>
				<path id="&lt;Path&gt;" fill="#403f4d" stroke="#ffffff" stroke-miterlimit="10" stroke-width="1.2" d="m34.4 60.6c0 1.1-1 2.1-2.1 2.1-1.2 0-2.1-1-2.1-2.1 0-1.2 0.9-2.1 2.1-2.1 1.1 0 2.1 0.9 2.1 2.1z"/>
			</g>
			<path id="&lt;Path&gt;" fill="none" stroke="#ffffff" stroke-miterlimit="10" stroke-width="1.2" d="m70.6 55.4h31.7l14.4 8.3h24.5"/>
			<path id="&lt;Path&gt;" fill="none" stroke="#ffffff" stroke-miterlimit="10" stroke-width="1.2" d="m61.1 13.3h31.1l4.3-4.3"/>
			<path id="&lt;Path&gt;" fill="#403f4d" stroke="#ffffff" stroke-miterlimit="10" stroke-width="1.2" d="m139.1 63.7c0-1.2 0.9-2.1 2.1-2.1 1.1 0 2.1 0.9 2.1 2.1 0 1.1-1 2.1-2.1 2.1-1.2 0-2.1-1-2.1-2.1z"/>
			<g id="&lt;Group&gt;">
				<path id="&lt;Path&gt;" fill="none" stroke="#ffffff" stroke-miterlimit="10" stroke-width="1.2" d="m75.2 71.1h19.4l4.5 4.5"/>
				<path id="&lt;Path&gt;" fill="#403f4d" stroke="#ffffff" stroke-miterlimit="10" stroke-width="1.2" d="m98.2 77.1c0-1.2 0.9-2.2 2.1-2.2 1.1 0 2.1 1 2.1 2.2 0 1.1-1 2.1-2.1 2.1-1.2 0-2.1-1-2.1-2.1z"/>
			</g>
			<g id="&lt;Group&gt;">
				<path id="&lt;Path&gt;" fill="none" stroke="#ffffff" stroke-miterlimit="10" stroke-width="1.2" d="m80.7 44h40.2"/>
				<path id="&lt;Path&gt;" fill="#403f4d" stroke="#ffffff" stroke-miterlimit="10" stroke-width="1.2" d="m119.1 44c0-1.2 0.9-2.1 2.1-2.1 1.2 0 2.1 0.9 2.1 2.1 0 1.2-0.9 2.1-2.1 2.1-1.2 0-2.1-0.9-2.1-2.1z"/>
			</g>
			<g id="&lt;Group&gt;">
				<path id="&lt;Path&gt;" fill="none" stroke="#29b579" stroke-miterlimit="10" stroke-width="1.2" d="m141.2 29.5h-48.8l-8 8"/>
				<path id="&lt;Path&gt;" fill="#403f4d" stroke="#ffffff" stroke-miterlimit="10" stroke-width="1.2" d="m139.3 29.5c0-1.1 1-2.1 2.1-2.1 1.2 0 2.1 1 2.1 2.1 0 1.2-0.9 2.2-2.1 2.2-1.1 0-2.1-1-2.1-2.2z"/>
			</g>
			<g id="&lt;Group&gt;">
				<path id="&lt;Path&gt;" fill="none" stroke="#29b579" stroke-miterlimit="10" stroke-width="1.2" d="m63.2 37.4h34.1"/>
				<path id="&lt;Path&gt;" fill="#403f4d" stroke="#ffffff" stroke-miterlimit="10" stroke-width="1.2" d="m97.1 37.4c0-1.1 0.9-2.1 2.1-2.1 1.2 0 2.1 1 2.1 2.1 0 1.2-0.9 2.1-2.1 2.1-1.2 0-2.1-0.9-2.1-2.1z"/>
			</g>
			<g id="&lt;Group&gt;">
				<path id="&lt;Path&gt;" fill="none" stroke="#ffffff" stroke-miterlimit="10" stroke-width="1.2" d="m81.1 19.1h27l5.4-5.4h4.2"/>
				<path id="&lt;Path&gt;" fill="#403f4d" stroke="#ffffff" stroke-miterlimit="10" stroke-width="1.2" d="m116.7 13.7c0-1.1 1-2.1 2.1-2.1 1.2 0 2.1 1 2.1 2.1 0 1.2-0.9 2.2-2.1 2.2-1.1 0-2.1-1-2.1-2.2z"/>
			</g>
			<path id="&lt;Path&gt;" fill="#403f4d" stroke="#ffffff" stroke-miterlimit="10" stroke-width="1.2" d="m95.8 7.6c0-1.1 1-2.1 2.1-2.1 1.2 0 2.1 1 2.1 2.1 0 1.2-0.9 2.1-2.1 2.1-1.1 0-2.1-0.9-2.1-2.1z"/>
			<path id="&lt;Path&gt;" fill="#403f4d" stroke="#ffffff" stroke-miterlimit="10" stroke-width="1.2" d="m63.2 13.3c0 1.1-0.9 2.1-2.1 2.1-1.1 0-2.1-1-2.1-2.1 0-1.2 1-2.1 2.1-2.1 1.2 0 2.1 0.9 2.1 2.1z"/>
			<path id="&lt;Path&gt;" fill="#403f4d" stroke="#ffffff" stroke-miterlimit="10" stroke-width="1.2" d="m63.2 37.3c0 1.2-0.9 2.1-2.1 2.1-1.1 0-2.1-0.9-2.1-2.1 0-1.1 1-2.1 2.1-2.1 1.2 0 2.1 1 2.1 2.1z"/>
			<path id="&lt;Path&gt;" fill="#403f4d" stroke="#ffffff" stroke-miterlimit="10" stroke-width="1.2" d="m82.8 19.1c0 1.1-0.9 2.1-2.1 2.1-1.1 0-2.1-1-2.1-2.1 0-1.2 1-2.1 2.1-2.1 1.2 0 2.1 0.9 2.1 2.1z"/>
			<path id="&lt;Path&gt;" fill="#403f4d" stroke="#ffffff" stroke-miterlimit="10" stroke-width="1.2" d="m47.4 55c0 1.1-1 2.1-2.1 2.1-1.2 0-2.1-1-2.1-2.1 0-1.2 0.9-2.2 2.1-2.2 1.1 0 2.1 1 2.1 2.2z"/>
			<path id="&lt;Path&gt;" fill="#403f4d" stroke="#ffffff" stroke-miterlimit="10" stroke-width="1.2" d="m43.5 31.7c0 1.1-0.9 2.1-2.1 2.1-1.1 0-2.1-1-2.1-2.1 0-1.2 1-2.2 2.1-2.2 1.2 0 2.1 1 2.1 2.2z"/>
		</g>
	</g>
</svg>