<svg version="1.2" xmlns="http://www.w3.org/2000/svg" viewBox="0 0 94 84" width="94" height="84">
	<g id="Финансы">
		<g id="-e-&lt;Group&gt;">
			<g id="&lt;Group&gt;">
				<path id="&lt;Path&gt;" fill="#1d7372" d="m12.5 11.9c-2.4 0-4.5 0.6-6.4 1.7l6.4 10.7z"/>
				<path id="&lt;Path&gt;" fill="#00a6b4" d="m12.5 24.3l-6.4-10.7c-3.6 2.2-6 6.2-6 10.7 0 6.9 5.5 12.4 12.4 12.4 6.8 0 12.4-5.5 12.4-12.4z"/>
				<path id="&lt;Path&gt;" fill="#64b8dc" d="m12.5 11.9v12.4h12.4c0-6.9-5.6-12.4-12.4-12.4z"/>
			</g>
			<g id="&lt;Group&gt;">
				<g id="&lt;Group&gt;">
					<path id="&lt;Path&gt;" fill="none" stroke="#ffffff" stroke-linejoin="round" d="m87.1 17.8l3.1-3.7v54.2h-77.7"/>
					<path id="&lt;Path&gt;" fill="none" stroke="#ffffff" stroke-linejoin="round" d="m93.2 17.8l-3-3.7"/>
					<g id="&lt;Group&gt;">
						<path id="&lt;Path&gt;" fill="none" stroke="#ffffff" stroke-linejoin="round" d="m16.2 65.3l-3.7 3 3.7 3.1"/>
					</g>
				</g>
				<g id="&lt;Group&gt;">
					<path id="&lt;Path&gt;" fill="none" stroke="#ffffff" stroke-linejoin="round" d="m91.7 0.2l-4.5 5.8-6.1 0.7-6.5 6-2.9 10.5-6.1 19.6-6.8 0.5-8.9-24.5-9.6 12.3 1.2 10.3-4.1 5.2-7-5.4-4.5 12.8-6.1 0.7-5.5 7"/>
					<path id="&lt;Path&gt;" fill="#403f4d" stroke="#ffffff" stroke-miterlimit="10" d="m83 7.7c-0.5 1-1.7 1.5-2.7 1-1-0.4-1.5-1.7-1-2.7 0.4-1 1.6-1.5 2.7-1 1 0.5 1.4 1.7 1 2.7z"/>
					<path id="&lt;Path&gt;" fill="#403f4d" stroke="#ffffff" stroke-miterlimit="10" d="m76.5 13.5c-0.5 1.1-1.7 1.5-2.7 1-1-0.4-1.5-1.6-1-2.7 0.4-1 1.6-1.4 2.7-1 1 0.5 1.5 1.7 1 2.7z"/>
					<path id="&lt;Path&gt;" fill="#403f4d" stroke="#ffffff" stroke-miterlimit="10" d="m73.8 23.7c-0.5 1-1.7 1.5-2.7 1-1.1-0.4-1.5-1.7-1.1-2.7 0.5-1 1.7-1.5 2.7-1 1.1 0.5 1.5 1.7 1.1 2.7z"/>
					<path id="&lt;Path&gt;" fill="#403f4d" stroke="#ffffff" stroke-miterlimit="10" d="m67.2 43.3c-0.5 1.1-1.7 1.5-2.7 1.1-1-0.5-1.5-1.7-1-2.8 0.4-1 1.7-1.4 2.7-1 1 0.5 1.5 1.7 1 2.7z"/>
					<path id="&lt;Path&gt;" fill="#403f4d" stroke="#ffffff" stroke-miterlimit="10" d="m51.9 19.7c-0.5 1-1.7 1.4-2.7 1-1-0.5-1.5-1.7-1-2.7 0.4-1 1.6-1.5 2.7-1 1 0.4 1.4 1.6 1 2.7z"/>
					<path id="&lt;Path&gt;" fill="#403f4d" stroke="#ffffff" stroke-miterlimit="10" d="m42.2 32.3c-0.5 1-1.7 1.5-2.7 1-1.1-0.4-1.5-1.7-1-2.7 0.4-1 1.6-1.5 2.7-1 1 0.5 1.4 1.7 1 2.7z"/>
					<path id="&lt;Path&gt;" fill="#403f4d" stroke="#ffffff" stroke-miterlimit="10" d="m39.4 47.7c-0.4 1.1-1.6 1.5-2.7 1.1-1-0.5-1.4-1.7-1-2.7 0.5-1.1 1.7-1.5 2.7-1.1 1.1 0.5 1.5 1.7 1 2.7z"/>
					<path id="&lt;Path&gt;" fill="#403f4d" stroke="#ffffff" stroke-miterlimit="10" d="m32.2 42.4c-0.5 1-1.7 1.4-2.7 1-1.1-0.5-1.5-1.7-1.1-2.7 0.5-1 1.7-1.5 2.7-1 1.1 0.4 1.5 1.6 1.1 2.7z"/>
					<path id="&lt;Path&gt;" fill="#403f4d" stroke="#ffffff" stroke-miterlimit="10" d="m27.3 54.3c-0.5 1.1-1.7 1.5-2.7 1.1-1.1-0.5-1.5-1.7-1.1-2.7 0.5-1.1 1.7-1.5 2.8-1.1 1 0.5 1.4 1.7 1 2.7z"/>
				</g>
				<g id="&lt;Group&gt;">
					<path id="&lt;Path&gt;" fill="#1d7372" d="m76.7 63.5v20.1l-16.9-8.3v-20.1z"/>
					<path id="&lt;Path&gt;" fill="#00a6b4" d="m93.6 55.2v20.1l-16.9 8.3v-20.1z"/>
					<path id="&lt;Path&gt;" fill="#64b8dc" d="m93.6 55.2l-16.9 8.3-16.9-8.3 16.9-8.2z"/>
				</g>
			</g>
		</g>
	</g>
</svg>