<svg version="1.2" xmlns="http://www.w3.org/2000/svg" viewBox="0 0 142 62" width="142" height="62">
	<title>моделирование</title>
	<style>
		.s0 { fill: #ffffff } 
		.s1 { fill: #a6dae8 } 
		.s2 { fill: none;stroke: #ffffff;stroke-miterlimit:10;stroke-width: 2 } 
		.s3 { fill: #1d7372 } 
		.s4 { fill: #403f4d } 
	</style>
	<g id="моделирование">
		<g id="-e-&lt;Group&gt;">
			<g id="&lt;Group&gt;">
				<g id="&lt;Group&gt;">
					<path id="&lt;Compound Path&gt;" class="s0" d="m39.4 30.4q0-0.1 0-0.2c-0.1-0.1 0-0.2 0.1-0.2h0.7c0.1 0 0.2 0.1 0.2 0.2 0 0.1-0.1 0.2-0.2 0.2h-0.7q0 0-0.1 0zm1.5 0q-0.1-0.1-0.1-0.2c0-0.1 0-0.2 0.1-0.2h0.8c0.1 0 0.2 0.1 0.2 0.2 0 0.1-0.1 0.2-0.2 0.2h-0.8q0 0 0 0zm1.4 0q0-0.1 0-0.2c0-0.1 0-0.2 0.1-0.2h0.8c0.1 0 0.2 0.1 0.2 0.2 0 0.1-0.1 0.2-0.2 0.2h-0.8q0 0-0.1 0zm1.5 0q0-0.1-0.1-0.2c0-0.1 0.1-0.2 0.2-0.2h0.8c0.1 0 0.2 0.1 0.2 0.2 0 0.1-0.1 0.2-0.2 0.2h-0.8q0 0-0.1 0zm1.5 0q-0.1-0.1-0.1-0.2c0-0.1 0.1-0.2 0.2-0.2h0.8c0.1 0 0.2 0.1 0.2 0.2 0 0.1-0.1 0.2-0.2 0.2h-0.8q0 0-0.1 0zm1.5 0q-0.1-0.1-0.1-0.2c0-0.1 0.1-0.2 0.2-0.2h0.8c0.1 0 0.2 0.1 0.2 0.2 0 0.1-0.1 0.2-0.2 0.2h-0.8q0 0-0.1 0zm1.5 0q-0.1-0.1-0.1-0.2c0-0.1 0.1-0.2 0.2-0.2h0.8c0.1 0 0.1 0.1 0.1 0.2 0 0.1 0 0.2-0.1 0.2h-0.8q0 0-0.1 0zm1.5 0q-0.1-0.1-0.1-0.2c0-0.1 0.1-0.2 0.2-0.2h0.8c0.1 0 0.1 0.1 0.1 0.2 0 0.1 0 0.2-0.1 0.2h-0.8q0 0-0.1 0zm1.5 0q-0.1-0.1-0.1-0.2c0-0.1 0.1-0.2 0.2-0.2h0.7c0.2 0 0.2 0.1 0.2 0.2 0 0.1 0 0.2-0.2 0.2h-0.7q0 0-0.1 0zm1.5 0q-0.1-0.1-0.1-0.2c0-0.1 0.1-0.2 0.2-0.2h0.7c0.1 0 0.2 0.1 0.2 0.2 0 0.1-0.1 0.2-0.2 0.2h-0.7q-0.1 0-0.1 0zm1.5 0q-0.1-0.1-0.1-0.2c0-0.1 0.1-0.2 0.2-0.2h0.7c0.1 0 0.2 0.1 0.2 0.2 0 0.1-0.1 0.2-0.2 0.2h-0.7q-0.1 0-0.1 0zm1.5 0q-0.1-0.1-0.1-0.2c0-0.1 0.1-0.2 0.2-0.2h0.7c0.1 0 0.2 0.1 0.2 0.2 0 0.1-0.1 0.2-0.2 0.2h-0.7q-0.1 0-0.1 0zm1.5 0q-0.1-0.1-0.1-0.2c0-0.1 0.1-0.2 0.2-0.2h0.7c0.1 0 0.2 0.1 0.2 0.2 0 0.1-0.1 0.2-0.2 0.2h-0.7q-0.1 0-0.1 0zm1.5 0q-0.1-0.1-0.1-0.2c0-0.1 0.1-0.2 0.2-0.2h0.7c0.1 0 0.2 0.1 0.2 0.2 0 0.1-0.1 0.2-0.2 0.2h-0.7q-0.1 0-0.1 0zm1.5 0q-0.1-0.1-0.1-0.2c0-0.1 0.1-0.2 0.2-0.2h0.7c0.1 0 0.2 0.1 0.2 0.2 0 0.1-0.1 0.2-0.2 0.2h-0.7q-0.1 0-0.1 0zm1.5 0q-0.1-0.1-0.1-0.2c0-0.1 0.1-0.2 0.2-0.2h0.7c0.1 0 0.2 0.1 0.2 0.2 0 0.1-0.1 0.2-0.2 0.2h-0.7q-0.1 0-0.1 0zm1.5 0q-0.1-0.1-0.1-0.2c0-0.1 0-0.2 0.1-0.2h0.8c0.1 0 0.2 0.1 0.2 0.2 0 0.1-0.1 0.2-0.2 0.2h-0.8q0 0 0 0zm1.4 0q0-0.1 0-0.2c0-0.1 0-0.2 0.1-0.2h0.8c0.1 0 0.2 0.1 0.2 0.2 0 0.1-0.1 0.2-0.2 0.2h-0.8q0 0-0.1 0zm1.5 0q0-0.1-0.1-0.2c0-0.1 0.1-0.2 0.2-0.2h0.8c0.1 0 0.2 0.1 0.2 0.2 0 0.1-0.1 0.2-0.2 0.2h-0.8q0 0-0.1 0zm1.5 0q-0.1-0.1-0.1-0.2c0-0.1 0.1-0.2 0.2-0.2h0.8c0.1 0 0.2 0.1 0.2 0.2 0 0.1-0.1 0.2-0.2 0.2h-0.8q0 0-0.1 0zm1.5 0q-0.1-0.1-0.1-0.2c0-0.1 0.1-0.2 0.2-0.2h0.8c0.1 0 0.2 0.1 0.2 0.2 0 0.1-0.1 0.2-0.2 0.2h-0.8q0 0-0.1 0zm1.5 0q0 0-0.1-0.1c0-0.1 0.1-0.2 0.2-0.2h0.8c0.1 0 0.2 0.1 0.2 0.2 0 0.1-0.1 0.1-0.2 0.1h-0.8q0 0-0.1 0zm1.5 0q-0.1 0-0.1-0.1c0-0.1 0.1-0.2 0.2-0.2h0.8c0.1 0 0.2 0.1 0.2 0.2 0 0.1-0.1 0.1-0.2 0.1h-0.8q0 0-0.1 0zm1.5 0q-0.1 0-0.1-0.1c0-0.1 0.1-0.2 0.2-0.2h0.8c0.1 0 0.2 0.1 0.2 0.2 0 0.1-0.1 0.1-0.2 0.1h-0.8q0 0-0.1 0z"/>
					<path id="&lt;Compound Path&gt;" class="s0" d="m57.5 36.8q-0.2-0.2-0.4-0.3c-0.1-0.1-0.1-0.2-0.1-0.3 0.1-0.1 0.2-0.1 0.3 0q0.3 0.2 0.6 0.4c0.1 0 0.1 0.1 0.1 0.2-0.1 0.1-0.2 0.1-0.3 0.1q-0.1-0.1-0.2-0.1zm0.9 0.3q-0.1-0.1 0-0.2c0-0.1 0.1-0.2 0.2-0.2q0.3 0.1 0.6 0c0.1 0 0.2 0.1 0.3 0.2 0 0.1-0.1 0.2-0.2 0.2q-0.4 0.1-0.8 0 0 0-0.1 0zm-1.8-1.1q-0.1 0-0.1-0.1-0.2-0.2-0.4-0.6c-0.1-0.1-0.1-0.2 0-0.2 0.1-0.1 0.2-0.1 0.3 0q0.2 0.3 0.4 0.6c0.1 0.1 0.1 0.2 0 0.3q-0.1 0-0.2 0zm-0.8-1.3q-0.1 0-0.1-0.1-0.2-0.3-0.3-0.7c0-0.1 0-0.2 0.1-0.2 0.1 0 0.2 0 0.2 0.1q0.2 0.4 0.3 0.7c0.1 0.1 0 0.2-0.1 0.2q-0.1 0.1-0.1 0zm4.1 2.1q-0.1 0-0.1-0.1c0-0.1 0-0.2 0.1-0.2q0.3-0.2 0.5-0.5c0.1 0 0.2 0 0.3 0.1 0.1 0 0.1 0.1 0 0.2q-0.3 0.3-0.6 0.5-0.1 0-0.2 0zm-4.7-3.5q0 0 0-0.1-0.1-0.4-0.2-0.7c0-0.1 0-0.2 0.1-0.2 0.1-0.1 0.2 0 0.3 0.1q0 0.4 0.1 0.7c0 0.1 0 0.2-0.1 0.2q-0.1 0.1-0.2 0zm5.8 2.5c-0.1-0.1-0.1-0.2-0.1-0.3q0.2-0.3 0.4-0.6 0.2-0.2 0.3-0.4c0-0.1 0.1-0.2 0.2-0.1 0.1 0 0.1 0.1 0.1 0.2q-0.1 0.3-0.3 0.5-0.2 0.4-0.4 0.6c0 0.1-0.1 0.1-0.2 0.1zm-6-3.9q-0.1-0.1-0.1-0.2-0.1-0.4-0.1-0.7c0-0.1 0.1-0.2 0.2-0.2 0.1 0 0.2 0 0.2 0.1q0 0.4 0 0.8c0.1 0.1 0 0.2-0.1 0.2q-0.1 0-0.1 0zm-0.1-1.5q-0.1-0.1-0.1-0.2 0-0.4 0-0.8c0-0.1 0.1-0.1 0.2-0.1 0.1 0 0.2 0.1 0.2 0.2q0 0.3 0 0.7c0 0.1-0.1 0.2-0.2 0.2q-0.1 0-0.1 0zm7 3.6c-0.1 0-0.1-0.1-0.1-0.2q0.2-0.3 0.3-0.7c0-0.1 0.1-0.2 0.2-0.1 0.1 0 0.2 0.1 0.1 0.2q-0.1 0.4-0.2 0.7c0 0.1-0.1 0.2-0.2 0.1q-0.1 0-0.1 0zm-6.9-5.1q-0.1-0.1-0.1-0.2 0.1-0.4 0.1-0.8c0.1-0.1 0.2-0.1 0.3-0.1 0.1 0 0.1 0.1 0.1 0.2q-0.1 0.4-0.1 0.7c0 0.1-0.1 0.2-0.2 0.2q-0.1 0-0.1 0zm7.3 3.7q-0.1-0.1-0.1-0.2 0.1-0.4 0.1-0.7c0.1-0.1 0.1-0.2 0.3-0.2 0.1 0 0.1 0.1 0.1 0.2q0 0.4-0.1 0.8c0 0.1-0.1 0.1-0.2 0.1q-0.1 0-0.1 0zm-7-5.2q-0.1-0.1-0.1-0.2 0.1-0.4 0.3-0.7c0-0.1 0.1-0.2 0.2-0.1 0.1 0 0.2 0.1 0.1 0.2q-0.1 0.4-0.2 0.7c0 0.1-0.1 0.2-0.2 0.1q-0.1 0-0.1 0zm7.2 3.7q-0.1-0.1-0.1-0.2 0-0.3 0-0.7c0-0.1 0.1-0.2 0.2-0.2 0.1 0 0.2 0.1 0.2 0.2q0 0.4 0 0.7c0 0.1-0.1 0.2-0.2 0.2q-0.1 0-0.1 0zm-6.6-5.1c-0.1 0-0.1-0.1-0.1-0.2q0.1-0.1 0.1-0.2 0.2-0.3 0.3-0.5c0.1-0.1 0.2-0.1 0.3 0 0 0 0.1 0.2 0 0.2q-0.1 0.2-0.2 0.4-0.1 0.2-0.2 0.3c0 0.1-0.1 0.1-0.2 0q0 0 0 0zm6.6 3.6q-0.1 0-0.1-0.1 0-0.4-0.1-0.8c0-0.1 0.1-0.2 0.2-0.2 0.1 0 0.2 0.1 0.2 0.2q0 0.3 0.1 0.7c0 0.1-0.1 0.2-0.2 0.2q-0.1 0-0.1 0zm-0.2-1.5q-0.1 0-0.1-0.1-0.1-0.4-0.2-0.7c0-0.1 0-0.2 0.1-0.2 0.1-0.1 0.2 0 0.3 0.1q0.1 0.4 0.1 0.7c0.1 0.1 0 0.2-0.1 0.2q-0.1 0.1-0.1 0zm-5.6-3.3q0 0 0 0c-0.1-0.1-0.1-0.2 0-0.3q0.3-0.3 0.6-0.5c0.1 0 0.2 0 0.2 0.1 0.1 0.1 0.1 0.2 0 0.2q-0.3 0.2-0.5 0.5-0.1 0.1-0.3 0zm5.1 1.9q0 0 0-0.1-0.2-0.3-0.4-0.6c0-0.1 0-0.3 0.1-0.3 0.1 0 0.2 0 0.3 0.1q0.2 0.3 0.3 0.7c0 0.1 0 0.2-0.1 0.2q-0.1 0-0.2 0zm-3.8-2.7q-0.1 0-0.1-0.1c-0.1-0.1 0-0.2 0.1-0.2q0.4-0.2 0.8-0.2c0.1 0 0.2 0.1 0.2 0.2 0 0.1-0.1 0.2-0.2 0.2q-0.4 0-0.7 0.1-0.1 0-0.1 0zm3.1 1.4q0 0 0-0.1-0.2-0.3-0.5-0.5c-0.1-0.1-0.1-0.2 0-0.3 0.1-0.1 0.2-0.1 0.3 0q0.2 0.3 0.5 0.6c0 0.1 0 0.2-0.1 0.3q-0.1 0-0.2 0zm-1.7-1.4q-0.1-0.1-0.1-0.2c0.1-0.1 0.2-0.2 0.3-0.1q0.2 0 0.5 0.2 0.1 0 0.2 0.1c0.1 0.1 0.1 0.2 0 0.3 0 0.1-0.1 0.1-0.2 0q-0.1 0-0.2-0.1-0.2-0.1-0.4-0.2-0.1 0-0.1 0z"/>
					<path id="&lt;Compound Path&gt;" class="s0" d="m62.3 34.5q-0.1 0-0.3-0.1c0-0.1-0.1-0.2 0-0.3 0.1-0.1 0.2-0.1 0.3 0q0.3 0.2 0.6 0.3c0.1 0 0.1 0.1 0.1 0.2 0 0.1-0.1 0.2-0.2 0.1q-0.3 0-0.5-0.2zm-0.8-0.7q0 0 0 0-0.2-0.2-0.4-0.5 0-0.1 0-0.2c-0.1 0-0.1-0.2 0-0.2 0.1-0.1 0.2 0 0.3 0.1q0 0 0.1 0.1 0.1 0.3 0.3 0.5c0 0.1 0 0.2-0.1 0.2q-0.1 0.1-0.2 0zm2 0.9q-0.1 0-0.1-0.1c0-0.1 0-0.2 0.1-0.2q0.3-0.1 0.6-0.2c0.1-0.1 0.2-0.1 0.3 0 0.1 0.1 0 0.2-0.1 0.3q-0.3 0.2-0.7 0.3-0.1 0-0.1-0.1zm-2.7-2.2q0 0-0.1-0.1-0.1-0.3-0.2-0.7c0-0.1 0.1-0.2 0.2-0.2 0.1 0 0.2 0 0.2 0.1q0.1 0.4 0.2 0.7c0 0.1 0 0.2-0.1 0.3q-0.1 0-0.2-0.1zm3.9 1.5c-0.1-0.1-0.1-0.2 0-0.3q0.2-0.3 0.4-0.6 0.1-0.1 0.1-0.3c0.1-0.1 0.2-0.1 0.3-0.1 0.1 0.1 0.1 0.2 0.1 0.3q-0.1 0.1-0.2 0.3-0.2 0.4-0.5 0.6-0.1 0.1-0.2 0.1zm-4.2-2.9q-0.1-0.1-0.1-0.1-0.1-0.4-0.1-0.8c0-0.1 0.1-0.2 0.2-0.2 0.1 0 0.2 0.1 0.2 0.2q0 0.3 0.1 0.7c0 0.1-0.1 0.2-0.2 0.2q-0.1 0-0.1 0zm-0.1-1.5q-0.1-0.1-0.1-0.2 0-0.4 0.1-0.7c0-0.1 0.1-0.2 0.2-0.2 0.1 0 0.2 0.1 0.2 0.2q-0.1 0.4-0.1 0.7c0 0.2-0.1 0.2-0.2 0.2q-0.1 0-0.1 0zm5.2 2.8q-0.1-0.1-0.1-0.3 0.1-0.3 0.2-0.7c0-0.1 0.1-0.1 0.2-0.1 0.1 0 0.2 0.1 0.2 0.2q-0.1 0.4-0.2 0.8c-0.1 0.1-0.2 0.1-0.3 0.1q0 0 0 0zm-5-4.3q-0.1 0-0.1-0.2 0.1-0.4 0.2-0.7c0.1-0.1 0.2-0.2 0.3-0.1 0.1 0 0.1 0.1 0.1 0.2q-0.1 0.3-0.2 0.7c0 0.1-0.1 0.2-0.2 0.1q-0.1 0-0.1 0zm5.3 2.8q-0.1-0.1-0.1-0.2 0-0.3 0.1-0.7c0-0.1 0-0.2 0.1-0.2 0.2 0 0.2 0.1 0.2 0.2q0 0.4 0 0.8c0 0.1-0.1 0.1-0.2 0.1q-0.1 0-0.1 0zm-4.8-4.2c-0.1 0-0.1-0.1 0-0.2q0-0.1 0-0.2 0.2-0.3 0.4-0.5c0-0.1 0.2-0.1 0.2 0 0.1 0.1 0.1 0.2 0.1 0.3q-0.2 0.2-0.3 0.4-0.1 0.1-0.1 0.2c-0.1 0-0.2 0.1-0.3 0q0 0 0 0zm4.8 2.7q0 0-0.1-0.1 0-0.4 0-0.8c-0.1-0.1 0-0.2 0.1-0.2 0.1 0 0.2 0.1 0.2 0.2q0.1 0.3 0.1 0.7c0 0.1-0.1 0.2-0.2 0.2q0 0-0.1 0zm-0.2-1.5q-0.1 0-0.1-0.1-0.1-0.3-0.2-0.7c-0.1-0.1 0-0.2 0.1-0.2 0.1 0 0.2 0 0.2 0.1q0.2 0.3 0.3 0.7c0 0.1-0.1 0.2-0.2 0.3q0 0-0.1-0.1zm-3.6-2.3q-0.1 0-0.1-0.1c-0.1-0.1 0-0.2 0-0.2q0.4-0.3 0.8-0.4c0.1 0 0.2 0 0.2 0.1 0 0.1 0 0.2-0.1 0.2q-0.3 0.1-0.6 0.4-0.1 0-0.2 0zm3 1q0-0.1 0-0.1-0.2-0.3-0.4-0.6c-0.1-0.1-0.1-0.2 0-0.3 0.1 0 0.2 0 0.2 0.1q0.3 0.2 0.5 0.6c0 0.1 0 0.2-0.1 0.3q-0.1 0-0.2 0zm-1.6-1.4q-0.2-0.1-0.1-0.2c0-0.1 0.1-0.2 0.2-0.2q0.4 0.1 0.7 0.3c0.1 0.1 0.1 0.2 0.1 0.3-0.1 0.1-0.2 0.1-0.3 0.1v-0.1q-0.3-0.1-0.6-0.2 0 0 0 0z"/>
					<path id="&lt;Compound Path&gt;" class="s0" d="m50.4 41q-0.1 0-0.2-0.1c-0.1 0-0.1-0.1-0.1-0.2 0.1-0.1 0.2-0.1 0.3-0.1q0.3 0.2 0.6 0.4c0.1 0 0.2 0.1 0.1 0.2 0 0.1-0.1 0.1-0.2 0.1q-0.3-0.1-0.5-0.3zm-0.8-0.5q-0.3-0.3-0.6-0.5c0-0.1 0-0.2 0-0.3 0.1-0.1 0.2-0.1 0.3 0q0.3 0.3 0.5 0.5c0.1 0.1 0.1 0.2 0 0.3 0 0-0.1 0-0.2 0zm2 1q-0.1-0.1-0.1-0.2c0-0.1 0.1-0.1 0.2-0.1q0.4 0.1 0.7 0.1c0.1 0 0.2 0 0.2 0.2 0 0.1-0.1 0.1-0.2 0.1q-0.4 0-0.8-0.1 0 0 0 0zm-3-2.1q0 0-0.1 0-0.2-0.3-0.4-0.6c-0.1-0.1 0-0.2 0-0.3 0.1-0.1 0.2 0 0.3 0.1q0.2 0.3 0.4 0.5c0.1 0.1 0.1 0.2 0 0.3q-0.1 0.1-0.2 0zm4.5 2.2q-0.1-0.1-0.1-0.2c0-0.1 0-0.2 0.1-0.2q0.4-0.1 0.7-0.2c0.1 0 0.2 0 0.3 0.1 0 0.1-0.1 0.2-0.2 0.3q-0.3 0.1-0.7 0.2-0.1 0-0.1 0zm-5.3-3.4q-0.1 0-0.1-0.1-0.2-0.3-0.4-0.7c0-0.1 0-0.2 0.1-0.2 0.1-0.1 0.2 0 0.3 0.1q0.1 0.3 0.3 0.6c0.1 0.1 0 0.2-0.1 0.3q0 0-0.1 0zm-0.7-1.4q0 0-0.1-0.1-0.1-0.3-0.2-0.7c-0.1-0.1 0-0.2 0.1-0.2 0.1 0 0.2 0 0.2 0.1q0.2 0.4 0.3 0.7c0 0.1 0 0.2-0.1 0.2q-0.1 0.1-0.2 0zm7.4 4.2q-0.1 0-0.1 0c-0.1-0.1 0-0.2 0.1-0.3q0.3-0.2 0.6-0.4c0-0.1 0.2 0 0.2 0 0.1 0.1 0.1 0.2 0 0.3q-0.3 0.3-0.7 0.4-0.1 0.1-0.1 0zm-7.9-5.6q0 0 0-0.1-0.1-0.4-0.2-0.7c-0.1-0.1 0-0.2 0.1-0.3 0.1 0 0.2 0.1 0.2 0.2q0.1 0.3 0.2 0.7c0 0.1 0 0.2-0.1 0.2q-0.1 0.1-0.2 0zm9 4.7q0 0 0 0c-0.1-0.1-0.1-0.2 0-0.3q0.2-0.2 0.5-0.5c0-0.1 0.2-0.1 0.2 0 0.1 0 0.1 0.2 0.1 0.2q-0.3 0.3-0.5 0.6-0.1 0.1-0.3 0zm-9.3-6.1q-0.1-0.1-0.1-0.2-0.1-0.3-0.1-0.7c0-0.1 0-0.2 0.1-0.2 0.1 0 0.2 0 0.3 0.1q0 0.4 0.1 0.8c0 0.1-0.1 0.2-0.2 0.2q0 0-0.1 0zm10.3 5c-0.1-0.1-0.1-0.2-0.1-0.3q0.2-0.3 0.4-0.6 0.1-0.1 0.2-0.1-0.1-0.1 0-0.2 0.2-0.3 0.3-0.7c0.1-0.1 0.2-0.1 0.3-0.1 0.1 0.1 0.1 0.2 0 0.3q-0.1 0.3-0.3 0.6c0 0.1-0.1 0.2-0.2 0.1 0.1 0.1 0.1 0.2 0 0.3q-0.2 0.3-0.4 0.6c0 0.1-0.1 0.1-0.2 0.1zm-10.5-6.5q-0.1-0.1-0.1-0.2-0.1-0.3-0.1-0.7c0-0.1 0.1-0.2 0.2-0.2 0.1 0 0.2 0.1 0.2 0.2q0 0.3 0.1 0.7c0 0.1-0.1 0.2-0.2 0.2q-0.1 0-0.1 0zm-0.1-1.5q-0.1-0.1-0.1-0.2 0-0.3 0-0.7c0-0.1 0.1-0.2 0.2-0.2 0.1 0 0.2 0.1 0.2 0.2q-0.1 0.4 0 0.7c0 0.1-0.1 0.2-0.2 0.2q-0.1 0-0.1 0zm11.8 5.7c-0.1-0.1-0.1-0.2-0.1-0.3q0.1-0.3 0.2-0.7c0.1-0.1 0.2-0.1 0.3-0.1 0.1 0.1 0.1 0.2 0.1 0.3q-0.1 0.3-0.3 0.7c0 0.1-0.1 0.1-0.2 0.1q0 0 0 0zm-11.8-7.2q-0.1-0.1-0.1-0.2 0-0.3 0.1-0.7c0-0.1 0.1-0.2 0.2-0.2 0.1 0 0.1 0.1 0.1 0.2q0 0.4 0 0.8c0 0.1-0.1 0.1-0.2 0.1q-0.1 0-0.1 0zm12.2 5.7q-0.1 0 0-0.2 0.1-0.3 0.1-0.7c0.1-0.1 0.2-0.1 0.3-0.1 0.1 0 0.1 0.1 0.1 0.2q-0.1 0.4-0.2 0.7c0 0.1-0.1 0.2-0.2 0.2q0 0-0.1-0.1zm-12.1-7.2q-0.1 0-0.1-0.2 0.1-0.3 0.1-0.7c0.1-0.1 0.2-0.2 0.3-0.2 0.1 0 0.1 0.1 0.1 0.2q0 0.4-0.1 0.8c0 0.1-0.1 0.2-0.2 0.1q0 0-0.1 0zm12.5 5.8q-0.1-0.1-0.1-0.2 0-0.4 0.1-0.7c0-0.1 0.1-0.2 0.2-0.2 0.1 0 0.2 0.1 0.2 0.2q-0.1 0.4-0.1 0.8c-0.1 0.1-0.2 0.1-0.3 0.1q0 0 0 0zm-12.2-7.3q-0.1 0-0.1-0.2 0.1-0.3 0.2-0.7c0-0.1 0.1-0.2 0.2-0.1 0.1 0 0.2 0.1 0.1 0.2q-0.1 0.4-0.1 0.7c-0.1 0.1-0.2 0.2-0.3 0.2q0 0 0-0.1zm12.4 5.8q-0.1-0.1-0.1-0.2 0-0.3 0-0.7c0.1-0.1 0.1-0.2 0.2-0.2 0.1 0 0.2 0.1 0.2 0.2q0 0.4 0 0.8c-0.1 0.1-0.1 0.1-0.2 0.1q-0.1 0-0.1 0zm-12-7.2q-0.2-0.1-0.1-0.2 0.1-0.4 0.2-0.7c0.1-0.1 0.2-0.2 0.3-0.1 0.1 0 0.1 0.1 0.1 0.2q-0.2 0.3-0.3 0.7c0 0.1-0.1 0.1-0.2 0.1q0 0 0 0zm12.1 5.7q-0.1 0-0.1-0.1 0-0.4 0-0.8c0-0.1 0.1-0.2 0.2-0.2 0.1 0 0.1 0.1 0.1 0.2q0.1 0.4 0 0.8c0 0.1 0 0.1-0.1 0.1q-0.1 0-0.1 0zm-11.6-7.1c-0.1 0-0.1-0.1-0.1-0.2q0.2-0.4 0.3-0.7c0.1-0.1 0.2-0.1 0.3-0.1 0.1 0 0.1 0.2 0.1 0.2q-0.2 0.4-0.4 0.7c0 0.1-0.1 0.2-0.2 0.1q0 0 0 0zm11.5 5.6q0 0-0.1-0.1 0-0.4 0-0.8c0-0.1 0.1-0.2 0.2-0.2 0.1 0 0.2 0.1 0.2 0.2q0 0.4 0 0.8c0 0.1-0.1 0.1-0.2 0.1q0 0.1-0.1 0zm-10.8-6.9c-0.1-0.1-0.2-0.2-0.1-0.3q0.2-0.3 0.4-0.6c0.1-0.1 0.2-0.1 0.3-0.1 0.1 0.1 0.1 0.2 0 0.3q-0.2 0.3-0.4 0.6c0 0.1-0.1 0.1-0.2 0.1zm10.7 5.4q-0.1 0-0.1-0.1 0-0.4-0.1-0.7c0-0.1 0-0.2 0.1-0.2 0.1-0.1 0.2 0 0.3 0.1q0 0.4 0.1 0.8c0 0.1-0.1 0.1-0.2 0.2q0 0-0.1-0.1zm-9.9-6.6c-0.1-0.1-0.1-0.2 0-0.3q0.2-0.3 0.5-0.6c0.1 0 0.2 0 0.3 0 0 0.1 0 0.2 0 0.3q-0.3 0.2-0.5 0.5-0.1 0.1-0.3 0.1zm9.6 5.2q0-0.1-0.1-0.2 0-0.3-0.1-0.7c-0.1-0.1 0-0.2 0.1-0.2 0.1 0 0.2 0 0.2 0.1q0.1 0.4 0.2 0.8c0 0.1 0 0.2-0.1 0.2q-0.1 0-0.2 0zm-0.4-1.5q0 0 0-0.1-0.2-0.3-0.3-0.7c0-0.1 0-0.2 0.1-0.2 0.1 0 0.2 0 0.3 0.1q0.1 0.3 0.2 0.7c0 0.1 0 0.2-0.1 0.2q-0.1 0.1-0.2 0zm-8.1-4.8q0 0 0 0c-0.1-0.1-0.1-0.2 0-0.3q0.3-0.2 0.7-0.4c0.1 0 0.2 0 0.2 0.1 0.1 0.1 0 0.2-0.1 0.3q-0.3 0.1-0.6 0.3-0.1 0.1-0.2 0zm7.6 3.4q-0.1 0-0.1 0-0.1-0.4-0.3-0.7c0-0.1 0-0.2 0.1-0.3 0.1 0 0.2 0 0.2 0.1q0.2 0.4 0.4 0.7c0 0.1 0 0.2-0.1 0.2q-0.1 0.1-0.2 0zm-6.3-4q0-0.1 0-0.1c-0.1-0.1 0-0.2 0.1-0.3q0.4-0.1 0.7-0.2c0.1 0 0.2 0.1 0.2 0.2 0.1 0.1 0 0.2-0.1 0.2q-0.4 0.1-0.7 0.2-0.1 0-0.2 0zm5.6 2.7q0 0-0.1 0-0.2-0.4-0.4-0.6c0-0.1 0-0.2 0.1-0.3 0-0.1 0.2-0.1 0.2 0q0.2 0.3 0.4 0.7c0.1 0 0.1 0.2 0 0.2q-0.1 0.1-0.2 0zm-4.1-2.9q-0.1-0.1-0.1-0.2c0-0.1 0.1-0.2 0.2-0.2q0.4 0.1 0.8 0.2c0.1 0 0.1 0.1 0.1 0.2 0 0.1-0.1 0.2-0.2 0.1q-0.4-0.1-0.7-0.1-0.1 0-0.1 0zm3.2 1.7q0 0 0 0-0.3-0.3-0.6-0.5c0-0.1 0-0.2 0-0.3 0.1-0.1 0.2-0.1 0.3 0q0.3 0.2 0.5 0.5c0.1 0.1 0.1 0.2 0 0.3q-0.1 0.1-0.2 0zm-1.8-1.3c0-0.1-0.1-0.2 0-0.3 0-0.1 0.1-0.1 0.2-0.1q0.2 0.1 0.4 0.2 0.1 0.1 0.3 0.2c0.1 0.1 0.1 0.2 0 0.3 0 0.1-0.1 0.1-0.2 0q-0.2-0.1-0.3-0.2-0.2-0.1-0.3-0.1-0.1 0-0.1 0z"/>
					<g id="&lt;Group&gt;">
						<g id="&lt;Group&gt;">
							<path id="&lt;Compound Path&gt;" class="s1" d="m15.8 20.8q-0.1-0.1-0.1-0.2l0.2-1c0.1-0.1 0.2-0.2 0.3-0.2 0.2 0.1 0.2 0.2 0.2 0.3l-0.2 1c-0.1 0.1-0.2 0.2-0.3 0.2q-0.1 0-0.1-0.1zm0.5-1.9q-0.1-0.1-0.1-0.2l0.2-1c0.1-0.1 0.2-0.2 0.3-0.2 0.2 0.1 0.2 0.2 0.2 0.3l-0.2 1c-0.1 0.1-0.2 0.2-0.3 0.2q-0.1 0-0.1-0.1zm0.5-1.9q-0.2-0.1-0.1-0.2l0.2-1c0.1-0.1 0.2-0.2 0.3-0.2 0.2 0.1 0.2 0.2 0.2 0.3l-0.2 1c-0.1 0.1-0.2 0.2-0.3 0.2q-0.1 0-0.1-0.1zm0.5-1.9q-0.2-0.1-0.1-0.2l0.2-1c0.1-0.1 0.2-0.2 0.3-0.2 0.2 0.1 0.2 0.2 0.2 0.3l-0.2 1c-0.1 0.1-0.2 0.2-0.3 0.2q-0.1-0.1-0.1-0.1zm0.5-1.9q-0.2-0.1-0.1-0.3l0.2-0.9c0.1-0.1 0.2-0.2 0.3-0.2 0.1 0.1 0.2 0.2 0.2 0.3l-0.3 1c0 0.1-0.1 0.2-0.3 0.1q0 0 0 0zm0.5-1.9q-0.2-0.1-0.1-0.3l0.2-0.9c0-0.1 0.2-0.2 0.3-0.2 0.1 0 0.2 0.2 0.2 0.3l-0.3 1c0 0.1-0.1 0.2-0.3 0.1q0 0 0 0zm0.5-1.9q-0.2-0.1-0.1-0.3l0.2-0.9c0-0.2 0.2-0.2 0.3-0.2 0.1 0 0.2 0.2 0.2 0.3l-0.3 1c0 0.1-0.1 0.2-0.3 0.1q0 0 0 0zm0.5-1.9q-0.2-0.1-0.1-0.3l0.2-0.9c0-0.2 0.2-0.2 0.3-0.2 0.1 0 0.2 0.2 0.2 0.3l-0.3 0.9c0 0.2-0.1 0.3-0.3 0.2q0 0 0 0z"/>
							<path id="&lt;Path&gt;" class="s1" d="m20 3.4c1.3 0.2 2.2 1.3 2.1 2.5-0.1 1.3-1.3 2.2-2.5 2.1-1.3-0.2-2.2-1.3-2.1-2.5 0.2-1.3 1.3-2.2 2.5-2.1z"/>
							<path id="&lt;Compound Path&gt;" class="s1" d="m21.1 5.4q-0.1 0-0.1-0.1c-0.1-0.1 0-0.3 0.1-0.3l1-0.3c0.1-0.1 0.2 0 0.3 0.1 0 0.1 0 0.3-0.2 0.3l-0.9 0.3q-0.1 0.1-0.2 0zm1.8-0.6q0-0.1-0.1-0.2c0-0.1 0.1-0.2 0.2-0.3l0.9-0.3c0.2 0 0.3 0 0.3 0.2 0.1 0.1 0 0.2-0.1 0.3l-0.9 0.3q-0.2 0-0.3 0zm1.9-0.7q-0.1 0-0.1-0.1c0-0.1 0-0.3 0.2-0.3l0.9-0.3c0.1-0.1 0.3 0 0.3 0.1 0.1 0.1 0 0.3-0.1 0.3l-1 0.3q-0.1 0.1-0.2 0zm1.9-0.6q-0.1-0.1-0.1-0.1c-0.1-0.2 0-0.3 0.1-0.4l1-0.3c0.1 0 0.2 0 0.3 0.2 0 0.1-0.1 0.2-0.2 0.3l-0.9 0.3q-0.1 0-0.2 0zm1.8-0.7q0 0-0.1-0.1c0-0.1 0.1-0.3 0.2-0.3l0.3-0.1c0.1-0.1 0.3 0 0.3 0.1 0.1 0.2 0 0.3-0.1 0.3l-0.3 0.2q-0.2 0-0.3-0.1z"/>
							<path id="&lt;Path&gt;" class="s1" d="m29.2 0.2c1.3 0.2 2.2 1.3 2.1 2.5-0.2 1.3-1.3 2.2-2.5 2.1-1.3-0.1-2.2-1.3-2.1-2.5 0.1-1.3 1.3-2.2 2.5-2.1z"/>
							<path id="&lt;Path&gt;" class="s1" d="m16.2 18.2c1.2 0.1 2.1 1.3 2 2.5-0.1 1.3-1.2 2.2-2.5 2.1-1.2-0.2-2.2-1.3-2-2.6 0.1-1.2 1.2-2.1 2.5-2z"/>
							<path id="&lt;Path&gt;" class="s1" d="m21.5 30.1c1.2 0.2 2.1 1.3 2 2.5-0.1 1.3-1.3 2.2-2.5 2.1-1.3-0.1-2.2-1.3-2.1-2.5 0.2-1.3 1.3-2.2 2.6-2.1z"/>
							<path id="&lt;Compound Path&gt;" class="s1" d="m33.9 13.9q-0.1 0-0.1-0.1l-0.4-0.9c-0.1-0.1 0-0.2 0.1-0.3 0.2 0 0.3 0 0.4 0.1l0.4 0.9c0 0.2 0 0.3-0.2 0.4q-0.1 0-0.2-0.1zm-0.8-1.8q-0.1 0-0.1-0.1l-0.4-0.9c-0.1-0.1 0-0.2 0.1-0.3 0.1 0 0.3 0 0.3 0.1l0.4 0.9c0.1 0.2 0 0.3-0.1 0.4q-0.1 0-0.2-0.1zm-0.8-1.8q-0.1 0-0.1-0.1l-0.4-0.9c-0.1-0.1 0-0.2 0.1-0.3 0.1 0 0.3 0 0.3 0.1l0.4 0.9c0.1 0.2 0 0.3-0.1 0.4q-0.1 0-0.2-0.1zm-0.8-1.8q-0.1 0-0.1-0.1l-0.4-0.9c-0.1-0.1 0-0.2 0.1-0.3 0.1 0 0.3 0 0.3 0.1l0.4 0.9c0.1 0.2 0 0.3-0.1 0.4q-0.1 0-0.2-0.1zm-0.8-1.8q-0.1 0-0.1-0.1l-0.4-0.9c-0.1-0.1 0-0.2 0.1-0.3 0.1 0 0.3 0 0.3 0.1l0.4 0.9c0.1 0.2 0 0.3-0.1 0.4q-0.1 0-0.2-0.1zm-0.9-1.8q0 0 0-0.1l-0.4-0.9c-0.1-0.1 0-0.2 0.1-0.3 0.1 0 0.2 0 0.3 0.1l0.4 0.9c0.1 0.2 0 0.3-0.1 0.4q-0.1 0-0.3-0.1z"/>
							<path id="&lt;Path&gt;" class="s1" d="m30.6 26.8c1.3 0.1 2.2 1.2 2.1 2.5-0.1 1.3-1.3 2.2-2.5 2-1.3-0.1-2.2-1.2-2.1-2.5 0.2-1.2 1.3-2.1 2.5-2z"/>
							<path id="&lt;Compound Path&gt;" class="s1" d="m30.9 26.9q-0.1-0.1-0.1-0.3l0.3-0.9c0-0.2 0.1-0.2 0.3-0.2 0.1 0 0.2 0.2 0.1 0.3l-0.2 0.9c0 0.2-0.2 0.3-0.3 0.2q-0.1 0-0.1 0zm0.5-1.9q-0.1-0.1-0.1-0.3l0.3-0.9c0-0.2 0.1-0.3 0.3-0.2 0.1 0 0.2 0.1 0.1 0.3l-0.2 0.9c0 0.2-0.2 0.2-0.3 0.2q-0.1 0-0.1 0zm0.5-1.9q-0.1-0.1-0.1-0.3l0.3-1c0-0.1 0.1-0.2 0.3-0.1 0.1 0 0.2 0.1 0.1 0.3l-0.2 0.9c0 0.2-0.2 0.2-0.3 0.2q-0.1 0-0.1 0zm0.5-1.9q-0.1-0.1-0.1-0.3l0.3-1c0-0.1 0.1-0.2 0.3-0.1 0.1 0 0.2 0.1 0.1 0.3l-0.2 0.9c-0.1 0.1-0.2 0.2-0.3 0.2q-0.1 0-0.1 0zm0.5-2q-0.1-0.1-0.1-0.2l0.2-1c0.1-0.1 0.2-0.2 0.3-0.1 0.2 0 0.3 0.1 0.2 0.3l-0.2 0.9c-0.1 0.1-0.2 0.2-0.3 0.2q-0.1 0-0.1-0.1zm0.5-1.9q-0.1-0.1-0.1-0.2l0.2-1c0.1-0.1 0.2-0.2 0.3-0.2 0.2 0.1 0.3 0.2 0.2 0.3l-0.2 1c-0.1 0.1-0.2 0.2-0.3 0.2q-0.1 0-0.1-0.1zm0.5-1.9q-0.1-0.1-0.1-0.2l0.2-1c0.1-0.1 0.2-0.2 0.3-0.2 0.2 0.1 0.3 0.2 0.2 0.3l-0.2 1c-0.1 0.1-0.2 0.2-0.3 0.2q-0.1 0-0.1-0.1z"/>
							<path id="&lt;Path&gt;" class="s1" d="m34.5 12c1.3 0.1 2.2 1.2 2.1 2.5-0.2 1.3-1.3 2.2-2.6 2-1.2-0.1-2.1-1.2-2-2.5 0.1-1.2 1.3-2.1 2.5-2z"/>
						</g>
						<g id="&lt;Group&gt;">
							<path id="&lt;Compound Path&gt;" class="s1" d="m2.8 39q-0.1-0.1-0.1-0.3l0.3-0.9c0-0.2 0.1-0.2 0.3-0.2 0.1 0 0.2 0.2 0.1 0.3l-0.2 0.9c-0.1 0.2-0.2 0.3-0.3 0.2q-0.1 0-0.1 0zm0.5-1.9q-0.1-0.1-0.1-0.3l0.3-0.9c0-0.2 0.1-0.3 0.3-0.2 0.1 0 0.2 0.1 0.1 0.3l-0.2 0.9c-0.1 0.2-0.2 0.2-0.3 0.2q-0.1 0-0.1 0zm0.5-1.9q-0.1-0.1-0.1-0.3l0.2-1c0.1-0.1 0.2-0.2 0.3-0.1 0.2 0 0.3 0.1 0.2 0.3l-0.2 0.9c-0.1 0.2-0.2 0.2-0.3 0.2q-0.1 0-0.1 0zm0.5-1.9q-0.1-0.1-0.1-0.3l0.2-1c0.1-0.1 0.2-0.2 0.3-0.1 0.2 0 0.3 0.1 0.2 0.3l-0.2 0.9c-0.1 0.1-0.2 0.2-0.3 0.2q-0.1 0-0.1 0zm0.5-2q-0.1-0.1-0.1-0.2l0.2-1c0.1-0.1 0.2-0.2 0.3-0.1 0.2 0 0.2 0.1 0.2 0.3l-0.2 0.9c-0.1 0.1-0.2 0.2-0.3 0.2q-0.1 0-0.1-0.1zm0.5-1.9q-0.1-0.1-0.1-0.2l0.2-1c0.1-0.1 0.2-0.2 0.3-0.2 0.2 0.1 0.2 0.2 0.2 0.3l-0.2 1c-0.1 0.1-0.2 0.2-0.3 0.2q-0.1 0-0.1-0.1zm0.5-1.9q-0.2-0.1-0.1-0.2l0.2-1c0.1-0.1 0.2-0.2 0.3-0.2 0.2 0.1 0.2 0.2 0.2 0.3l-0.2 1c-0.1 0.1-0.2 0.2-0.3 0.2q-0.1 0-0.1-0.1zm0.5-1.9q-0.2-0.1-0.1-0.2l0.2-1c0.1-0.1 0.2-0.2 0.3-0.2 0.2 0.1 0.2 0.2 0.2 0.3l-0.2 1c-0.1 0.1-0.2 0.2-0.3 0.2q-0.1-0.1-0.1-0.1z"/>
							<path id="&lt;Path&gt;" class="s1" d="m7.1 21.6c1.2 0.1 2.1 1.2 2 2.5-0.1 1.2-1.2 2.1-2.5 2-1.3-0.1-2.2-1.2-2-2.5 0.1-1.3 1.2-2.2 2.5-2z"/>
							<path id="&lt;Compound Path&gt;" class="s1" d="m8.1 23.5q-0.1 0-0.1-0.1c0-0.1 0-0.2 0.2-0.3l0.9-0.3c0.1-0.1 0.3 0 0.3 0.1 0 0.2 0 0.3-0.2 0.4l-0.9 0.3q-0.1 0-0.2-0.1zm1.9-0.6q-0.1 0-0.1-0.1c-0.1-0.1 0-0.3 0.1-0.3l1-0.4c0.1 0 0.2 0.1 0.3 0.2 0 0.1-0.1 0.3-0.2 0.3l-0.9 0.3q-0.1 0.1-0.2 0zm1.8-0.6q0-0.1-0.1-0.2c0-0.1 0.1-0.2 0.2-0.3l0.9-0.3c0.1 0 0.3 0 0.3 0.1 0.1 0.2 0 0.3-0.1 0.4l-1 0.3q-0.1 0-0.2 0zm1.9-0.7q-0.1 0-0.1-0.1c-0.1-0.1 0-0.3 0.1-0.3l1-0.4c0.1 0 0.2 0.1 0.3 0.2 0 0.1 0 0.3-0.2 0.3l-0.9 0.3q-0.1 0.1-0.2 0zm1.8-0.6q0-0.1 0-0.2c-0.1-0.1 0-0.2 0.1-0.3l0.3-0.1c0.1 0 0.3 0 0.3 0.2 0.1 0.1 0 0.2-0.1 0.3l-0.3 0.1q-0.2 0-0.3 0z"/>
							<path id="&lt;Path&gt;" class="s1" d="m16.2 18.4c1.3 0.1 2.2 1.2 2.1 2.5-0.2 1.2-1.3 2.2-2.5 2-1.3-0.1-2.2-1.2-2.1-2.5 0.2-1.2 1.3-2.2 2.5-2z"/>
							<path id="&lt;Path&gt;" class="s1" d="m3.2 36.3c1.2 0.2 2.2 1.3 2 2.5-0.1 1.3-1.2 2.2-2.5 2.1-1.2-0.1-2.1-1.3-2-2.5 0.1-1.3 1.2-2.2 2.5-2.1z"/>
							<path id="&lt;Compound Path&gt;" class="s1" d="m8.1 50.7q-0.1 0-0.1-0.1l-0.4-0.9c0-0.1 0-0.2 0.1-0.3 0.2 0 0.3 0 0.4 0.1l0.4 0.9c0 0.2 0 0.3-0.2 0.4q-0.1 0-0.2-0.1zm-0.8-1.8q-0.1 0-0.1-0.1l-0.4-0.9c-0.1-0.1 0-0.2 0.1-0.3 0.2 0 0.3 0 0.4 0.1l0.4 0.9c0 0.2 0 0.3-0.2 0.4q-0.1 0-0.2-0.1zm-0.8-1.8q-0.1 0-0.1-0.1l-0.4-0.9c-0.1-0.1 0-0.2 0.1-0.3 0.1 0 0.3 0 0.3 0.1l0.4 0.9c0.1 0.2 0 0.3-0.1 0.4q-0.1 0-0.2-0.1zm-0.8-1.8q-0.1 0-0.1-0.1l-0.4-0.9c-0.1-0.1 0-0.2 0.1-0.3 0.1 0 0.3 0 0.3 0.1l0.4 0.9c0.1 0.2 0 0.3-0.1 0.4q-0.1 0-0.2-0.1zm-0.8-1.8q-0.1 0-0.1-0.1l-0.4-0.8c-0.1-0.2 0-0.3 0.1-0.4 0.1 0 0.3 0 0.3 0.1l0.4 0.9c0.1 0.2 0 0.3-0.1 0.4q-0.1 0-0.2-0.1zm-0.9-1.8q0 0 0 0l-0.4-0.9c-0.1-0.2 0-0.3 0.1-0.4 0.1 0 0.3 0 0.3 0.1l0.4 0.9c0.1 0.2 0 0.3-0.1 0.4q-0.1 0-0.3-0.1zm-0.8-1.8q0 0 0 0c-0.1-0.2-0.1-0.4 0.1-0.4 0.1-0.1 0.2 0 0.3 0.1 0 0.1 0 0.3-0.1 0.4q-0.2 0-0.3-0.1z"/>
							<path id="&lt;Path&gt;" class="s1" d="m8.5 48.3c1.2 0.1 2.1 1.2 2 2.5-0.1 1.2-1.2 2.1-2.5 2-1.2-0.1-2.2-1.2-2-2.5 0.1-1.2 1.2-2.2 2.5-2z"/>
							<path id="&lt;Compound Path&gt;" class="s1" d="m9.2 50.4q-0.1-0.1-0.1-0.2c-0.1-0.1 0-0.2 0.1-0.3l0.7-0.2c0.1 0 0.3 0 0.3 0.2 0 0.1 0 0.2-0.2 0.3l-0.6 0.2q-0.1 0-0.2 0zm1.6-0.6q-0.1 0-0.1-0.1c-0.1-0.1 0-0.3 0.1-0.3l0.9-0.3c0.2-0.1 0.3 0 0.4 0.1 0 0.1-0.1 0.3-0.2 0.3l-0.9 0.4q-0.1 0-0.2-0.1zm1.8-0.6q0-0.1-0.1-0.1c0-0.2 0.1-0.3 0.2-0.4l0.9-0.3c0.1 0 0.3 0 0.3 0.2 0.1 0.1 0 0.2-0.1 0.3l-1 0.3q-0.1 0-0.2 0zm1.9-0.7q-0.1 0-0.1-0.1c-0.1-0.1 0-0.3 0.1-0.3l1-0.3c0.1-0.1 0.2 0 0.3 0.1 0 0.2 0 0.3-0.2 0.3l-0.9 0.4q-0.1 0-0.2-0.1zm1.8-0.6q0-0.1 0-0.1c-0.1-0.2 0-0.3 0.1-0.4l0.9-0.3c0.2 0 0.3 0 0.3 0.2 0.1 0.1 0 0.2-0.1 0.3l-0.9 0.3q-0.2 0.1-0.3 0z"/>
							<path id="&lt;Compound Path&gt;" class="s1" d="m20.9 32.1q0-0.1-0.1-0.1l-0.4-0.9c0-0.2 0-0.3 0.1-0.4 0.2 0 0.3 0 0.4 0.2l0.4 0.9c0 0.1 0 0.2-0.1 0.3q-0.2 0-0.3 0zm-0.8-1.8q-0.1-0.1-0.1-0.1l-0.4-0.9c0-0.2 0-0.3 0.1-0.4 0.2 0 0.3 0 0.4 0.2l0.4 0.9c0 0.1 0 0.2-0.2 0.3q-0.1 0-0.2 0zm-0.8-1.8q-0.1-0.1-0.1-0.1l-0.4-0.9c-0.1-0.1 0-0.3 0.1-0.3 0.2-0.1 0.3 0 0.4 0.1l0.4 0.9c0 0.1 0 0.2-0.2 0.3q-0.1 0.1-0.2 0zm-0.8-1.8q-0.1-0.1-0.1-0.1l-0.4-0.9c-0.1-0.1 0-0.3 0.1-0.3 0.1-0.1 0.3 0 0.3 0.1l0.4 0.9c0.1 0.1 0 0.2-0.1 0.3q-0.1 0.1-0.2 0zm-0.8-1.8q-0.1-0.1-0.1-0.1l-0.4-0.9c-0.1-0.1 0-0.3 0.1-0.3 0.1-0.1 0.3 0 0.3 0.1l0.4 0.9c0.1 0.1 0 0.2-0.1 0.3q-0.1 0.1-0.2 0zm-0.8-1.8q-0.1-0.1-0.1-0.1l-0.4-0.9c-0.1-0.1 0-0.3 0.1-0.3 0.1-0.1 0.3 0 0.3 0.1l0.4 0.9c0.1 0.1 0 0.2-0.1 0.3q-0.1 0.1-0.2 0z"/>
							<path id="&lt;Path&gt;" class="s1" d="m17.7 44.9c1.2 0.2 2.1 1.3 2 2.5-0.1 1.3-1.2 2.2-2.5 2.1-1.3-0.1-2.2-1.3-2-2.5 0.1-1.3 1.2-2.2 2.5-2.1z"/>
							<path id="&lt;Path&gt;" class="s1" d="m21.5 30.1c1.3 0.2 2.2 1.3 2.1 2.5-0.2 1.3-1.3 2.2-2.5 2.1-1.3-0.1-2.2-1.3-2.1-2.5 0.1-1.3 1.3-2.2 2.5-2.1z"/>
						</g>
						<g id="&lt;Group&gt;">
							<path id="&lt;Compound Path&gt;" class="s1" d="m17.2 47.5q-0.1-0.1-0.1-0.2l0.3-1c0-0.1 0.1-0.2 0.3-0.2 0.1 0.1 0.2 0.2 0.1 0.3l-0.2 1c-0.1 0.1-0.2 0.2-0.3 0.2q-0.1 0-0.1-0.1zm0.5-1.9q-0.1-0.1-0.1-0.2l0.2-1c0.1-0.1 0.2-0.2 0.3-0.2 0.2 0.1 0.3 0.2 0.2 0.3l-0.2 1c-0.1 0.1-0.2 0.2-0.3 0.2q-0.1 0-0.1-0.1zm0.5-1.9q-0.1-0.1-0.1-0.2l0.2-1c0.1-0.1 0.2-0.2 0.3-0.2 0.2 0.1 0.3 0.2 0.2 0.3l-0.2 1c-0.1 0.1-0.2 0.2-0.3 0.2q-0.1-0.1-0.1-0.1zm0.5-1.9q-0.1-0.1-0.1-0.3l0.2-0.9c0.1-0.1 0.2-0.2 0.3-0.2 0.2 0.1 0.2 0.2 0.2 0.3l-0.2 1c-0.1 0.1-0.2 0.2-0.3 0.1q-0.1 0-0.1 0zm0.5-1.9q-0.1-0.1-0.1-0.3l0.2-0.9c0.1-0.1 0.2-0.2 0.3-0.2 0.2 0 0.2 0.2 0.2 0.3l-0.2 1c-0.1 0.1-0.2 0.2-0.3 0.1q-0.1 0-0.1 0zm0.5-1.9q-0.2-0.1-0.1-0.3l0.2-0.9c0.1-0.2 0.2-0.2 0.3-0.2 0.2 0 0.2 0.2 0.2 0.3l-0.2 1c-0.1 0.1-0.2 0.2-0.3 0.1q-0.1 0-0.1 0zm0.5-1.9q-0.2-0.1-0.1-0.3l0.2-0.9c0.1-0.2 0.2-0.2 0.3-0.2 0.2 0 0.2 0.2 0.2 0.3l-0.2 0.9c-0.1 0.2-0.2 0.3-0.3 0.2q-0.1 0-0.1 0zm0.5-1.9q-0.2-0.1-0.1-0.3l0.2-0.9c0.1-0.2 0.2-0.3 0.3-0.2 0.1 0 0.2 0.1 0.2 0.3l-0.3 0.9c0 0.2-0.1 0.2-0.3 0.2q0 0 0 0z"/>
							<path id="&lt;Path&gt;" class="s1" d="m21.5 30.1c1.2 0.1 2.1 1.3 2 2.5-0.1 1.3-1.3 2.2-2.5 2.1-1.3-0.2-2.2-1.3-2.1-2.5 0.2-1.3 1.3-2.2 2.6-2.1z"/>
							<path id="&lt;Compound Path&gt;" class="s1" d="m22.5 32.1q-0.1 0-0.1-0.1c0-0.1 0-0.3 0.2-0.3l0.9-0.4c0.1 0 0.3 0.1 0.3 0.2 0 0.1 0 0.3-0.2 0.3l-0.9 0.3q-0.1 0.1-0.2 0zm1.9-0.6q-0.1-0.1-0.1-0.2c-0.1-0.1 0-0.2 0.1-0.3l0.9-0.3c0.2 0 0.3 0 0.4 0.1 0 0.2-0.1 0.3-0.2 0.4l-0.9 0.3q-0.1 0-0.2 0zm1.8-0.7q0 0-0.1-0.1c0-0.1 0-0.3 0.2-0.3l0.9-0.4c0.1 0 0.3 0.1 0.3 0.2 0.1 0.1 0 0.3-0.1 0.3l-1 0.3q-0.1 0.1-0.2 0zm1.9-0.6q-0.1-0.1-0.1-0.2c-0.1-0.1 0-0.2 0.1-0.3l1-0.3c0.1 0 0.2 0 0.3 0.2 0 0.1 0 0.2-0.2 0.3l-0.9 0.3q-0.1 0-0.2 0zm1.8-0.7q0 0 0-0.1c-0.1-0.1 0-0.3 0.1-0.3l0.3-0.1c0.1-0.1 0.3 0 0.3 0.1 0.1 0.2 0 0.3-0.1 0.3l-0.3 0.1q-0.2 0.1-0.3 0z"/>
							<path id="&lt;Path&gt;" class="s1" d="m30.6 26.9c1.3 0.2 2.2 1.3 2.1 2.5-0.2 1.3-1.3 2.2-2.5 2.1-1.3-0.1-2.2-1.3-2.1-2.5 0.1-1.3 1.3-2.2 2.5-2.1z"/>
							<path id="&lt;Path&gt;" class="s1" d="m17.6 44.9c1.2 0.1 2.2 1.2 2 2.5-0.1 1.3-1.2 2.2-2.5 2-1.2-0.1-2.1-1.2-2-2.5 0.1-1.2 1.2-2.1 2.5-2z"/>
							<path id="&lt;Compound Path&gt;" class="s1" d="m22.5 59.3q-0.1 0-0.1-0.1l-0.4-0.9c0-0.1 0-0.3 0.1-0.3 0.2-0.1 0.3 0 0.4 0.1l0.4 0.9c0 0.1 0 0.3-0.2 0.3q-0.1 0.1-0.2 0zm-0.8-1.8q-0.1 0-0.1-0.1l-0.4-0.9c-0.1-0.1 0-0.3 0.1-0.3 0.1-0.1 0.3 0 0.3 0.1l0.5 0.9c0 0.1 0 0.3-0.2 0.3q-0.1 0.1-0.2 0zm-0.8-1.8q-0.1 0-0.1-0.1l-0.4-0.9c-0.1-0.1 0-0.3 0.1-0.3 0.1-0.1 0.3 0 0.3 0.1l0.4 0.9c0.1 0.1 0 0.3-0.1 0.3q-0.1 0.1-0.2 0zm-0.8-1.8q-0.1 0-0.1-0.1l-0.4-0.9c-0.1-0.1 0-0.3 0.1-0.3 0.1-0.1 0.3 0 0.3 0.1l0.4 0.9c0.1 0.1 0 0.3-0.1 0.3q-0.1 0.1-0.2 0zm-0.8-1.8q-0.1 0-0.1-0.1l-0.4-0.9c-0.1-0.1 0-0.3 0.1-0.3 0.1-0.1 0.3 0 0.3 0.1l0.4 0.9c0.1 0.1 0 0.3-0.1 0.3q-0.1 0.1-0.2 0zm-0.9-1.8q0 0 0-0.1l-0.4-0.9c-0.1-0.1 0-0.3 0.1-0.3 0.1-0.1 0.3 0 0.3 0.1l0.4 0.9c0.1 0.1 0 0.3-0.1 0.3q-0.1 0.1-0.3 0zm-0.8-1.8q0 0 0-0.1c-0.1-0.2-0.1-0.3 0.1-0.4 0.1 0 0.2 0 0.3 0.2 0 0.1 0 0.3-0.1 0.3q-0.2 0.1-0.3 0z"/>
							<path id="&lt;Path&gt;" class="s1" d="m22.9 56.8c1.2 0.1 2.1 1.3 2 2.5-0.1 1.3-1.2 2.2-2.5 2.1-1.2-0.2-2.2-1.3-2-2.5 0.1-1.3 1.2-2.2 2.5-2.1z"/>
							<path id="&lt;Compound Path&gt;" class="s1" d="m23.6 58.9q-0.1 0-0.1-0.1c-0.1-0.1 0-0.3 0.1-0.3l0.7-0.2c0.1-0.1 0.2 0 0.3 0.1 0 0.1 0 0.3-0.2 0.3l-0.6 0.3q-0.1 0-0.2-0.1zm1.5-0.5q0-0.1 0-0.1c-0.1-0.2 0-0.3 0.1-0.4l0.9-0.3c0.2 0 0.3 0 0.4 0.2 0 0.1-0.1 0.2-0.2 0.3l-0.9 0.3q-0.2 0-0.3 0zm1.9-0.7q-0.1 0-0.1-0.1c0-0.1 0-0.3 0.2-0.3l0.9-0.3c0.1-0.1 0.3 0 0.3 0.1 0.1 0.2 0 0.3-0.1 0.3l-1 0.4q-0.1 0-0.2-0.1zm1.9-0.6q-0.1-0.1-0.1-0.1c-0.1-0.2 0-0.3 0.1-0.4l1-0.3c0.1 0 0.2 0 0.3 0.2 0 0.1 0 0.2-0.2 0.3l-0.9 0.3q-0.1 0.1-0.2 0zm1.8-0.7q0 0-0.1-0.1c0-0.1 0.1-0.3 0.2-0.3l0.9-0.3c0.2-0.1 0.3 0 0.3 0.1 0.1 0.2 0 0.3-0.1 0.3l-0.9 0.4q-0.2 0-0.3-0.1z"/>
							<path id="&lt;Compound Path&gt;" class="s1" d="m35.3 40.6q0 0-0.1-0.1l-0.4-0.9c0-0.1 0-0.2 0.1-0.3 0.2-0.1 0.3 0 0.4 0.1l0.4 0.9c0 0.1 0 0.3-0.2 0.4q-0.1 0-0.2-0.1zm-0.8-1.8q-0.1 0-0.1-0.1l-0.4-0.9c0-0.1 0-0.2 0.1-0.3 0.2-0.1 0.3 0 0.4 0.1l0.4 0.9c0 0.2 0 0.3-0.2 0.4q-0.1 0-0.2-0.1zm-0.8-1.8q-0.1 0-0.1-0.1l-0.4-0.9c-0.1-0.1 0-0.2 0.1-0.3 0.1-0.1 0.3 0 0.3 0.1l0.5 0.9c0 0.2 0 0.3-0.2 0.4q-0.1 0-0.2-0.1zm-0.8-1.8q-0.1 0-0.1-0.1l-0.4-0.9c-0.1-0.1 0-0.2 0.1-0.3 0.1 0 0.3 0 0.3 0.1l0.4 0.9c0.1 0.2 0 0.3-0.1 0.4q-0.1 0-0.2-0.1zm-0.8-1.8q-0.1 0-0.1-0.1l-0.4-0.9c-0.1-0.1 0-0.2 0.1-0.3 0.1 0 0.3 0 0.3 0.1l0.4 0.9c0.1 0.2 0 0.3-0.1 0.4q-0.1 0-0.2-0.1zm-0.8-1.8q-0.1 0-0.1-0.1l-0.4-0.9c-0.1-0.1 0-0.2 0.1-0.3 0.1 0 0.3 0 0.3 0.1l0.4 0.9c0.1 0.2 0 0.3-0.1 0.4q-0.1 0-0.2-0.1z"/>
							<path id="&lt;Path&gt;" class="s1" d="m32.1 53.5c1.2 0.1 2.1 1.2 2 2.5-0.1 1.2-1.2 2.2-2.5 2-1.3-0.1-2.2-1.2-2-2.5 0.1-1.2 1.2-2.1 2.5-2z"/>
							<path id="&lt;Compound Path&gt;" class="s1" d="m32.3 53.6q-0.1-0.1-0.1-0.3l0.3-0.9c0-0.2 0.1-0.3 0.3-0.2 0.1 0 0.2 0.2 0.2 0.3l-0.3 0.9c0 0.2-0.2 0.2-0.3 0.2q0 0-0.1 0zm0.5-1.9q-0.1-0.1-0.1-0.3l0.3-1c0-0.1 0.1-0.2 0.3-0.1 0.1 0 0.2 0.1 0.2 0.3l-0.3 0.9c0 0.2-0.2 0.2-0.3 0.2q0 0-0.1 0zm0.5-1.9q-0.1-0.1-0.1-0.3l0.3-1c0-0.1 0.1-0.2 0.3-0.1 0.1 0 0.2 0.1 0.1 0.3l-0.2 0.9c0 0.1-0.2 0.2-0.3 0.2q0 0-0.1 0zm0.5-2q-0.1-0.1-0.1-0.2l0.3-1c0-0.1 0.1-0.2 0.3-0.1 0.1 0 0.2 0.1 0.1 0.3l-0.2 0.9c0 0.1-0.2 0.2-0.3 0.2q0 0-0.1-0.1zm0.5-1.9q-0.1-0.1-0.1-0.2l0.3-1c0-0.1 0.1-0.2 0.3-0.2 0.1 0.1 0.2 0.2 0.1 0.3l-0.2 1c0 0.1-0.2 0.2-0.3 0.2q-0.1 0-0.1-0.1zm0.5-1.9q-0.1-0.1-0.1-0.2l0.3-1c0-0.1 0.1-0.2 0.3-0.2 0.1 0.1 0.2 0.2 0.1 0.3l-0.2 1c0 0.1-0.2 0.2-0.3 0.2q-0.1 0-0.1-0.1zm0.5-1.9q-0.1-0.1-0.1-0.2l0.3-1c0-0.1 0.1-0.2 0.3-0.2 0.1 0.1 0.2 0.2 0.1 0.3l-0.2 1c-0.1 0.1-0.2 0.2-0.3 0.2q-0.1-0.1-0.1-0.1z"/>
							<path id="&lt;Path&gt;" class="s1" d="m35.9 38.7c1.3 0.1 2.2 1.2 2.1 2.5-0.2 1.3-1.3 2.2-2.5 2-1.3-0.1-2.2-1.2-2.1-2.5 0.1-1.2 1.3-2.1 2.5-2z"/>
						</g>
					</g>
				</g>
				<path id="&lt;Path&gt;" class="s2" d="m126.4 21q-3.1-1.2-6.3-2c-6.5-1.6-13.4-1.6-19.9 0q-3.3 0.8-6.3 2c-5.1 2.1-9.8 5.2-13.9 9.3 8.3 8.4 19.2 12.5 30.1 12.5 11 0 21.9-4.1 30.2-12.5-4.1-4.1-8.8-7.2-13.9-9.3z"/>
				<g id="&lt;Group&gt;">
					<path id="&lt;Path&gt;" class="s3" d="m127.1 25.9c0 9.3-7.6 16.9-17 16.9-9.3 0-16.9-7.6-16.9-16.9q0-2.6 0.7-4.9 3-1.2 6.3-2c-1.4 2-2.2 4.3-2.2 6.9 0 6.7 5.5 12.1 12.1 12.1 6.7 0 12.2-5.4 12.2-12.1 0-2.6-0.8-4.9-2.2-6.9q3.2 0.8 6.3 2 0.7 2.3 0.7 4.9z"/>
					<g id="&lt;Group&gt;">
						<path id="&lt;Path&gt;" class="s1" d="m140.3 30.3c-8.3 8.4-19.2 12.5-30.2 12.5 9.4 0 17-7.6 17-16.9q0-2.6-0.7-4.9c5.1 2.1 9.8 5.2 13.9 9.3z"/>
						<path id="&lt;Path&gt;" class="s1" d="m110.1 42.8c-10.9 0-21.8-4.1-30.1-12.5 4.1-4.1 8.8-7.2 13.9-9.3q-0.7 2.3-0.7 4.9c0 9.3 7.6 16.9 16.9 16.9z"/>
						<path id="&lt;Path&gt;" class="s4" d="m122.3 25.9c0 6.7-5.5 12.1-12.2 12.1-6.6 0-12.1-5.4-12.1-12.1 0-2.6 0.8-4.9 2.2-6.9 6.5-1.6 13.4-1.6 19.9 0 1.4 2 2.2 4.3 2.2 6.9z"/>
					</g>
				</g>
			</g>
		</g>
	</g>
</svg>