<svg version="1.2" xmlns="http://www.w3.org/2000/svg" viewBox="0 0 104 76" width="104" height="76">
	<g id="Прогнозирование">
		<g id="-e-&lt;Group&gt;">
			<g id="&lt;Group&gt;">
				<g id="&lt;Group&gt;">
					<g id="&lt;Group&gt;">
						<path id="&lt;Path&gt;" fill="none" stroke="#f8104b" stroke-miterlimit="10" d="m45.2 36.2c-1.1-2-0.2-5 2.2-6.1 0.6-0.2 1.3-0.2 1.9-0.2 0.7 0 1.3 0.1 2 0.2q0.8 0.2 1.6 0.5c1.5 0.6 2.8 1.6 3.9 2.8 2.2 3 3.2 7.4 0.1 10.3-2.1 1.7-4.4 1.6-6.5 0.5q-1-0.5-1.9-1.4-0.9-0.8-1.5-1.8-0.7-1-1-2.2-0.4-1.1-0.8-2.6z"/>
						<path id="&lt;Path&gt;" fill="none" stroke="#fa6727" stroke-miterlimit="10" d="m40 35.4c-0.5-0.8-0.8-1.8-0.9-2.7 0-1 0.1-2 0.5-2.9 0.5-2 2.3-3.2 4.1-3.9q0.9-0.2 1.8-0.3 0.9-0.1 1.9-0.1 0.8 0 1.7 0.1 0.8 0.1 1.7 0.3 1 0.3 2 0.7c5.7 2.2 10.5 7.2 10.5 13.6 0.1 5.1-3.9 9.5-9.1 9.2q-0.7 0-1.5-0.1c-1.5-0.2-3-0.7-4.4-1.4q-1-0.6-1.9-1.3-0.7-0.5-1.2-1-0.6-0.6-1-1.2-0.5-0.9-1.1-1.8-0.5-0.9-1-1.8c-0.7-1.2-1.2-2.7-1.5-3.8q-0.3-0.8-0.6-1.6z"/>
						<path id="&lt;Path&gt;" fill="none" stroke="#f1c40f" stroke-miterlimit="10" d="m35.5 35.3q-1-1-1.4-2.2-0.5-1.2-0.6-2.4c-0.4-2.5 0.3-5 1.8-7 3.1-3.3 7.9-4 12.2-3.1q1.4 0.3 2.7 0.7c2.8 0.9 5.5 2.3 7.9 3.9q1 0.6 1.9 1.3c3.6 2.9 6.8 6.6 7.8 11.4q0.2 1 0.3 2.1c0.2 2.8-0.3 5.6-1.7 8.2q-0.6 1.2-1.4 2.3-0.6 0.7-1.4 1.4c-1.6 1.3-3.3 2-5.2 2.4-1.9 0.3-3.8 0.3-5.8 0q-1.3-0.1-2.5-0.5c-1.6-0.4-3.1-1.1-4.5-2.1q-1.1-0.7-2-1.5-1.1-0.9-1.9-2-0.8-1.1-1.5-2.3-0.5-1-1-2c-0.7-2.3-2.1-4.2-2.8-6.5q-0.5-1-0.9-2.1z"/>
						<path id="&lt;Path&gt;" fill="none" stroke="#7cbb3b" stroke-miterlimit="10" d="m31.5 35.2q-0.7-1.4-1.1-2.8c-1-3.8-2.1-8.3 0.3-12 3.2-4.8 9.8-4 15-4.2q1.4 0.1 2.9 0.3c4.7 0.7 9.3 2.7 13 5.9q1 0.8 2 1.8 0.9 1 1.8 2.1c4.1 5.1 7.9 11.4 7.8 17.9-0.1 2.1-0.6 4.3-1.7 6.4-1.9 5.4-7.2 8.5-12.7 8.8-1.9 0.1-3.8-0.1-5.6-0.3-1.8-0.3-3.6-0.7-5.3-1.1q-1.4-0.5-2.6-1.1c-1.7-0.9-3.2-2-4.5-3.5q-0.7-0.8-1.3-1.6c-0.7-1.1-1.4-2.4-1.9-3.6q-0.4-0.8-0.7-1.6c-1.1-3.3-2.9-6.4-4.4-9.5q-0.5-0.9-1-1.9z"/>
						<path id="&lt;Path&gt;" fill="none" stroke="#2dcc70" stroke-miterlimit="10" d="m27.5 36.6q-0.9-1.3-1.3-2.7c-0.3-1-0.5-1.9-0.7-2.9-1-5.6-3.1-13.8 3.7-16.7 5-2.2 10-2.7 15.3-3q1.6 0 3.2 0.2c4.2 0.4 8.3 1.8 12 4q2.1 1.2 4 2.8 1 0.7 1.9 1.6 0.9 0.8 1.7 1.7c7.5 7.1 13 16.8 10.5 26.6q-0.7 3-2.5 5.9c-2.2 7.3-10.3 11.5-17.6 11.2-2.1 0-4.3-0.2-6.3-0.7-2.1-0.4-4-1-5.8-1.7q-1.4-0.7-2.8-1.5c-1.7-1-3.4-2.3-4.8-3.6q-0.9-1.2-1.6-2.5c-1.1-2-1.9-4-2.6-6.1q-0.3-1.1-0.7-2.1c-0.6-3.4-2.6-6.1-4.5-8.8q-0.6-0.8-1.1-1.7z"/>
					</g>
					<g id="&lt;Group&gt;">
						<g id="&lt;Group&gt;">
							<path id="&lt;Compound Path&gt;" fill="#a6dae8" d="m19.7 75.9h-1.3v-2.6h1.3zm0-5.2h-1.3v-2.6h1.3zm0-5.3h-1.3v-2.6h1.3zm0-5.2h-1.3v-2.6h1.3zm0-5.2h-1.3v-2.6h1.3zm0-5.2h-1.3v-2.7h1.3zm0-5.2h-1.3v-2.6h1.3zm0-5.2h-1.3v-2.6h1.3zm0-5.2h-1.3v-2.7h1.3zm0-5.2h-1.3v-2.6h1.3zm0-5.2h-1.3v-2.6h1.3zm0-5.2h-1.3v-2.6h1.3zm0-5.3h-1.3v-2.6h1.3zm0-5.2h-1.3v-2.6h1.3zm0-5.2h-1.3v-2.6h1.3z"/>
						</g>
						<g id="&lt;Group&gt;">
							<path id="&lt;Compound Path&gt;" fill="#a6dae8" d="m87.6 75.8h-1.3v-2.6h1.3zm0-5.2h-1.3v-2.6h1.3zm0-5.3h-1.3v-2.6h1.3zm0-5.2h-1.3v-2.6h1.3zm0-5.2h-1.3v-2.6h1.3zm0-5.3h-1.3v-2.6h1.3zm0-5.2h-1.3v-2.6h1.3zm0-5.2h-1.3v-2.6h1.3zm0-5.3h-1.3v-2.6h1.3zm0-5.2h-1.3v-2.6h1.3zm0-5.2h-1.3v-2.6h1.3zm0-5.3h-1.3v-2.6h1.3zm0-5.2h-1.3v-2.6h1.3zm0-5.2h-1.3v-2.6h1.3zm0-5.2h-1.3v-2.7h1.3z"/>
						</g>
						<g id="&lt;Group&gt;">
							<path id="&lt;Compound Path&gt;" fill="#a6dae8" d="m90.8 4.7h-2.6v-1.3h2.6zm-5.2 0h-2.7v-1.3h2.7zm-5.3 0h-2.6v-1.3h2.6zm-5.2 0h-2.6v-1.3h2.6zm-5.2 0h-2.6v-1.3h2.6zm-5.2 0h-2.6v-1.3h2.6zm-5.3 0h-2.6v-1.3h2.6zm-5.2 0h-2.6v-1.4h2.6zm-5.2 0h-2.6v-1.3h2.6zm-5.2 0h-2.6v-1.3h2.6zm-5.2 0h-2.7v-1.3h2.7zm-5.3 0h-2.6v-1.3h2.6zm-5.2 0h-2.6v-1.3h2.6zm-5.2 0h-2.6v-1.3h2.6zm-5.2 0h-2.6v-1.3h2.6z"/>
						</g>
						<g id="&lt;Group&gt;">
							<path id="&lt;Compound Path&gt;" fill="#a6dae8" d="m90.8 72.8h-2.6v-1.3h2.6zm-5.2 0h-2.6v-1.4h2.6zm-5.2 0h-2.6v-1.3h2.6zm-5.2 0h-2.6v-1.3h2.6zm-5.3 0h-2.6v-1.3h2.6zm-5.2 0h-2.6v-1.3h2.6zm-5.2 0h-2.6v-1.3h2.6zm-5.2 0h-2.6v-1.3h2.6zm-5.2 0h-2.7v-1.3h2.7zm-5.3 0h-2.6v-1.3h2.6zm-5.2 0h-2.6v-1.3h2.6zm-5.2 0h-2.6v-1.3h2.6zm-5.2 0h-2.6v-1.3h2.6zm-5.2 0h-2.7v-1.3h2.7zm-5.3 0h-2.6v-1.3h2.6z"/>
						</g>
					</g>
				</g>
				<g id="&lt;Group&gt;">
					<path id="&lt;Path&gt;" fill="none" stroke="#ecf7fe" stroke-miterlimit="10" d="m99.9 18.3l0.1 5.9"/>
					<path id="&lt;Path&gt;" fill="#ecf7fe" d="m99.8 13.1l-3.6 6.5 7.5-0.1z"/>
				</g>
				<g id="&lt;Group&gt;">
					<path id="&lt;Path&gt;" fill="none" stroke="#ecf7fe" stroke-miterlimit="10" d="m99.3 37.1l0.1 5.9"/>
					<path id="&lt;Path&gt;" fill="#ecf7fe" d="m99.2 31.8l-3.6 6.5 7.4-0.1z"/>
				</g>
				<g id="&lt;Group&gt;">
					<path id="&lt;Path&gt;" fill="none" stroke="#ecf7fe" stroke-miterlimit="10" d="m98.6 57.6l0.1 5.9"/>
					<path id="&lt;Path&gt;" fill="#ecf7fe" d="m98.6 52.4l-3.7 6.5 7.5-0.1z"/>
				</g>
				<g id="&lt;Group&gt;">
					<path id="&lt;Path&gt;" fill="none" stroke="#ecf7fe" stroke-miterlimit="10" d="m3.9 58.3l-0.1-5.9"/>
					<path id="&lt;Path&gt;" fill="#ecf7fe" d="m4 63.5l3.6-6.5-7.5 0.1z"/>
				</g>
				<g id="&lt;Group&gt;">
					<path id="&lt;Path&gt;" fill="none" stroke="#ecf7fe" stroke-miterlimit="10" d="m4.5 39.5v-5.9"/>
					<path id="&lt;Path&gt;" fill="#ecf7fe" d="m4.6 44.8l3.7-6.5-7.5 0.1z"/>
				</g>
				<g id="&lt;Group&gt;">
					<path id="&lt;Path&gt;" fill="none" stroke="#ecf7fe" stroke-miterlimit="10" d="m5.2 19l-0.1-5.9"/>
					<path id="&lt;Path&gt;" fill="#ecf7fe" d="m5.3 24.2l3.6-6.5-7.5 0.1z"/>
				</g>
			</g>
		</g>
	</g>
</svg>