<svg version="1.2" xmlns="http://www.w3.org/2000/svg" viewBox="0 0 143 97" width="143" height="97">
	<title>Улучшение покрытия спутников</title>
	<style>
		.s2 { fill: none;stroke: #ffffff;stroke-linecap: round;stroke-linejoin: round;stroke-width: .7;stroke-dasharray: 4.48161356131899 } 
	</style>
	<g id="Улучшение покрытия спутников">
		<g id="-e-&lt;Group&gt;">
			<g id="&lt;Group&gt;">
				<g id="&lt;Group&gt;">
					<g id="&lt;Group&gt;">
						<g id="&lt;Group&gt;">
							<path id="&lt;Path&gt;" fill="#1d7372" stroke="#ffffff" stroke-linecap="round" stroke-linejoin="round" stroke-width="0.7" d="m93.4 65.5c0 5.3-1.9 10.1-4.9 13.9-4.1 5-10.3 8.2-17.3 8.2-6.9 0-13.1-3.2-17.2-8.2-3-3.8-4.9-8.6-4.9-13.9 0-5.3 1.9-10.1 4.9-13.9 4.1-5 10.3-8.2 17.2-8.2 7 0 13.2 3.2 17.3 8.2 3 3.8 4.9 8.6 4.9 13.9z"/>
							<path id="&lt;Path&gt;" fill="none" stroke="#ffffff" stroke-linecap="round" stroke-linejoin="round" stroke-width="0.7" d="m81.9 65.5c0 12.2-4.8 22.1-10.7 22.1-5.8 0-10.6-9.9-10.6-22.1 0-12.2 4.8-22.1 10.6-22.1 5.9 0 10.7 9.9 10.7 22.1z"/>
							<path id="&lt;Path&gt;" fill="none" stroke="#ffffff" stroke-linecap="round" stroke-linejoin="round" stroke-width="0.7" d="m88.5 51.6c-2.1 1.6-4.8 2.8-7.8 3.6-2.9 0.9-6.1 1.3-9.5 1.3-3.3 0-6.5-0.4-9.4-1.3-3-0.8-5.7-2-7.8-3.6 4.1-5 10.3-8.2 17.2-8.2 7 0 13.2 3.2 17.3 8.2z"/>
							<path id="&lt;Path&gt;" fill="none" stroke="#ffffff" stroke-linecap="round" stroke-linejoin="round" stroke-width="0.7" d="m88.5 79.4c-4.1 5-10.3 8.2-17.3 8.2-6.9 0-13.1-3.2-17.2-8.2 2.1-1.5 4.8-2.8 7.8-3.6 2.9-0.8 6.1-1.3 9.4-1.3 3.4 0 6.6 0.5 9.5 1.3 3 0.8 5.7 2.1 7.8 3.6z"/>
							<path id="&lt;Path&gt;" fill="none" stroke="#ffffff" stroke-linecap="round" stroke-linejoin="round" stroke-width="0.7" d="m49.1 65.5h44.3"/>
						</g>
						<path id="&lt;Path&gt;" fill="none" stroke="#ffffff" stroke-linecap="round" stroke-linejoin="round" stroke-width="0.7" stroke-dasharray="4.48" d="m101.4 65.5c0 7.2-2.5 13.7-6.7 18.9-5.5 6.9-14 11.2-23.5 11.2-9.4 0-17.9-4.3-23.4-11.2-4.2-5.2-6.7-11.7-6.7-18.9 0-7.2 2.5-13.7 6.7-18.9 5.5-6.8 14-11.2 23.4-11.2 9.5 0 18 4.4 23.5 11.2 4.2 5.2 6.7 11.7 6.7 18.9z"/>
					</g>
					<g id="&lt;Group&gt;">
						<g id="&lt;Group&gt;">
							<path id="&lt;Path&gt;" fill="#1d7372" stroke="#ffffff" stroke-linecap="round" stroke-linejoin="round" stroke-width="0.7" d="m125.9 70.5c-1.4 0-2.5-1.1-2.5-2.5 0-1.4 1.1-2.5 2.5-2.5 1.4 0 2.5 1.1 2.5 2.5 0 1.4-1.1 2.5-2.5 2.5z"/>
							<g id="&lt;Group&gt;">
								<path id="&lt;Path&gt;" fill="#1d7372" stroke="#ffffff" stroke-linecap="round" stroke-linejoin="round" stroke-width="0.7" d="m141.5 70.5v-5h-10.7v5z"/>
								<path id="&lt;Path&gt;" fill="#1d7372" stroke="#ffffff" stroke-linecap="round" stroke-linejoin="round" stroke-width="0.7" d="m141.5 68h-13.1"/>
								<g id="&lt;Group&gt;">
									<path id="&lt;Path&gt;" fill="#1d7372" stroke="#ffffff" stroke-linecap="round" stroke-linejoin="round" stroke-width="0.7" d="m138.8 65.5v5"/>
									<path id="&lt;Path&gt;" fill="#1d7372" stroke="#ffffff" stroke-linecap="round" stroke-linejoin="round" stroke-width="0.7" d="m136.1 65.5v5"/>
									<path id="&lt;Path&gt;" fill="#1d7372" stroke="#ffffff" stroke-linecap="round" stroke-linejoin="round" stroke-width="0.7" d="m133.5 65.5v5"/>
								</g>
							</g>
							<g id="&lt;Group&gt;">
								<path id="&lt;Path&gt;" fill="#1d7372" stroke="#ffffff" stroke-linecap="round" stroke-linejoin="round" stroke-width="0.7" d="m110.3 70.5v-5h10.7v5z"/>
								<path id="&lt;Path&gt;" fill="#1d7372" stroke="#ffffff" stroke-linecap="round" stroke-linejoin="round" stroke-width="0.7" d="m110.3 68h13.1"/>
								<g id="&lt;Group&gt;">
									<path id="&lt;Path&gt;" fill="#1d7372" stroke="#ffffff" stroke-linecap="round" stroke-linejoin="round" stroke-width="0.7" d="m113 65.5v5"/>
									<path id="&lt;Path&gt;" fill="#1d7372" stroke="#ffffff" stroke-linecap="round" stroke-linejoin="round" stroke-width="0.7" d="m115.7 65.5v5"/>
									<path id="&lt;Path&gt;" fill="#1d7372" stroke="#ffffff" stroke-linecap="round" stroke-linejoin="round" stroke-width="0.7" d="m118.3 65.5v5"/>
								</g>
							</g>
						</g>
						<g id="&lt;Group&gt;">
							<path id="&lt;Path&gt;" fill="#1d7372" stroke="#ffffff" stroke-linecap="round" stroke-linejoin="round" stroke-width="0.7" d="m111.8 31.1c-0.9 0.9-2.5 0.9-3.5 0-1-1-1-2.6 0-3.6 1-1 2.6-1 3.5 0 1 1 1 2.6 0 3.6z"/>
							<g id="&lt;Group&gt;">
								<path id="&lt;Path&gt;" fill="#1d7372" stroke="#ffffff" stroke-linecap="round" stroke-linejoin="round" stroke-width="0.7" d="m122.9 20l-3.6-3.5-7.6 7.6 3.6 3.5z"/>
								<path id="&lt;Path&gt;" fill="#1d7372" stroke="#ffffff" stroke-linecap="round" stroke-linejoin="round" stroke-width="0.7" d="m121.1 18.3l-9.3 9.2"/>
								<g id="&lt;Group&gt;">
									<path id="&lt;Path&gt;" fill="#1d7372" stroke="#ffffff" stroke-linecap="round" stroke-linejoin="round" stroke-width="0.7" d="m117.4 18.4l3.5 3.6"/>
									<path id="&lt;Path&gt;" fill="#1d7372" stroke="#ffffff" stroke-linecap="round" stroke-linejoin="round" stroke-width="0.7" d="m115.5 20.3l3.6 3.5"/>
									<path id="&lt;Path&gt;" fill="#1d7372" stroke="#ffffff" stroke-linecap="round" stroke-linejoin="round" stroke-width="0.7" d="m113.6 22.2l3.6 3.5"/>
								</g>
							</g>
							<g id="&lt;Group&gt;">
								<path id="&lt;Path&gt;" fill="#1d7372" stroke="#ffffff" stroke-linecap="round" stroke-linejoin="round" stroke-width="0.7" d="m100.8 42.1l-3.5-3.6 7.5-7.5 3.6 3.5z"/>
								<path id="&lt;Path&gt;" fill="#1d7372" stroke="#ffffff" stroke-linecap="round" stroke-linejoin="round" stroke-width="0.7" d="m99 40.3l9.3-9.2"/>
								<g id="&lt;Group&gt;">
									<path id="&lt;Path&gt;" fill="#1d7372" stroke="#ffffff" stroke-linecap="round" stroke-linejoin="round" stroke-width="0.7" d="m99.2 36.6l3.5 3.6"/>
									<path id="&lt;Path&gt;" fill="#1d7372" stroke="#ffffff" stroke-linecap="round" stroke-linejoin="round" stroke-width="0.7" d="m101.1 34.8l3.5 3.5"/>
									<path id="&lt;Path&gt;" fill="#1d7372" stroke="#ffffff" stroke-linecap="round" stroke-linejoin="round" stroke-width="0.7" d="m102.9 32.9l3.6 3.5"/>
								</g>
							</g>
						</g>
						<g id="&lt;Group&gt;">
							<path id="&lt;Path&gt;" fill="#1d7372" stroke="#ffffff" stroke-linecap="round" stroke-linejoin="round" stroke-width="0.7" d="m73.3 14.9c-1 1-2.6 1-3.6 0-1-1-1-2.6 0-3.6 1-0.9 2.6-0.9 3.6 0 0.9 1 0.9 2.6 0 3.6z"/>
							<g id="&lt;Group&gt;">
								<path id="&lt;Path&gt;" fill="#1d7372" stroke="#ffffff" stroke-linecap="round" stroke-linejoin="round" stroke-width="0.7" d="m84.3 3.9l-3.6-3.6-7.5 7.6 3.5 3.5z"/>
								<path id="&lt;Path&gt;" fill="#1d7372" stroke="#ffffff" stroke-linecap="round" stroke-linejoin="round" stroke-width="0.7" d="m82.5 2.1l-9.2 9.2"/>
								<g id="&lt;Group&gt;">
									<path id="&lt;Path&gt;" fill="#1d7372" stroke="#ffffff" stroke-linecap="round" stroke-linejoin="round" stroke-width="0.7" d="m78.8 2.2l3.6 3.6"/>
									<path id="&lt;Path&gt;" fill="#1d7372" stroke="#ffffff" stroke-linecap="round" stroke-linejoin="round" stroke-width="0.7" d="m76.9 4.1l3.6 3.6"/>
									<path id="&lt;Path&gt;" fill="#1d7372" stroke="#ffffff" stroke-linecap="round" stroke-linejoin="round" stroke-width="0.7" d="m75.1 6l3.5 3.5"/>
								</g>
							</g>
							<g id="&lt;Group&gt;">
								<path id="&lt;Path&gt;" fill="#1d7372" stroke="#ffffff" stroke-linecap="round" stroke-linejoin="round" stroke-width="0.7" d="m62.2 25.9l-3.5-3.5 7.6-7.6 3.5 3.5z"/>
								<path id="&lt;Path&gt;" fill="#1d7372" stroke="#ffffff" stroke-linecap="round" stroke-linejoin="round" stroke-width="0.7" d="m60.5 24.1l9.2-9.2"/>
								<g id="&lt;Group&gt;">
									<path id="&lt;Path&gt;" fill="#1d7372" stroke="#ffffff" stroke-linecap="round" stroke-linejoin="round" stroke-width="0.7" d="m60.6 20.5l3.5 3.5"/>
									<path id="&lt;Path&gt;" fill="#1d7372" stroke="#ffffff" stroke-linecap="round" stroke-linejoin="round" stroke-width="0.7" d="m62.5 18.6l3.5 3.5"/>
									<path id="&lt;Path&gt;" fill="#1d7372" stroke="#ffffff" stroke-linecap="round" stroke-linejoin="round" stroke-width="0.7" d="m64.3 16.7l3.6 3.5"/>
								</g>
							</g>
						</g>
						<g id="&lt;Group&gt;">
							<path id="&lt;Path&gt;" fill="#1d7372" stroke="#ffffff" stroke-linecap="round" stroke-linejoin="round" stroke-width="0.7" d="m34.5 27.2c1 1 1 2.6 0 3.5-0.9 1-2.5 1-3.5 0-1-0.9-1-2.5 0-3.5 1-1 2.6-1 3.5 0z"/>
							<g id="&lt;Group&gt;">
								<path id="&lt;Path&gt;" fill="#1d7372" stroke="#ffffff" stroke-linecap="round" stroke-linejoin="round" stroke-width="0.7" d="m23.5 16.2l-3.5 3.5 7.5 7.6 3.6-3.6z"/>
								<path id="&lt;Path&gt;" fill="#1d7372" stroke="#ffffff" stroke-linecap="round" stroke-linejoin="round" stroke-width="0.7" d="m21.7 17.9l9.3 9.3"/>
								<g id="&lt;Group&gt;">
									<path id="&lt;Path&gt;" fill="#1d7372" stroke="#ffffff" stroke-linecap="round" stroke-linejoin="round" stroke-width="0.7" d="m21.9 21.6l3.5-3.5"/>
									<path id="&lt;Path&gt;" fill="#1d7372" stroke="#ffffff" stroke-linecap="round" stroke-linejoin="round" stroke-width="0.7" d="m23.8 23.5l3.5-3.5"/>
									<path id="&lt;Path&gt;" fill="#1d7372" stroke="#ffffff" stroke-linecap="round" stroke-linejoin="round" stroke-width="0.7" d="m25.6 25.4l3.6-3.6"/>
								</g>
							</g>
							<g id="&lt;Group&gt;">
								<path id="&lt;Path&gt;" fill="#1d7372" stroke="#ffffff" stroke-linecap="round" stroke-linejoin="round" stroke-width="0.7" d="m45.6 38.2l-3.6 3.6-7.6-7.6 3.6-3.6z"/>
								<path id="&lt;Path&gt;" fill="#1d7372" stroke="#ffffff" stroke-linecap="round" stroke-linejoin="round" stroke-width="0.7" d="m43.8 40l-9.3-9.3"/>
								<g id="&lt;Group&gt;">
									<path id="&lt;Path&gt;" fill="#1d7372" stroke="#ffffff" stroke-linecap="round" stroke-linejoin="round" stroke-width="0.7" d="m40.1 39.8l3.5-3.5"/>
									<path id="&lt;Path&gt;" fill="#1d7372" stroke="#ffffff" stroke-linecap="round" stroke-linejoin="round" stroke-width="0.7" d="m38.2 38l3.6-3.6"/>
									<path id="&lt;Path&gt;" fill="#1d7372" stroke="#ffffff" stroke-linecap="round" stroke-linejoin="round" stroke-width="0.7" d="m36.3 36.1l3.6-3.6"/>
								</g>
							</g>
						</g>
						<g id="&lt;Group&gt;">
							<path id="&lt;Path&gt;" fill="#1d7372" stroke="#ffffff" stroke-linecap="round" stroke-linejoin="round" stroke-width="0.7" d="m16.6 65c1.4 0 2.5 1.2 2.5 2.5 0 1.4-1.1 2.5-2.5 2.5-1.4 0-2.5-1.1-2.5-2.5 0-1.3 1.1-2.5 2.5-2.5z"/>
							<g id="&lt;Group&gt;">
								<path id="&lt;Path&gt;" fill="#1d7372" stroke="#ffffff" stroke-linecap="round" stroke-linejoin="round" stroke-width="0.7" d="m1 65v5h10.7v-5z"/>
								<path id="&lt;Path&gt;" fill="#1d7372" stroke="#ffffff" stroke-linecap="round" stroke-linejoin="round" stroke-width="0.7" d="m1 67.5h13.1"/>
								<g id="&lt;Group&gt;">
									<path id="&lt;Path&gt;" fill="#1d7372" stroke="#ffffff" stroke-linecap="round" stroke-linejoin="round" stroke-width="0.7" d="m3.7 70v-5"/>
									<path id="&lt;Path&gt;" fill="#1d7372" stroke="#ffffff" stroke-linecap="round" stroke-linejoin="round" stroke-width="0.7" d="m6.4 70v-5"/>
									<path id="&lt;Path&gt;" fill="#1d7372" stroke="#ffffff" stroke-linecap="round" stroke-linejoin="round" stroke-width="0.7" d="m9 70v-5"/>
								</g>
							</g>
							<g id="&lt;Group&gt;">
								<path id="&lt;Path&gt;" fill="#1d7372" stroke="#ffffff" stroke-linecap="round" stroke-linejoin="round" stroke-width="0.7" d="m32.2 65v5h-10.7v-5z"/>
								<path id="&lt;Path&gt;" fill="#1d7372" stroke="#ffffff" stroke-linecap="round" stroke-linejoin="round" stroke-width="0.7" d="m32.2 67.5h-13.1"/>
								<g id="&lt;Group&gt;">
									<path id="&lt;Path&gt;" fill="#1d7372" stroke="#ffffff" stroke-linecap="round" stroke-linejoin="round" stroke-width="0.7" d="m29.5 70v-5"/>
									<path id="&lt;Path&gt;" fill="#1d7372" stroke="#ffffff" stroke-linecap="round" stroke-linejoin="round" stroke-width="0.7" d="m26.8 70v-5"/>
									<path id="&lt;Path&gt;" fill="#1d7372" stroke="#ffffff" stroke-linecap="round" stroke-linejoin="round" stroke-width="0.7" d="m24.2 70v-5"/>
								</g>
							</g>
						</g>
					</g>
				</g>
			</g>
		</g>
	</g>
</svg>