<svg id="_Слой_2" data-name="Слой 2" xmlns="http://www.w3.org/2000/svg" viewBox="0 0 69.09 69.09">
  <defs>
    <style>
      .cls-1 {
        fill: none;
      }

      .cls-1, .cls-2, .cls-3, .cls-4 {
        stroke: #fff;
        stroke-linecap: round;
      }

      .cls-1, .cls-4 {
        stroke-linejoin: round;
      }

      .cls-2 {
        fill: #403f4d;
      }

      .cls-2, .cls-3 {
        stroke-miterlimit: 10;
      }

      .cls-3, .cls-4 {
        fill: #7cbb3b;
      }
    </style>
  </defs>
  <g id="_предсказание" data-name="предсказание">
    <g>
      <g>
        <line fill="none" stroke="#fff" stroke-linecap="round" stroke-linejoin="round" x1="34.54" y1="13.22" x2="34.54" y2=".5"/>
        <line fill="none" stroke="#fff" stroke-linecap="round" stroke-linejoin="round" x1="30.57" y1=".5" x2="38.52" y2=".5"/>
      </g>
      <g>
        <line fill="none" stroke="#fff" stroke-linecap="round" stroke-linejoin="round" x1="19.46" y1="19.46" x2="10.47" y2="10.47"/>
        <line fill="none" stroke="#fff" stroke-linecap="round" stroke-linejoin="round" x1="7.66" y1="13.28" x2="13.28" y2="7.66"/>
      </g>
      <g>
        <line fill="none" stroke="#fff" stroke-linecap="round" stroke-linejoin="round" x1="13.22" y1="34.54" x2=".5" y2="34.54"/>
        <line fill="none" stroke="#fff" stroke-linecap="round" stroke-linejoin="round" x1=".5" y1="38.51" x2=".5" y2="30.57"/>
      </g>
      <g>
        <line fill="none" stroke="#fff" stroke-linecap="round" stroke-linejoin="round" x1="19.46" y1="49.62" x2="10.47" y2="58.61"/>
        <line fill="none" stroke="#fff" stroke-linecap="round" stroke-linejoin="round" x1="13.28" y1="61.42" x2="7.66" y2="55.81"/>
      </g>
      <g>
        <line fill="none" stroke="#fff" stroke-linecap="round" stroke-linejoin="round" x1="34.54" y1="55.87" x2="34.54" y2="68.59"/>
        <line fill="none" stroke="#fff" stroke-linecap="round" stroke-linejoin="round" x1="38.51" y1="68.59" x2="30.57" y2="68.59"/>
      </g>
      <g>
        <line fill="none" stroke="#fff" stroke-linecap="round" stroke-linejoin="round" x1="49.62" y1="49.62" x2="58.61" y2="58.62"/>
        <line fill="none" stroke="#fff" stroke-linecap="round" stroke-linejoin="round" x1="61.42" y1="55.81" x2="55.81" y2="61.42"/>
      </g>
      <g>
        <line fill="none" stroke="#fff" stroke-linecap="round" stroke-linejoin="round" x1="55.87" y1="34.54" x2="68.59" y2="34.54"/>
        <line fill="none" stroke="#fff" stroke-linecap="round" stroke-linejoin="round" x1="68.59" y1="30.57" x2="68.59" y2="38.52"/>
      </g>
      <g>
        <line fill="none" stroke="#fff" stroke-linecap="round" stroke-linejoin="round" x1="49.62" y1="19.46" x2="58.62" y2="10.47"/>
        <line fill="none" stroke="#fff" stroke-linecap="round" stroke-linejoin="round" x1="55.81" y1="7.66" x2="61.42" y2="13.28"/>
      </g>
      <path class="cls-2" fill="#403f4d" stroke-miterlimit="10" stroke="#fff" stroke-linecap="round" d="m55.86,35.23c-.37,11.46-9.77,20.64-21.32,20.64-2.75,0-5.38-.53-7.8-1.47l.03-.09-4.84-4.84h7.14l-8.18-8.19h6.39l3.15,3.16h7.15l1.01,1.01h6.09l-3.1-3.1h-3.8l-10.76-10.77h-13.59c1.04-7.54,6.03-13.82,12.81-16.69,2.56-1.08,5.36-1.67,8.3-1.67,7.55,0,14.17,3.91,17.96,9.82h-21.23l4.34,4.34h4.02l3.63,3.64h5.43l4.21,4.21h2.96Z"/>
      <path class="cls-3" fill="#7cbb3b" stroke-miterlimit="10" stroke-linecap="round" stroke-linejoin="round" d="m55.87,34.54c0,.22,0,.43-.01.65v.04h-2.95l-4.21-4.21h-5.43l-3.63-3.64h-4.02l-4.34-4.34h21.24c2.13,3.32,3.36,7.27,3.36,11.5Z"/>
      <path class="cls-4" stroke="#7cbb3b" stroke-linecap="round" stroke-linejoin="round" d="m39.13,19.31s-.96,0-2.01,0c-1.28,0-2.69,0-2.69,0l-2.38-2.38s-.01-.01-.03-.03h4.71s2.29,2.29,2.4,2.4Z"/>
      <path class="cls-4" stroke="#7cbb3b" stroke-linecap="round" stroke-linejoin="round" d="m44.68,45.45h-6.1l-1.01-1.01h-7.14l-3.15-3.15h-6.39l8.19,8.19h-7.14l4.84,4.84-.03.08c-7.91-3.12-13.52-10.83-13.52-19.85,0-1,.07-1.99.21-2.96h13.59l10.76,10.77h3.8l3.1,3.1Z"/>
    </g>
  </g>
</svg>