<svg version="1.2" xmlns="http://www.w3.org/2000/svg" viewBox="0 0 94 60" width="94" height="60">
	<title>ии</title>
	<style>
		.s0 { fill: none;stroke: #ffffff;stroke-miterlimit:10 } 
		.s1 { fill: #2c92e5;stroke: #ffffff;stroke-miterlimit:10 } 
		.s2 { fill: none;stroke: #ffffff;stroke-linecap: round;stroke-linejoin: round } 
		.s3 { fill: #403f4d;stroke: #ffffff;stroke-miterlimit:10 } 
	</style>
	<g id="ии">
		<g id="-e-&lt;Group&gt;">
			<g id="&lt;Group&gt;">
				<g id="&lt;Group&gt;">
					<path id="&lt;Path&gt;" class="s0" d="m35.3 24.2h-12.5l-3.6-3.6h-6.5"/>
					<path id="&lt;Path&gt;" class="s0" d="m12.7 20.5c0-1.2-1-2.2-2.2-2.2-1.2 0-2.1 1-2.1 2.2 0 1.2 1 2.2 2.2 2.2 1.2 0 2.1-1 2.1-2.2z"/>
				</g>
				<g id="&lt;Group&gt;">
					<g id="&lt;Group&gt;">
						<path id="&lt;Path&gt;" class="s0" d="m40.1 50.8h-19.7l-4.6 4.6h-8.6"/>
						<path id="&lt;Path&gt;" class="s0" d="m5.1 57.6c1.2 0 2.2-1 2.1-2.2 0-1.2-0.9-2.2-2.1-2.2-1.3 0-2.2 1-2.2 2.2 0 1.2 1 2.2 2.2 2.2z"/>
					</g>
				</g>
				<g id="&lt;Group&gt;">
					<path id="&lt;Path&gt;" class="s0" d="m35.3 42.4h-11.1l-4.6 1.7-10.2-0.2"/>
					<path id="&lt;Path&gt;" class="s0" d="m7.3 46.3c1.2 0 2.1-1 2.1-2.2 0-1.2-1-2.2-2.2-2.2-1.2 0-2.1 1-2.1 2.2 0 1.2 1 2.2 2.2 2.2z"/>
					<g id="&lt;Group&gt;">
						<path id="&lt;Path&gt;" class="s0" d="m35.3 30.8h-3l-4.6 4.6h-8.6"/>
						<path id="&lt;Path&gt;" class="s0" d="m17.1 37.6c1.2 0 2.2-1 2.2-2.2 0-1.2-1-2.1-2.2-2.1-1.2 0-2.2 1-2.1 2.2 0 1.2 0.9 2.1 2.1 2.1z"/>
					</g>
				</g>
				<g id="&lt;Group&gt;">
					<path id="&lt;Path&gt;" class="s0" d="m35.3 13.6h-20.2l-3.6-3.6h-6.4"/>
					<path id="&lt;Path&gt;" class="s0" d="m5.1 9.9c0-1.3-1-2.2-2.2-2.2-1.2 0-2.2 1-2.2 2.2 0 1.2 1 2.2 2.2 2.1 1.2 0 2.2-0.9 2.2-2.1z"/>
				</g>
			</g>
			<g id="&lt;Group&gt;">
				<path id="&lt;Path&gt;" class="s1" d="m85.2 58.7h-41.9c-4.5 0-8-3.6-8-8v-41.9c0-4.4 3.5-8 8-8h41.9c4.4 0 8 3.6 8 8v41.9c0 4.4-3.6 8-8 8z"/>
				<g id="&lt;Group&gt;">
					<g id="&lt;Group&gt;">
						<path id="&lt;Path&gt;" class="s2" d="m81.8 17.1v2.5 2.6l2.5 2.5v17.7h-5v-17.7h5"/>
						<path id="&lt;Path&gt;" class="s2" d="m79.3 42.4l-17.7-30.3-17.7 30.3h-8.6"/>
						<path id="&lt;Path&gt;" class="s2" d="m69.2 29.7h-22.8l-3.3 3.4"/>
						<path id="&lt;Path&gt;" class="s2" d="m46.4 42.4l15.2-25.3 15.1 25.3"/>
						<path id="&lt;Path&gt;" class="s2" d="m67.9 32.3l6.3 10.1"/>
						<path id="&lt;Path&gt;" class="s2" d="m81.8 24.7v17.7"/>
						<path id="&lt;Path&gt;" class="s2" d="m52.5 32.3h15.4"/>
					</g>
					<path id="&lt;Path&gt;" class="s3" d="m83.3 18c-0.5 0.8-1.6 1.1-2.4 0.6-0.8-0.5-1.1-1.6-0.6-2.4 0.5-0.8 1.6-1.1 2.4-0.6 0.8 0.5 1.1 1.6 0.6 2.4z"/>
					<path id="&lt;Path&gt;" class="s3" d="m44.6 34c-0.5 0.8-1.6 1-2.4 0.5-0.8-0.4-1.1-1.5-0.6-2.3 0.5-0.9 1.6-1.1 2.4-0.6 0.8 0.5 1.1 1.5 0.6 2.4z"/>
				</g>
			</g>
		</g>
	</g>
</svg>