<svg version="1.2" xmlns="http://www.w3.org/2000/svg" viewBox="0 0 133 65" width="133" height="65">
	<defs>
		<radialGradient id="g1" cx="0" cy="0" r="1" gradientUnits="userSpaceOnUse" gradientTransform="matrix(9.203,0,0,9.203,53.496,16.94)">
			<stop offset="0" stop-color="#ffffff" stop-opacity="1"/>
			<stop offset="1" stop-color="#ffffff" stop-opacity="0"/>
		</radialGradient>
	</defs>
	<style>
		.s4 { fill: url(#g1) } 
	</style>
	<g id="медицина">
		<g id="-e-&lt;Group&gt;">
			<g id="&lt;Group&gt;">
				<path id="&lt;Path&gt;" fill="#f8104b" d="m74.1 20.2l17 17c2.3 2.4 3.5 5.5 3.5 8.6 0 3.1-1.2 6.2-3.5 8.6-4.8 4.7-12.5 4.7-17.2 0l-17-17z"/>
				<path id="&lt;Path&gt;" fill="#29b579" d="m46 9.3c-4.7 4.7-4.7 12.4 0 17.1l10.9 11c4.7 4.7 10.9 3.2 15.7-1.5 4.7-4.8 6.2-11 1.5-15.7l-11-10.9c-4.7-4.7-12.4-4.7-17.1 0z"/>
			</g>
			<g id="&lt;Group&gt;">
				<path id="&lt;Path&gt;" fill="none" stroke="#fdfeff" stroke-miterlimit="10" d="m3 22l9-12.8 15.3-5.9-9.8 26.9 2.3 19.7 19.7 11.5"/>
				<path id="&lt;Path&gt;" fill="none" stroke="#fdfeff" stroke-miterlimit="10" d="m17.5 30.2l-14.6-8"/>
				<g id="&lt;Group&gt;">
					<path id="&lt;Path&gt;" fill="#403f4d" stroke="#fdfeff" stroke-miterlimit="10" d="m14.3 9.5c-0.2 1.2-1.3 2.1-2.6 2-1.2-0.2-2.1-1.3-2-2.6 0.2-1.2 1.3-2.1 2.6-2 1.2 0.2 2.1 1.3 2 2.6z"/>
					<path id="&lt;Path&gt;" fill="#403f4d" stroke="#fdfeff" stroke-miterlimit="10" d="m29.4 3.5c-0.2 1.2-1.2 2-2.4 1.9-1.2-0.2-2-1.2-1.9-2.4 0.2-1.2 1.2-2 2.4-1.9 1.2 0.2 2 1.2 1.9 2.4z"/>
					<path id="&lt;Path&gt;" fill="#403f4d" stroke="#fdfeff" stroke-miterlimit="10" d="m5.2 22.3c-0.1 1.3-1.3 2.1-2.5 2-1.3-0.2-2.2-1.3-2-2.5 0.1-1.3 1.3-2.2 2.5-2 1.3 0.1 2.2 1.3 2 2.5z"/>
					<path id="&lt;Path&gt;" fill="#403f4d" stroke="#fdfeff" stroke-miterlimit="10" d="m19.8 30.4c-0.2 1.3-1.3 2.2-2.5 2-1.3-0.1-2.2-1.3-2-2.5 0.1-1.3 1.3-2.2 2.5-2 1.3 0.1 2.1 1.3 2 2.5z"/>
					<path id="&lt;Path&gt;" fill="#403f4d" stroke="#fdfeff" stroke-miterlimit="10" d="m22.1 50.2c-0.2 1.2-1.3 2.1-2.5 2-1.3-0.2-2.2-1.3-2-2.6 0.1-1.2 1.3-2.1 2.5-2 1.3 0.2 2.1 1.3 2 2.6z"/>
					<path id="&lt;Path&gt;" fill="#403f4d" stroke="#fdfeff" stroke-miterlimit="10" d="m41.8 61.6c-0.2 1.3-1.3 2.2-2.6 2-1.2-0.1-2.1-1.3-1.9-2.5 0.1-1.3 1.2-2.2 2.5-2 1.2 0.1 2.1 1.3 2 2.5z"/>
				</g>
			</g>
			<g id="&lt;Group&gt;">
				<path id="&lt;Path&gt;" fill="none" stroke="#fdfeff" stroke-miterlimit="10" d="m127.4 35.7l2.7 18.7-17-8-1.7-17.2 2.6-18.3-28.4-5.2"/>
				<path id="&lt;Path&gt;" fill="none" stroke="#fdfeff" stroke-miterlimit="10" d="m111.4 29.2l16 6.4"/>
				<g id="&lt;Group&gt;">
					<path id="&lt;Path&gt;" fill="#403f4d" stroke="#fdfeff" stroke-miterlimit="10" d="m127.9 55.1c-0.4-1.1 0.2-2.4 1.4-2.9 1.1-0.4 2.4 0.2 2.9 1.4 0.4 1.1-0.2 2.4-1.3 2.9-1.2 0.4-2.5-0.2-3-1.4z"/>
					<path id="&lt;Path&gt;" fill="#403f4d" stroke="#fdfeff" stroke-miterlimit="10" d="m110.9 47.2c-0.4-1.1 0.2-2.5 1.4-2.9 1.2-0.4 2.5 0.2 2.9 1.3 0.4 1.2-0.2 2.5-1.3 3-1.2 0.4-2.5-0.2-3-1.4z"/>
					<path id="&lt;Path&gt;" fill="#403f4d" stroke="#fdfeff" stroke-miterlimit="10" d="m125.3 36.5c-0.4-1.2 0.2-2.5 1.3-2.9 1.2-0.5 2.5 0.1 3 1.3 0.4 1.2-0.2 2.5-1.4 2.9-1.2 0.5-2.5-0.1-2.9-1.3z"/>
					<path id="&lt;Path&gt;" fill="#403f4d" stroke="#fdfeff" stroke-miterlimit="10" d="m109.3 30c-0.4-1.2 0.2-2.5 1.3-2.9 1.2-0.5 2.5 0.1 3 1.3 0.4 1.2-0.2 2.5-1.4 2.9-1.1 0.5-2.5-0.1-2.9-1.3z"/>
					<path id="&lt;Path&gt;" fill="#403f4d" stroke="#fdfeff" stroke-miterlimit="10" d="m111.9 11.6c-0.5-1.1 0.1-2.4 1.3-2.9 1.2-0.4 2.5 0.2 2.9 1.4 0.5 1.1-0.1 2.4-1.3 2.9-1.2 0.4-2.5-0.2-2.9-1.4z"/>
					<path id="&lt;Path&gt;" fill="#403f4d" stroke="#fdfeff" stroke-miterlimit="10" d="m83.5 6.5c-0.5-1.1 0.1-2.5 1.3-2.9 1.2-0.4 2.5 0.2 2.9 1.3 0.5 1.2-0.1 2.5-1.3 3-1.2 0.4-2.5-0.2-2.9-1.4z"/>
				</g>
			</g>
			<path id="&lt;Path&gt;" class="s4" d="m62.7 16.9c0 5.1-4.1 9.2-9.2 9.2-5.1 0-9.2-4.1-9.2-9.2 0-5 4.1-9.2 9.2-9.2 5.1 0 9.2 4.2 9.2 9.2z"/>
		</g>
	</g>
</svg>