<svg id="_Слой_2" data-name="Слой 2" xmlns="http://www.w3.org/2000/svg" viewBox="0 0 108.41 71.1">
  <defs>
    <style>
      .cls-1, .cls-2 {
        fill: #7cbb3b;
      }

      .cls-3 {
        fill: none;
        stroke-dasharray: 0 7;
      }

      .cls-3, .cls-2, .cls-4 {
        stroke: #fff;
        stroke-miterlimit: 10;
      }

      .cls-4 {
        fill: #29b579;
      }
    </style>
  </defs>
  <g id="_предсказание" data-name="предсказание">
    <g>
      <g>
        <path class="cls-1" d="m13.01,13.5c2.86,0,5.17-2.31,5.17-5.17s-2.31-5.17-5.17-5.17-5.17,2.31-5.17,5.17,2.31,5.17,5.17,5.17Z"/>
        <path class="cls-1" d="m18.86,16.41H7.15c-3.95,0-7.15,3.2-7.15,7.15v13.8c0,1.25,1.01,2.26,2.26,2.26s2.26-1.01,2.26-2.26v-13.8h2.61v41.46c0,1.27,1.03,2.31,2.31,2.31s2.31-1.03,2.31-2.31v-27.22h2.53v27.22c0,1.27,1.03,2.31,2.31,2.31s2.31-1.03,2.31-2.31V23.56h7.12c0-3.95-3.2-7.15-7.15-7.15Z"/>
        <path class="cls-1" d="m23.76,39.62c1.25,0,2.26-1.01,2.26-2.26v-13.8h-4.51s0,13.8,0,13.8c0,1.25,1.01,2.26,2.26,2.26Z"/>
        <path class="cls-1" d="m95.41,13.5c2.86,0,5.17-2.31,5.17-5.17s-2.31-5.17-5.17-5.17-5.17,2.31-5.17,5.17,2.31,5.17,5.17,5.17Z"/>
        <path class="cls-1" d="m101.26,16.41h-11.72c-3.95,0-7.15,3.2-7.15,7.15v13.8c0,1.25,1.01,2.26,2.26,2.26s2.26-1.01,2.26-2.26v-13.8h2.61v41.46c0,1.27,1.03,2.31,2.31,2.31s2.31-1.03,2.31-2.31v-27.22h2.53v27.22c0,1.27,1.03,2.31,2.31,2.31s2.31-1.03,2.31-2.31V23.56h7.12c0-3.95-3.2-7.15-7.15-7.15Z"/>
        <path class="cls-1" d="m103.9,37.36c0,1.25,1.01,2.26,2.26,2.26s2.26-1.01,2.26-2.26v-13.8h-4.51s0,13.8,0,13.8Z"/>
      </g>
      <path class="cls-3" d="m32.57,60.56c13.39,13.39,35.06,13.39,48.44,0"/>
      <path class="cls-3" d="m32.57,10.54c13.39-13.39,35.06-13.39,48.44,0"/>
      <g>
        <circle class="cls-2" cx="56.8" cy="35.55" r="11.53"/>
        <g>
          <line class="cls-4" x1="64.95" y1="27.4" x2="69.61" y2="22.74"/>
          <line class="cls-4" x1="68.44" y1="21.57" x2="70.77" y2="23.9"/>
        </g>
        <g>
          <line class="cls-4" x1="56.8" y1="24.02" x2="56.8" y2="17.43"/>
          <line class="cls-4" x1="55.15" y1="17.43" x2="58.44" y2="17.43"/>
        </g>
        <g>
          <line class="cls-4" x1="48.64" y1="27.4" x2="43.98" y2="22.74"/>
          <line class="cls-4" x1="42.82" y1="23.9" x2="45.15" y2="21.57"/>
        </g>
        <g>
          <line class="cls-4" x1="45.27" y1="35.55" x2="38.68" y2="35.55"/>
          <line class="cls-4" x1="38.68" y1="37.2" x2="38.68" y2="33.91"/>
        </g>
        <g>
          <line class="cls-4" x1="48.64" y1="43.71" x2="43.98" y2="48.37"/>
          <line class="cls-4" x1="45.15" y1="49.53" x2="42.82" y2="47.2"/>
        </g>
        <g>
          <line class="cls-4" x1="56.8" y1="47.08" x2="56.8" y2="53.67"/>
          <line class="cls-4" x1="58.44" y1="53.67" x2="55.15" y2="53.67"/>
        </g>
        <g>
          <line class="cls-4" x1="64.95" y1="43.71" x2="69.61" y2="48.37"/>
          <line class="cls-4" x1="70.77" y1="47.2" x2="68.44" y2="49.53"/>
        </g>
        <g>
          <line class="cls-4" x1="68.33" y1="35.55" x2="74.92" y2="35.55"/>
          <line class="cls-4" x1="74.92" y1="33.91" x2="74.92" y2="37.2"/>
        </g>
      </g>
    </g>
  </g>
</svg>