<svg version="1.2" xmlns="http://www.w3.org/2000/svg" viewBox="0 0 143 74" width="143" height="74">
	<g id="Более эффективная реклама">
		<g id="-e-&lt;Group&gt;">
			<g id="&lt;Group&gt;">
				<path id="&lt;Path&gt;" fill="none" stroke="#ffffff" stroke-miterlimit="10" stroke-width="1.3" d="m61.3 14.2h-39l-7-6.9-5.8-2.4"/>
				<path id="&lt;Path&gt;" fill="none" stroke="#ffffff" stroke-miterlimit="10" stroke-width="1.3" d="m58.5 21.7h-42.6l-5.1-5.1"/>
				<path id="&lt;Path&gt;" fill="none" stroke="#ffffff" stroke-miterlimit="10" stroke-width="1.3" d="m58.5 28.1h-48.6"/>
				<path id="&lt;Path&gt;" fill="none" stroke="#ffffff" stroke-miterlimit="10" stroke-width="1.3" d="m58.5 35.6h-41.8"/>
				<path id="&lt;Path&gt;" fill="none" stroke="#ffffff" stroke-miterlimit="10" stroke-width="1.3" d="m58.1 41.4h-42.9l-6.1 6h-4.7"/>
				<path id="&lt;Path&gt;" fill="none" stroke="#ffffff" stroke-miterlimit="10" stroke-width="1.3" d="m58.1 47.9h-38.4l-4.9 4.8"/>
				<path id="&lt;Path&gt;" fill="#403f4d" stroke="#ffffff" stroke-miterlimit="10" stroke-width="1.3" d="m11.8 4.9c0 1.3-1 2.4-2.3 2.4-1.3 0-2.4-1.1-2.4-2.4 0-1.3 1.1-2.4 2.4-2.4 1.3 0 2.3 1.1 2.3 2.4z"/>
				<path id="&lt;Path&gt;" fill="#403f4d" stroke="#ffffff" stroke-miterlimit="10" stroke-width="1.3" d="m11.9 15c0 1.3-1 2.3-2.3 2.3-1.3 0-2.4-1-2.4-2.3 0-1.3 1.1-2.4 2.4-2.4 1.3 0 2.3 1.1 2.3 2.4z"/>
				<path id="&lt;Path&gt;" fill="#403f4d" stroke="#ffffff" stroke-miterlimit="10" stroke-width="1.3" d="m11.9 28.1c0 1.3-1 2.3-2.3 2.3-1.3 0-2.4-1-2.4-2.3 0-1.3 1.1-2.4 2.4-2.4 1.3 0 2.3 1.1 2.3 2.4z"/>
				<path id="&lt;Path&gt;" fill="#403f4d" stroke="#ffffff" stroke-miterlimit="10" stroke-width="1.3" d="m16.9 35.6c0 1.3-1 2.4-2.3 2.4-1.3 0-2.4-1.1-2.4-2.4 0-1.3 1.1-2.4 2.4-2.4 1.3 0 2.3 1.1 2.3 2.4z"/>
				<path id="&lt;Path&gt;" fill="#403f4d" stroke="#ffffff" stroke-miterlimit="10" stroke-width="1.3" d="m5.5 47.4c0 1.3-1.1 2.3-2.4 2.3-1.3 0-2.4-1-2.4-2.3 0-1.3 1.1-2.4 2.4-2.4 1.3 0 2.4 1.1 2.4 2.4z"/>
				<path id="&lt;Path&gt;" fill="#403f4d" stroke="#ffffff" stroke-miterlimit="10" stroke-width="1.3" d="m15.6 54.2c0 1.3-1.1 2.4-2.4 2.4-1.3 0-2.4-1.1-2.4-2.4 0-1.3 1.1-2.3 2.4-2.3 1.3 0 2.4 1 2.4 2.3z"/>
			</g>
			<g id="&lt;Group&gt;">
				<path id="&lt;Path&gt;" fill="none" stroke="#ffffff" stroke-miterlimit="10" stroke-width="1.3" d="m87.8 48.5h35.7l6.9 7 5.9 2.4"/>
				<path id="&lt;Path&gt;" fill="none" stroke="#ffffff" stroke-miterlimit="10" stroke-width="1.3" d="m87.8 41.1h39.2l5.1 5.1"/>
				<path id="&lt;Path&gt;" fill="none" stroke="#ffffff" stroke-miterlimit="10" stroke-width="1.3" d="m87.8 34.7h45.3"/>
				<path id="&lt;Path&gt;" fill="none" stroke="#ffffff" stroke-miterlimit="10" stroke-width="1.3" d="m87.8 27.2h38.5"/>
				<path id="&lt;Path&gt;" fill="none" stroke="#ffffff" stroke-miterlimit="10" stroke-width="1.3" d="m88.3 21.4h39.5l6-6h4.8"/>
				<path id="&lt;Path&gt;" fill="none" stroke="#ffffff" stroke-miterlimit="10" stroke-width="1.3" d="m88.3 14.9h35l4.9-4.9"/>
				<path id="&lt;Path&gt;" fill="#403f4d" stroke="#ffffff" stroke-miterlimit="10" stroke-width="1.3" d="m133.9 57.9c0-1.3 1.1-2.4 2.4-2.4 1.3 0 2.4 1.1 2.4 2.4 0 1.3-1.1 2.3-2.4 2.3-1.3 0-2.4-1-2.4-2.3z"/>
				<path id="&lt;Path&gt;" fill="#403f4d" stroke="#ffffff" stroke-miterlimit="10" stroke-width="1.3" d="m131.1 47.8c0-1.3 1-2.4 2.3-2.4 1.3 0 2.4 1.1 2.4 2.4 0 1.3-1.1 2.4-2.4 2.4-1.3 0-2.3-1.1-2.3-2.4z"/>
				<path id="&lt;Path&gt;" fill="#403f4d" stroke="#ffffff" stroke-miterlimit="10" stroke-width="1.3" d="m131.1 34.7c0-1.3 1-2.4 2.3-2.4 1.3 0 2.4 1.1 2.4 2.4 0 1.3-1.1 2.4-2.4 2.4-1.3 0-2.3-1.1-2.3-2.4z"/>
				<path id="&lt;Path&gt;" fill="#403f4d" stroke="#ffffff" stroke-miterlimit="10" stroke-width="1.3" d="m126 27.2c0-1.3 1.1-2.4 2.4-2.4 1.3 0 2.4 1.1 2.4 2.4 0 1.3-1.1 2.4-2.4 2.4-1.3 0-2.4-1.1-2.4-2.4z"/>
				<path id="&lt;Path&gt;" fill="#403f4d" stroke="#ffffff" stroke-miterlimit="10" stroke-width="1.3" d="m137.5 15.4c0-1.3 1.1-2.4 2.4-2.4 1.3 0 2.4 1.1 2.4 2.4 0 1.3-1.1 2.4-2.4 2.4-1.3 0-2.4-1.1-2.4-2.4z"/>
				<path id="&lt;Path&gt;" fill="#403f4d" stroke="#ffffff" stroke-miterlimit="10" stroke-width="1.3" d="m127.4 8.5c0-1.3 1.1-2.3 2.4-2.3 1.3 0 2.3 1 2.3 2.3 0 1.4-1 2.4-2.3 2.4-1.3 0-2.4-1-2.4-2.4z"/>
			</g>
			<g id="&lt;Group&gt;">
				<path id="&lt;Path&gt;" fill="#c0392b" stroke="#ffffff" stroke-miterlimit="10" stroke-width="1.3" d="m47.4 34.8c0.5-1.7 0.8-3.5 0.8-5.4q0-1.5-0.2-3.1-0.1 0-0.1-0.1c0.1-14.5 12.3-26.1 27.1-25.1 12.4 0.9 22.5 10.9 23.3 23.4 0.5 6-1.2 11.6-4.4 16.2-4.4 6.3-6 14.2-3.8 21.7l2.8 9.8c0.2 0.6-0.2 1.1-0.8 1.1h-26.4c-0.5 0-0.8-0.3-0.9-0.8l-0.1-2c-0.4-4.3-4-7.6-8.3-7.6h-9.3c-0.5 0-0.9-0.4-0.9-0.9v-11.5c0-1.7-0.7-3.1-1.7-4.2q-0.5-0.5-1-0.8c-1.3-0.8-1.6-2.6-0.5-3.6l0.1-0.2c2-1.9 3.4-4.3 4.3-6.9z"/>
			</g>
		</g>
	</g>
</svg>