<svg version="1.2" xmlns="http://www.w3.org/2000/svg" viewBox="0 0 68 91" width="68" height="91">
	<g id="Более эффективная реклама">
		<g id="-e-&lt;Group&gt;">
			<g id="&lt;Group&gt;">
				<g id="&lt;Group&gt;">
					<g id="&lt;Group&gt;">
						<path id="&lt;Path&gt;" fill="none" stroke="#ffffff" stroke-miterlimit="10" stroke-width="1.3" d="m55.4 73.7l-2.1 0.8-6.9-8.5-6.3-0.7-10-12.3"/>
						<path id="&lt;Path&gt;" fill="none" stroke="#ffffff" stroke-miterlimit="10" stroke-width="1.3" d="m30.1 53c-1 0.8-2.4 0.7-3.2-0.3-0.8-1-0.7-2.5 0.3-3.3 1-0.8 2.4-0.6 3.2 0.4 0.8 0.9 0.7 2.4-0.3 3.2z"/>
					</g>
					<g id="&lt;Group&gt;">
						<path id="&lt;Path&gt;" fill="none" stroke="#ffffff" stroke-miterlimit="10" stroke-width="1.3" d="m30.3 59.5l7.9 9.8 6.3 0.6 6.9 8.5"/>
					</g>
					<g id="&lt;Group&gt;">
						<path id="&lt;Path&gt;" fill="none" stroke="#ffffff" stroke-miterlimit="10" stroke-width="1.3" d="m38.1 76.4l-9.4 7.6-0.6 6.3 4.1-0.1"/>
						<path id="&lt;Path&gt;" fill="none" stroke="#ffffff" stroke-miterlimit="10" stroke-width="1.3" d="m41.3 76.8c-1 0.8-2.4 0.6-3.2-0.4-0.8-1-0.7-2.4 0.3-3.2 1-0.8 2.5-0.7 3.3 0.3 0.8 1 0.6 2.5-0.4 3.3z"/>
					</g>
					<g id="&lt;Group&gt;">
						<path id="&lt;Path&gt;" fill="none" stroke="#ffffff" stroke-miterlimit="10" stroke-width="1.3" d="m30.7 73.4l-9.4 7.6-0.6 6.4"/>
						<path id="&lt;Path&gt;" fill="none" stroke="#ffffff" stroke-miterlimit="10" stroke-width="1.3" d="m33.9 73.8c-1 0.8-2.4 0.6-3.2-0.4-0.8-1-0.7-2.4 0.3-3.2 1-0.8 2.4-0.7 3.2 0.3 0.9 1 0.7 2.5-0.3 3.3z"/>
					</g>
					<path id="&lt;Path&gt;" fill="none" stroke="#ffffff" stroke-miterlimit="10" stroke-width="1.3" d="m21.3 57.2l6.7 8.3-14.3 11.7-0.8 7.7"/>
					<path id="&lt;Path&gt;" fill="none" stroke="#ffffff" stroke-miterlimit="10" stroke-width="1.3" d="m47.2 78.5l-7.5 6.1"/>
					<path id="&lt;Path&gt;" fill="none" stroke="#ffffff" stroke-miterlimit="10" stroke-width="1.3" d="m39.4 87.8c-1 0.8-2.4 0.7-3.2-0.3-0.8-1-0.7-2.4 0.3-3.2 1-0.8 2.4-0.7 3.2 0.3 0.9 1 0.7 2.4-0.3 3.2z"/>
					<g id="&lt;Group&gt;">
						<g id="&lt;Group&gt;">
							<path id="&lt;Path&gt;" fill="none" stroke="#ffffff" stroke-miterlimit="10" stroke-width="1.3" d="m0.7 46.9l7.3 0.4"/>
						</g>
						<path id="&lt;Path&gt;" fill="none" stroke="#ffffff" stroke-miterlimit="10" stroke-width="1.3" d="m5.8 75l2.5-2.1"/>
						<path id="&lt;Path&gt;" fill="none" stroke="#ffffff" stroke-miterlimit="10" stroke-width="1.3" d="m0.8 62.9l13.3 1"/>
						<path id="&lt;Path&gt;" fill="none" stroke="#ffffff" stroke-miterlimit="10" stroke-width="1.3" d="m18.1 65.7c-1 0.8-2.4 0.7-3.2-0.3-0.8-1-0.7-2.5 0.3-3.3 1-0.8 2.5-0.6 3.3 0.4 0.8 1 0.6 2.4-0.4 3.2z"/>
						<path id="&lt;Path&gt;" fill="none" stroke="#ffffff" stroke-miterlimit="10" stroke-width="1.3" d="m11.4 73c-1 0.8-2.4 0.7-3.2-0.3-0.8-1-0.7-2.5 0.3-3.3 1-0.8 2.4-0.6 3.2 0.4 0.8 0.9 0.7 2.4-0.3 3.2z"/>
					</g>
					<path id="&lt;Path&gt;" fill="none" stroke="#ffffff" stroke-miterlimit="10" stroke-width="1.3" d="m21.3 57.2c-1 0.8-2.5 0.7-3.3-0.3-0.8-1-0.6-2.5 0.4-3.3 1-0.8 2.4-0.6 3.2 0.4 0.8 1 0.7 2.4-0.3 3.2z"/>
				</g>
				<g id="&lt;Group&gt;">
					<g id="&lt;Group&gt;">
						<g id="&lt;Group&gt;">
							<path id="&lt;Path&gt;" fill="none" stroke="#ffffff" stroke-miterlimit="10" stroke-width="1.3" d="m39.6 32.2l15.8-13.5-6.6-7.9-2 0.7-6.8-8"/>
						</g>
						<g id="&lt;Group&gt;">
							<path id="&lt;Path&gt;" fill="none" stroke="#ffffff" stroke-miterlimit="10" stroke-width="1.3" d="m25.1 42.3l9.3-7.9 0.9-7.5 9.7-8.1"/>
							<path id="&lt;Path&gt;" fill="none" stroke="#ffffff" stroke-miterlimit="10" stroke-width="1.3" d="m25.1 42.3c0.8 0.9 0.7 2.3-0.2 3.1-0.9 0.8-2.3 0.7-3.1-0.3-0.8-0.9-0.7-2.3 0.2-3.1 0.9-0.8 2.3-0.7 3.1 0.3z"/>
						</g>
						<g id="&lt;Group&gt;">
							<path id="&lt;Path&gt;" fill="none" stroke="#ffffff" stroke-miterlimit="10" stroke-width="1.3" d="m30.2 6.7l9.4 2.3 5.4 6.4"/>
							<path id="&lt;Path&gt;" fill="none" stroke="#ffffff" stroke-miterlimit="10" stroke-width="1.3" d="m47.9 18.8c-0.9 0.8-2.3 0.7-3.1-0.3-0.8-0.9-0.7-2.3 0.2-3.1 1-0.8 2.4-0.7 3.2 0.2 0.8 1 0.7 2.4-0.3 3.2z"/>
						</g>
						<g id="&lt;Group&gt;">
							<path id="&lt;Path&gt;" fill="none" stroke="#ffffff" stroke-miterlimit="10" stroke-width="1.3" d="m32.5 13.4l-9.2 7.9-0.5 6.1-8.1 6.8"/>
						</g>
						<g id="&lt;Group&gt;">
							<path id="&lt;Path&gt;" fill="none" stroke="#ffffff" stroke-miterlimit="10" stroke-width="1.3" d="m26.4 31.8l-9.1 7.2-0.5 6.2-8 6.8-7.8-0.6"/>
							<path id="&lt;Path&gt;" fill="none" stroke="#ffffff" stroke-miterlimit="10" stroke-width="1.3" d="m29.3 31.8c-0.9 0.8-2.3 0.7-3.1-0.3-0.8-0.9-0.7-2.3 0.2-3.1 1-0.8 2.4-0.7 3.2 0.2 0.8 1 0.6 2.4-0.3 3.2z"/>
						</g>
						<g id="&lt;Group&gt;">
							<path id="&lt;Path&gt;" fill="none" stroke="#ffffff" stroke-miterlimit="10" stroke-width="1.3" d="m23.5 14.4l-8.9 7.5-0.5 6.1-8 6.9-2-0.2"/>
							<path id="&lt;Path&gt;" fill="none" stroke="#ffffff" stroke-miterlimit="10" stroke-width="1.3" d="m26.6 14.7c-0.9 0.8-2.3 0.6-3.1-0.3-0.8-0.9-0.7-2.3 0.2-3.1 1-0.8 2.4-0.7 3.2 0.2 0.8 1 0.6 2.4-0.3 3.2z"/>
						</g>
						<path id="&lt;Path&gt;" fill="none" stroke="#ffffff" stroke-miterlimit="10" stroke-width="1.3" d="m40.2 14.7l-7.1 6"/>
						<path id="&lt;Path&gt;" fill="none" stroke="#ffffff" stroke-miterlimit="10" stroke-width="1.3" d="m32.9 23.8c-0.9 0.8-2.3 0.7-3.1-0.2-0.8-0.9-0.7-2.3 0.2-3.1 0.9-0.8 2.4-0.7 3.1 0.2 0.8 0.9 0.7 2.4-0.2 3.1z"/>
					</g>
				</g>
				<g id="&lt;Group&gt;">
					<g id="&lt;Group&gt;">
						<path id="&lt;Path&gt;" fill="none" stroke="#ffffff" stroke-miterlimit="10" stroke-width="1.3" d="m49.2 32.1l-16.8 13.6 6 7.3 2-0.7 6.9 8.4 6.3 0.7 5.6 6.8"/>
					</g>
					<g id="&lt;Group&gt;">
						<path id="&lt;Path&gt;" fill="none" stroke="#ffffff" stroke-miterlimit="10" stroke-width="1.3" d="m63 21.4l-9.2 7.4-1.1 7.7-8.5 7"/>
					</g>
					<g id="&lt;Group&gt;">
						<path id="&lt;Path&gt;" fill="none" stroke="#ffffff" stroke-miterlimit="10" stroke-width="1.3" d="m61.1 64.2l-5.5-6.8-6.4-0.6-6.9-8.5"/>
						<path id="&lt;Path&gt;" fill="none" stroke="#ffffff" stroke-miterlimit="10" stroke-width="1.3" d="m39.4 44.7c1-0.8 2.5-0.6 3.3 0.4 0.8 0.9 0.6 2.4-0.4 3.2-1 0.8-2.4 0.7-3.2-0.3-0.8-1-0.7-2.5 0.3-3.3z"/>
					</g>
					<g id="&lt;Group&gt;">
						<path id="&lt;Path&gt;" fill="none" stroke="#ffffff" stroke-miterlimit="10" stroke-width="1.3" d="m55.7 50.3l9.3-7.6 0.7-6.3 1.2-1"/>
						<path id="&lt;Path&gt;" fill="none" stroke="#ffffff" stroke-miterlimit="10" stroke-width="1.3" d="m52.4 50c1-0.8 2.5-0.7 3.3 0.3 0.8 1 0.6 2.4-0.3 3.2-1 0.8-2.5 0.7-3.3-0.3-0.8-1-0.6-2.4 0.3-3.2z"/>
					</g>
					<g id="&lt;Group&gt;">
						<path id="&lt;Path&gt;" fill="none" stroke="#ffffff" stroke-miterlimit="10" stroke-width="1.3" d="m59.5 31.3c1-0.9 2.5-0.7 3.3 0.3 0.8 1 0.6 2.4-0.4 3.2-1 0.8-2.4 0.7-3.2-0.3-0.8-1-0.7-2.4 0.3-3.2z"/>
					</g>
					<g id="&lt;Group&gt;">
						<path id="&lt;Path&gt;" fill="none" stroke="#ffffff" stroke-miterlimit="10" stroke-width="1.3" d="m0.2 58.1l10.1 0.4 3.8-3.2"/>
						<path id="&lt;Path&gt;" fill="none" stroke="#ffffff" stroke-miterlimit="10" stroke-width="1.3" d="m60.8 53c1-0.8 2.5-0.6 3.3 0.4 0.8 1 0.6 2.4-0.4 3.2-1 0.8-2.4 0.7-3.2-0.3-0.8-1-0.7-2.4 0.3-3.3z"/>
					</g>
					<path id="&lt;Path&gt;" fill="none" stroke="#ffffff" stroke-miterlimit="10" stroke-width="1.3" d="m47.4 49.1l7.4-6"/>
					<path id="&lt;Path&gt;" fill="none" stroke="#ffffff" stroke-miterlimit="10" stroke-width="1.3" d="m55.1 39.8c1-0.8 2.5-0.6 3.3 0.3 0.8 1 0.6 2.5-0.4 3.3-1 0.8-2.4 0.6-3.2-0.3-0.8-1-0.7-2.5 0.3-3.3z"/>
				</g>
				<path id="&lt;Path&gt;" fill="none" stroke="#ffffff" stroke-miterlimit="10" stroke-width="1.3" d="m11.9 40.9l-9.7-1"/>
				<path id="&lt;Path&gt;" fill="none" stroke="#ffffff" stroke-miterlimit="10" stroke-width="1.3" d="m50.4 64.1l5.7 7"/>
			</g>
			<path id="&lt;Path&gt;" fill="none" stroke="#ffffff" stroke-miterlimit="10" stroke-width="1.3" d="m52.7 7.8l6.3 7.7"/>
			<path id="&lt;Path&gt;" fill="none" stroke="#ffffff" stroke-miterlimit="10" stroke-width="1.3" d="m49.4 4.7l-3.6-2.1"/>
			<path id="&lt;Path&gt;" fill="none" stroke="#ffffff" stroke-miterlimit="10" stroke-width="1.3" d="m7.9 26.4l3-5.4"/>
			<path id="&lt;Path&gt;" fill="none" stroke="#ffffff" stroke-miterlimit="10" stroke-width="1.3" d="m64.2 26.3l1 2.9"/>
			<path id="&lt;Path&gt;" fill="none" stroke="#ffffff" stroke-miterlimit="10" stroke-width="1.3" d="m66.5 47.1l-3.4 1.6"/>
			<path id="&lt;Path&gt;" fill="none" stroke="#ffffff" stroke-miterlimit="10" stroke-width="1.3" d="m23 8.2l-6.6 6.8"/>
			<path id="&lt;Path&gt;" fill="none" stroke="#ffffff" stroke-miterlimit="10" stroke-width="1.3" d="m2.8 70.4v-3.3"/>
			<path id="&lt;Path&gt;" fill="none" stroke="#ffffff" stroke-miterlimit="10" stroke-width="1.3" d="m15.8 86.3l1.2-2.7"/>
			<path id="&lt;Path&gt;" fill="none" stroke="#ffffff" stroke-miterlimit="10" stroke-width="1.3" d="m35.2 1.3l-5.1 2.5 0.4 3"/>
		</g>
	</g>
</svg>