<svg version="1.2" xmlns="http://www.w3.org/2000/svg" viewBox="0 0 132 61" width="132" height="61">
	<title>криптография</title>
	<style>
		tspan { white-space:pre } 
		.t3 { font-size: 19px;fill: #ffffff;font-weight: 400;font-family: "Montserrat-Regular", "Montserrat" } 
	</style>
	<g id="криптография">
		<g id="-e-&lt;Group&gt;">
			<g id="&lt;Group&gt;">
				<path id="&lt;Path&gt;" fill="none" stroke="#ffffff" stroke-miterlimit="10" d="m118.4 29.1h-19.1l-7.1 7.1h-12.3"/>
				<g id="&lt;Group&gt;">
					<g id="&lt;Group&gt;">
						<path id="&lt;Path&gt;" fill="#2c92e5" d="m65.3 30.6c0-3.4-2.8-6.2-6.2-6.2-3.4 0-6.2 2.8-6.2 6.2 0 2.5 1.6 4.7 3.8 5.7l-2.6 6.8h9.9l-2.6-6.8c2.3-1 3.9-3.2 3.9-5.7z"/>
						<g id="&lt;Group&gt;">
							<g id="&lt;Group&gt;">
								<path id="&lt;Path&gt;" fill="#fa6727" d="m131.1 29.1c0 6.3-5.1 11.4-11.4 11.4-6.4 0-11.5-5.1-11.5-11.4 0-6.4 5.1-11.5 11.5-11.5 6.3 0 11.4 5.1 11.4 11.5z"/>
								<text id="!
" style="transform: matrix(1,0,0,1,117.162,35.55)" >
									<tspan x="0" y="0" class="t3">!
</tspan>
								</text>
							</g>
							<path id="&lt;Path&gt;" fill="none" stroke="#ffffff" stroke-miterlimit="10" d="m80.5 34c0 11.7-9.5 21.2-21.2 21.2-11.6 0-21.1-9.5-21.1-21.2 0-11.7 9.5-21.1 21.1-21.1 11.7 0 21.2 9.4 21.2 21.1z"/>
							<path id="&lt;Path&gt;" fill="none" stroke="#ffffff" stroke-miterlimit="10" d="m84.9 34c0 14.2-11.4 25.6-25.6 25.6-14.1 0-25.5-11.4-25.5-25.6 0-14.1 11.4-25.6 25.5-25.6 14.2 0 25.6 11.5 25.6 25.6z"/>
						</g>
					</g>
					<path id="&lt;Path&gt;" fill="none" stroke="#ffffff" stroke-miterlimit="10" d="m12.1 38.9l13.3-22.5 0.6-9 4.1-7"/>
					<path id="&lt;Path&gt;" fill="#2c92e5" d="m20.3 29.7l-15.9 26.9c-0.6 1.1-2 1.4-3.1 0.8-1.1-0.7-1.5-2.1-0.8-3.2l15.8-26.9c0.6-1 2.1-1.4 3.2-0.8 1 0.7 1.4 2.1 0.8 3.2z"/>
				</g>
			</g>
		</g>
	</g>
</svg>