<svg version="1.2" xmlns="http://www.w3.org/2000/svg" viewBox="0 0 87 88" width="87" height="88">
	<g id="Прогнозирование">
		<g id="-e-&lt;Group&gt;">
			<g id="&lt;Group&gt;">
				<path id="&lt;Path&gt;" fill="none" stroke="#2dcc70" stroke-miterlimit="10" stroke-width="2.2" d="m78.2 44.3c0 19.2-15.5 34.7-34.7 34.7-19.2 0-34.7-15.5-34.7-34.7 0-21.2 17.6-34.7 34.7-34.7 19.2 0 34.7 15.6 34.7 34.7z"/>
				<path id="&lt;Path&gt;" fill="#a6dae8" d="m57.8 46.8c0 2.1-1.7 3.7-3.7 3.7h-21.2c-2 0-3.7-1.6-3.7-3.7 0-1.9 1.6-3.6 3.6-3.6q-0.2-0.6-0.2-1.4c0-2.7 2.3-5 5-5q0.7 0 1.3 0.2c0.6-1.1 1.8-1.8 3.1-1.8 2 0 3.6 1.6 3.6 3.6v0.1q0.4-0.1 0.7-0.1c1 0 1.9 0.6 2.4 1.5 0.6-1.1 1.8-1.9 3.2-1.9 2 0 3.6 1.6 3.6 3.6q0 0.7-0.3 1.4c1.5 0.4 2.6 1.8 2.6 3.4z"/>
				<path id="&lt;Path&gt;" fill="none" stroke="#2dcc70" stroke-miterlimit="10" stroke-width="2.2" d="m44.3 20.3v-19.6"/>
				<path id="&lt;Path&gt;" fill="none" stroke="#2dcc70" stroke-miterlimit="10" stroke-width="2.2" d="m20.3 44.3h-19.6"/>
				<path id="&lt;Path&gt;" fill="none" stroke="#2dcc70" stroke-miterlimit="10" stroke-width="2.2" d="m43.5 67.6v19.5"/>
				<path id="&lt;Path&gt;" fill="none" stroke="#2dcc70" stroke-miterlimit="10" stroke-width="2.2" d="m66.7 44.3h19.6"/>
			</g>
		</g>
	</g>
</svg>