<svg version="1.2" xmlns="http://www.w3.org/2000/svg" viewBox="0 0 117 143" width="117" height="143">
	<g id="криптография">
		<g id="-e-&lt;Group&gt;">
			<g id="&lt;Group&gt;">
				<path id="&lt;Path&gt;" fill="none" stroke="#ffffff" stroke-miterlimit="10" d="m35.1 40.5l79 62.5c2.8-3.5 2.2-8.7-1.4-11.5l-72.6-57.4z"/>
			</g>
			<g id="&lt;Group&gt;">
				<path id="&lt;Path&gt;" fill="none" stroke="#ffffff" stroke-miterlimit="10" d="m114.1 103l-14.1 17.8 1.2 10-5.5 6.8"/>
				<path id="&lt;Path&gt;" fill="none" stroke="#ffffff" stroke-miterlimit="10" d="m108.1 98.3l-15.3 19.3 0.9 7.3"/>
				<path id="&lt;Path&gt;" fill="none" stroke="#ffffff" stroke-miterlimit="10" d="m103 94.2l-20.2 25.5"/>
				<path id="&lt;Path&gt;" fill="none" stroke="#ffffff" stroke-miterlimit="10" d="m97 89.5l-15.9 20"/>
				<path id="&lt;Path&gt;" fill="none" stroke="#ffffff" stroke-miterlimit="10" d="m92 86.2l-16.5 20.9-8.6 1-3 3.8"/>
				<path id="&lt;Path&gt;" fill="none" stroke="#ffffff" stroke-miterlimit="10" d="m86.8 82l-13.7 17.3-6.9 0.8"/>
				<path id="&lt;Path&gt;" fill="#403f4d" stroke="#ffffff" stroke-miterlimit="10" d="m95.7 137.6c-1-0.8-2.5-0.6-3.4 0.4-0.8 1.1-0.6 2.6 0.4 3.4 1.1 0.8 2.6 0.7 3.4-0.4 0.9-1 0.7-2.6-0.4-3.4z"/>
				<path id="&lt;Path&gt;" fill="#403f4d" stroke="#ffffff" stroke-miterlimit="10" d="m95.7 125.1c-1.1-0.9-2.6-0.7-3.4 0.4-0.9 1-0.7 2.5 0.3 3.4 1.1 0.8 2.6 0.6 3.5-0.4 0.8-1.1 0.6-2.6-0.4-3.4z"/>
				<path id="&lt;Path&gt;" fill="#403f4d" stroke="#ffffff" stroke-miterlimit="10" d="m82.6 120c-1-0.9-2.6-0.7-3.4 0.4-0.8 1-0.6 2.5 0.4 3.4 1.1 0.8 2.6 0.6 3.4-0.4 0.8-1.1 0.7-2.6-0.4-3.4z"/>
				<path id="&lt;Path&gt;" fill="#403f4d" stroke="#ffffff" stroke-miterlimit="10" d="m81.3 109.3c-1.1-0.8-2.6-0.6-3.4 0.4-0.9 1.1-0.7 2.6 0.4 3.4 1 0.8 2.5 0.7 3.4-0.4 0.8-1 0.6-2.6-0.4-3.4z"/>
				<path id="&lt;Path&gt;" fill="#403f4d" stroke="#ffffff" stroke-miterlimit="10" d="m63.9 111.9c-1.1-0.8-2.6-0.7-3.4 0.4-0.8 1-0.7 2.6 0.4 3.4 1 0.8 2.6 0.6 3.4-0.4 0.8-1.1 0.6-2.6-0.4-3.4z"/>
				<path id="&lt;Path&gt;" fill="#403f4d" stroke="#ffffff" stroke-miterlimit="10" d="m65.5 98.6c-1.1-0.9-2.6-0.7-3.4 0.4-0.9 1-0.7 2.5 0.4 3.4 1 0.8 2.5 0.6 3.4-0.4 0.8-1.1 0.6-2.6-0.4-3.4z"/>
			</g>
			<path id="&lt;Path&gt;" fill="none" stroke="#ffffff" stroke-miterlimit="10" d="m115.5 98.9l-66.4-52.5"/>
			<path id="&lt;Path&gt;" fill="#403f4d" stroke="#ffffff" stroke-miterlimit="10" d="m54.8 8.2c-14.5-11.4-35.6-9-47 5.5-11.5 14.5-9 35.6 5.5 47 14.5 11.5 35.5 9 47-5.5 11.4-14.5 9-35.5-5.5-47z"/>
			<path id="&lt;Path&gt;" fill="#403f4d" stroke="#ffffff" stroke-miterlimit="10" d="m25.1 16.6l-10.5 13.3c-1.1 1.3-0.9 3.3 0.5 4.3l2.8 2.3c1.3 1 3.3 0.8 4.3-0.5l10.6-13.3c1-1.4 0.8-3.3-0.6-4.4l-2.8-2.2c-1.3-1.1-3.3-0.8-4.3 0.5z"/>
		</g>
	</g>
</svg>