<svg version="1.2" xmlns="http://www.w3.org/2000/svg" viewBox="0 0 145 145" width="145" height="145">
	<g id="Улучшение покрытия спутников">
		<g id="-e-&lt;Group&gt;">
			<g id="&lt;Group&gt;">
				<path id="&lt;Path&gt;" fill="none" stroke="#ffffff" stroke-miterlimit="10" d="m75.7 40.5l29.6 29.6v10.1l6.2 6.2"/>
				<path id="&lt;Path&gt;" fill="none" stroke="#ffffff" stroke-miterlimit="10" d="m81.1 35.1l31 31v7.4"/>
				<path id="&lt;Path&gt;" fill="none" stroke="#ffffff" stroke-miterlimit="10" d="m85.8 30.4l36.6 36.6"/>
				<path id="&lt;Path&gt;" fill="none" stroke="#ffffff" stroke-miterlimit="10" d="m90.8 25.4l31.7 31.6"/>
				<path id="&lt;Path&gt;" fill="none" stroke="#ffffff" stroke-miterlimit="10" d="m95.8 21.1l32.4 32.4h8.7l3.4 3.5"/>
				<path id="&lt;Path&gt;" fill="none" stroke="#ffffff" stroke-miterlimit="10" d="m100.5 16.4l29.2 29.1h7"/>
				<path id="&lt;Path&gt;" fill="#403f4d" stroke="#ffffff" stroke-miterlimit="10" d="m109.8 84.7c1-1 2.5-1 3.5 0 0.9 0.9 0.9 2.4 0 3.4-1 0.9-2.5 0.9-3.5 0-0.9-1-0.9-2.5 0-3.4z"/>
				<path id="&lt;Path&gt;" fill="#403f4d" stroke="#ffffff" stroke-miterlimit="10" d="m110.2 73.8c0.9-0.9 2.5-0.9 3.4 0 1 1 1 2.5 0 3.5-0.9 0.9-2.5 0.9-3.4 0-1-1-1-2.5 0-3.5z"/>
				<path id="&lt;Path&gt;" fill="#403f4d" stroke="#ffffff" stroke-miterlimit="10" d="m120.9 65.5c0.9-0.9 2.5-0.9 3.4 0 1 1 1 2.5 0 3.5-0.9 0.9-2.5 0.9-3.4 0-1-1-1-2.5 0-3.5z"/>
				<path id="&lt;Path&gt;" fill="#403f4d" stroke="#ffffff" stroke-miterlimit="10" d="m122.3 56.8c0.9-0.9 2.5-0.9 3.4 0 1 1 1 2.5 0 3.5-0.9 0.9-2.5 0.9-3.4 0-1-1-1-2.5 0-3.5z"/>
				<path id="&lt;Path&gt;" fill="#403f4d" stroke="#ffffff" stroke-miterlimit="10" d="m139.6 56.2c0.9-0.9 2.5-0.9 3.4 0 1 1 1 2.5 0 3.5-0.9 0.9-2.5 0.9-3.4 0-1-1-1-2.5 0-3.5z"/>
				<path id="&lt;Path&gt;" fill="#403f4d" stroke="#ffffff" stroke-miterlimit="10" d="m137.2 43.9c1-1 2.5-1 3.4 0 1 0.9 1 2.5 0 3.4-0.9 1-2.4 1-3.4 0-0.9-0.9-0.9-2.5 0-3.4z"/>
			</g>
			<path id="&lt;Path&gt;" fill="none" stroke="#ffffff" stroke-miterlimit="10" d="m40.5 77.9l28.9 28.8h9.8l6.1 6.1"/>
			<path id="&lt;Path&gt;" fill="none" stroke="#ffffff" stroke-miterlimit="10" d="m35.3 83.1l30.2 30.2h7.2"/>
			<path id="&lt;Path&gt;" fill="none" stroke="#ffffff" stroke-miterlimit="10" d="m30.8 87.6l35.6 35.7"/>
			<path id="&lt;Path&gt;" fill="none" stroke="#ffffff" stroke-miterlimit="10" d="m25.8 92.6l30.9 30.8"/>
			<path id="&lt;Path&gt;" fill="none" stroke="#ffffff" stroke-miterlimit="10" d="m21.7 97.4l31.6 31.6v8.5l3.3 3.3"/>
			<path id="&lt;Path&gt;" fill="none" stroke="#ffffff" stroke-miterlimit="10" d="m17.1 102l28.4 28.4v6.8"/>
			<path id="&lt;Path&gt;" fill="#403f4d" stroke="#ffffff" stroke-miterlimit="10" d="m83.6 111.1c-0.9 0.9-0.9 2.4 0 3.3 0.9 1 2.4 1 3.4 0 0.9-0.9 0.9-2.4 0-3.3-1-0.9-2.5-0.9-3.4 0z"/>
			<path id="&lt;Path&gt;" fill="#403f4d" stroke="#ffffff" stroke-miterlimit="10" d="m73.1 111.4c-1 0.9-1 2.4 0 3.4 0.9 0.9 2.4 0.9 3.3 0 0.9-1 0.9-2.5 0-3.4-0.9-0.9-2.4-0.9-3.3 0z"/>
			<path id="&lt;Path&gt;" fill="#403f4d" stroke="#ffffff" stroke-miterlimit="10" d="m65 121.8c-1 1-1 2.5 0 3.4 0.9 0.9 2.4 0.9 3.3 0 0.9-0.9 0.9-2.4 0-3.4-0.9-0.9-2.4-0.9-3.3 0z"/>
			<path id="&lt;Path&gt;" fill="#403f4d" stroke="#ffffff" stroke-miterlimit="10" d="m56.5 123.2c-0.9 1-0.9 2.5 0 3.4 0.9 0.9 2.4 0.9 3.3 0 1-0.9 1-2.4 0-3.4-0.9-0.9-2.4-0.9-3.3 0z"/>
			<path id="&lt;Path&gt;" fill="#403f4d" stroke="#ffffff" stroke-miterlimit="10" d="m55.9 140.1c-0.9 0.9-0.9 2.4 0 3.3 0.9 1 2.4 1 3.4 0 0.9-0.9 0.9-2.4 0-3.3-1-1-2.5-1-3.4 0z"/>
			<path id="&lt;Path&gt;" fill="#403f4d" stroke="#ffffff" stroke-miterlimit="10" d="m43.9 137.8c-1 0.9-1 2.4 0 3.3 0.9 1 2.4 1 3.3 0 0.9-0.9 0.9-2.4 0-3.3-0.9-1-2.4-1-3.3 0z"/>
			<path id="&lt;Path&gt;" fill="#403f4d" stroke="#ffffff" stroke-miterlimit="10" d="m25.3 91.8l82.6-82.6"/>
			<path id="&lt;Path&gt;" fill="#403f4d" stroke="#ffffff" stroke-miterlimit="10" d="m42.8 20.6c6.2 6.2 6.2 16.3 0 22.6-6.2 6.2-16.3 6.2-22.6 0z"/>
			<path id="&lt;Path&gt;" fill="#403f4d" stroke="#ffffff" stroke-miterlimit="10" d="m77.7 65.4l-12.7 12.7-26-26.1 12.7-12.7z"/>
			<path id="&lt;Path&gt;" fill="#403f4d" stroke="#ffffff" stroke-miterlimit="10" d="m87.2 74.8l-12.7 12.7-7.2-7.1 12.7-12.7z"/>
			<path id="&lt;Path&gt;" fill="#403f4d" stroke="#ffffff" stroke-miterlimit="10" d="m38.9 94.7l16.4-16.5-16.4-16.4-16.5 16.4z"/>
			<path id="&lt;Path&gt;" fill="#403f4d" stroke="#ffffff" stroke-miterlimit="10" d="m17.1 116.4l16.4-16.4-16.4-16.4-16.5 16.4z"/>
			<path id="&lt;Path&gt;" fill="#403f4d" stroke="#ffffff" stroke-miterlimit="10" d="m94.3 39.2l-16.4 16.5-16.5-16.5 16.5-16.4z"/>
			<path id="&lt;Path&gt;" fill="#403f4d" stroke="#ffffff" stroke-miterlimit="10" d="m116.1 17.4l-16.5 16.5-16.4-16.5 16.4-16.4z"/>
			<g id="&lt;Group&gt;">
				<path id="&lt;Path&gt;" fill="none" stroke="#ffffff" stroke-miterlimit="10" d="m25.8 2.4c-5.5 1.5-10.7 4.4-15 8.7-4.3 4.3-7.2 9.5-8.7 15"/>
				<path id="&lt;Path&gt;" fill="none" stroke="#ffffff" stroke-miterlimit="10" d="m27.5 8.9c-4.4 1.2-8.6 3.5-12 6.9-3.4 3.5-5.7 7.6-6.9 12"/>
				<path id="&lt;Path&gt;" fill="none" stroke="#ffffff" stroke-miterlimit="10" d="m2.1 26.1c1.5-5.5 4.4-10.7 8.7-15 4.3-4.3 9.5-7.2 15-8.7"/>
				<path id="&lt;Path&gt;" fill="none" stroke="#ffffff" stroke-miterlimit="10" d="m29.2 15.2c-3.3 0.9-6.5 2.6-9.1 5.2-2.6 2.6-4.3 5.8-5.2 9.1"/>
				<path id="&lt;Path&gt;" fill="none" stroke="#ffffff" stroke-miterlimit="10" d="m8.6 27.8c1.2-4.4 3.5-8.5 6.9-12 3.4-3.4 7.6-5.7 12-6.9"/>
				<path id="&lt;Path&gt;" fill="none" stroke="#ffffff" stroke-miterlimit="10" d="m14.9 29.5c0.9-3.3 2.6-6.5 5.2-9.1 2.6-2.6 5.8-4.3 9.1-5.2"/>
			</g>
			<path id="&lt;Path&gt;" fill="#403f4d" stroke="#ffffff" stroke-miterlimit="10" d="m28.3 24.6c1.1 1.1 1.1 2.9 0 4-1.2 1.1-3 1.1-4.1 0-1.1-1.1-1.1-2.9 0-4 1.1-1.2 2.9-1.2 4.1 0z"/>
			<path id="&lt;Path&gt;" fill="#403f4d" stroke="#ffffff" stroke-miterlimit="10" d="m60.2 73.3l12.7-12.7"/>
		</g>
	</g>
</svg>