<svg version="1.2" xmlns="http://www.w3.org/2000/svg" viewBox="0 0 120 66" width="120" height="66">
	<g id="медицина">
		<g id="-e-&lt;Group&gt;">
			<g id="&lt;Group&gt;">
				<path id="&lt;Path&gt;" fill="none" stroke="#ffffff" stroke-miterlimit="10" d="m34.1 20.7h-17.9l-5.6-5.6h-6.9"/>
				<path id="&lt;Path&gt;" fill="none" stroke="#ffffff" stroke-miterlimit="10" d="m34.1 26.7h-19.4l-5.2-3.2"/>
				<path id="&lt;Path&gt;" fill="none" stroke="#ffffff" stroke-miterlimit="10" d="m34.1 31.9h-25.7"/>
				<path id="&lt;Path&gt;" fill="none" stroke="#ffffff" stroke-miterlimit="10" d="m34.1 37.9h-20.2"/>
				<path id="&lt;Path&gt;" fill="none" stroke="#ffffff" stroke-miterlimit="10" d="m33.7 42.6h-21l-4.8 4.8h-3.9"/>
				<path id="&lt;Path&gt;" fill="none" stroke="#ffffff" stroke-miterlimit="10" d="m33.7 47.9h-17.4l-3.9 3.9"/>
				<path id="&lt;Path&gt;" fill="#403f4d" stroke="#ffffff" stroke-miterlimit="10" d="m5.6 15.1c0 1.1-0.8 1.9-1.9 1.9-1.1 0-1.9-0.8-1.9-1.9 0-1 0.8-1.9 1.9-1.9 1.1 0 1.9 0.9 1.9 1.9z"/>
				<path id="&lt;Path&gt;" fill="#403f4d" stroke="#ffffff" stroke-miterlimit="10" d="m10.3 22.2c0 1-0.8 1.9-1.9 1.9-1 0-1.9-0.9-1.9-1.9 0-1.1 0.9-1.9 1.9-1.9 1.1 0 1.9 0.8 1.9 1.9z"/>
				<path id="&lt;Path&gt;" fill="#403f4d" stroke="#ffffff" stroke-miterlimit="10" d="m10.1 31.9c0 1-0.9 1.9-1.9 1.9-1.1 0-1.9-0.9-1.9-1.9 0-1.1 0.8-1.9 1.9-1.9 1 0 1.9 0.8 1.9 1.9z"/>
				<path id="&lt;Path&gt;" fill="#403f4d" stroke="#ffffff" stroke-miterlimit="10" d="m14.1 37.9c0 1.1-0.8 2-1.9 2-1 0-1.9-0.9-1.9-2 0-1 0.9-1.9 1.9-1.9 1.1 0 1.9 0.9 1.9 1.9z"/>
				<path id="&lt;Path&gt;" fill="#403f4d" stroke="#ffffff" stroke-miterlimit="10" d="m4.9 47.4c0 1.1-0.9 2-1.9 2-1.1 0-1.9-0.9-1.9-2 0-1 0.8-1.9 1.9-1.9 1 0 1.9 0.9 1.9 1.9z"/>
				<path id="&lt;Path&gt;" fill="#403f4d" stroke="#ffffff" stroke-miterlimit="10" d="m13 53c0 1.1-0.8 1.9-1.9 1.9-1 0-1.9-0.8-1.9-1.9 0-1.1 0.9-1.9 1.9-1.9 1.1 0 1.9 0.8 1.9 1.9z"/>
			</g>
			<g id="&lt;Group&gt;">
				<path id="&lt;Path&gt;" fill="#f8104b" d="m69.3 65.1h-41.1v-57.5h41.1z"/>
				<path id="&lt;Path&gt;" fill="#ffffff" d="m65.7 60.7h-34v-51.9h34z"/>
				<path id="&lt;Path&gt;" fill="#f8104b" d="m59.2 8.1h-21v-2.6h21z"/>
				<path id="&lt;Path&gt;" fill="#403f4d" d="m59.2 10.1h-21v-2.6h21z"/>
				<path id="&lt;Compound Path&gt;" fill-rule="evenodd" fill="#f8104b" d="m52.5 3.7c0 2.1-1.7 3.8-3.8 3.8-2.1 0-3.8-1.7-3.8-3.8 0-2.1 1.7-3.8 3.8-3.8 2.1 0 3.8 1.7 3.8 3.8zm-2 0c0-1-0.8-1.8-1.8-1.8-1 0-1.7 0.8-1.7 1.8 0 1 0.7 1.8 1.7 1.8 1 0 1.8-0.8 1.8-1.8z"/>
			</g>
			<g id="&lt;Group&gt;">
				<path id="&lt;Path&gt;" fill="#7cbb3b" stroke="#ffffff" stroke-miterlimit="10" d="m95.6 7.1l21.7 6.9"/>
				<path id="&lt;Path&gt;" fill="#403f4d" stroke="#ffffff" stroke-miterlimit="10" d="m117.8 44.5c-3.5 11-15.3 17.2-26.4 13.7-11-3.5-17.2-15.3-13.7-26.4 3.5-11.1 15.3-17.2 26.4-13.7 11 3.5 17.2 15.3 13.7 26.4z"/>
				<path id="&lt;Path&gt;" fill="#7cbb3b" stroke="#ffffff" stroke-miterlimit="10" d="m106.4 10.5l-2.3 7.6"/>
				<path id="&lt;Path&gt;" fill="#29b579" stroke="#29b579" stroke-miterlimit="10" d="m97.7 38.1l3.5-10.9"/>
				<path id="&lt;Path&gt;" fill="#29b579" d="m102.3 39.6c-0.8 2.5-3.5 3.8-6 3.1-2.5-0.8-3.9-3.5-3.1-6 0.8-2.5 3.5-3.9 6-3.1 2.5 0.8 3.8 3.5 3.1 6z"/>
			</g>
		</g>
	</g>
</svg>